<svg width="229" height="119" viewBox="0 0 229 119" fill="none" xmlns="http://www.w3.org/2000/svg">
<path d="M210.18 49.9637C208.741 32.7177 211.25 20.4992 214.785 12.3793C217.715 5.65038 224.908 8.44912 224.736 15.7862C224.147 40.8016 216.122 49.71 212.315 51.7459C211.101 52.3954 210.294 51.3362 210.18 49.9637Z" fill="#CF96B2"/>
<path d="M204.824 49.6322C203.422 47.251 202.381 44.3525 201.62 41.2887C199.677 33.4635 206.773 31.103 208.084 39.0585C208.62 42.3104 208.812 45.4994 208.805 48.1994C208.621 51.581 206.542 52.5506 204.824 49.6322Z" fill="#CF96B2"/>
<path d="M34.93 59.37C33.67 61.2367 32.34 63.1033 30.94 64.97C29.5867 66.8367 28.2333 68.7033 26.88 70.57C26.9733 72.1567 27.09 73.7667 27.23 75.4C27.4167 77.0333 27.6267 78.6667 27.86 80.3C28.28 83.2867 28.4433 85.7367 28.35 87.65C28.2567 89.5633 27.8833 91.08 27.23 92.2C26.5767 93.2733 25.6433 94.02 24.43 94.44C23.2167 94.8133 21.7 95 19.88 95C18.06 95 16.52 94.8133 15.26 94.44C14.0467 94.02 13.1133 93.2733 12.46 92.2C11.8067 91.08 11.4333 89.5633 11.34 87.65C11.2467 85.7367 11.41 83.2867 11.83 80.3C12.0633 78.7133 12.25 77.1033 12.39 75.47C12.5767 73.8367 12.7167 72.2267 12.81 70.64C11.41 68.7733 10.01 66.9067 8.60999 65.04C7.25666 63.1733 5.94999 61.2833 4.68999 59.37C3.14999 57.1767 2.00666 55.3333 1.25999 53.84C0.559989 52.3467 0.186656 51.0867 0.139989 50.06C0.0466556 48.9867 0.256656 48.0767 0.769989 47.33C1.32999 46.5367 2.12332 45.79 3.14999 45.09C3.94332 44.5767 4.66666 44.18 5.31999 43.9C6.01999 43.5733 6.69666 43.41 7.34999 43.41C8.42332 43.41 9.49666 43.83 10.57 44.67C11.6433 45.51 12.81 46.8867 14.07 48.8C14.5833 49.5933 15.33 50.69 16.31 52.09C17.3367 53.4433 18.5033 54.9833 19.81 56.71C21.1167 54.9833 22.26 53.4433 23.24 52.09C24.2667 50.69 25.0367 49.5933 25.55 48.8C26.81 46.8867 27.9767 45.51 29.05 44.67C30.1233 43.83 31.1967 43.41 32.27 43.41C32.9233 43.41 33.5767 43.5733 34.23 43.9C34.93 44.18 35.6767 44.5767 36.47 45.09C37.4967 45.79 38.2667 46.5367 38.78 47.33C39.34 48.0767 39.5733 48.9867 39.48 50.06C39.4333 51.0867 39.0367 52.3467 38.29 53.84C37.5433 55.3333 36.4233 57.1767 34.93 59.37ZM36.2015 82.47C36.2015 80.51 36.3415 78.2467 36.6215 75.68C36.9481 73.0667 37.0881 70.4533 37.0415 67.84C36.9948 65.9267 37.0881 64.34 37.3215 63.08C37.6015 61.82 37.9981 60.8167 38.5115 60.07C39.0715 59.3233 39.7715 58.81 40.6115 58.53C41.4515 58.25 42.4315 58.11 43.5515 58.11C45.8848 58.11 47.5648 58.7167 48.5915 59.93C49.6648 61.1433 50.1548 63.36 50.0615 66.58C50.0615 68.1667 49.9448 69.7533 49.7115 71.34C49.5248 72.9267 49.4315 74.35 49.4315 75.61C49.4315 76.8233 49.5948 77.8267 49.9215 78.62C50.2948 79.3667 50.9948 79.74 52.0215 79.74C52.2548 79.74 52.5815 79.7167 53.0015 79.67C53.4215 79.5767 53.8415 79.3667 54.2615 79.04C54.6815 78.6667 55.0548 78.13 55.3815 77.43C55.7081 76.73 55.8948 75.7733 55.9415 74.56C55.9881 73.6267 55.9415 72.74 55.8015 71.9C55.7081 71.0133 55.6615 70.22 55.6615 69.52C55.6148 67.1867 55.7081 65.2733 55.9415 63.78C56.2215 62.2867 56.6415 61.12 57.2015 60.28C57.7615 59.44 58.4615 58.88 59.3015 58.6C60.1415 58.2733 61.1215 58.11 62.2415 58.11C63.3615 58.11 64.3415 58.2733 65.1815 58.6C66.0215 58.88 66.6981 59.44 67.2115 60.28C67.7715 61.12 68.1681 62.2633 68.4015 63.71C68.6815 65.1567 68.7981 67.0467 68.7515 69.38C68.6581 71.2 68.6815 73.3933 68.8215 75.96C69.0081 78.5267 69.3348 81.0233 69.8015 83.45C70.2681 85.69 70.4548 87.5567 70.3615 89.05C70.3148 90.4967 70.0115 91.6633 69.4515 92.55C68.8915 93.4367 68.0981 94.0667 67.0715 94.44C66.0448 94.8133 64.8081 95 63.3615 95C61.9615 95 60.8181 94.86 59.9315 94.58C59.0915 94.2533 58.4148 93.81 57.9015 93.25C57.3881 92.69 57.0381 92.0133 56.8515 91.22C56.6648 90.38 56.5715 89.4467 56.5715 88.42C56.1515 89.54 55.5681 90.52 54.8215 91.36C54.0748 92.1533 53.2348 92.83 52.3015 93.39C51.4148 93.95 50.4348 94.37 49.3615 94.65C48.3348 94.8833 47.3315 95 46.3515 95C45.2781 95 44.1348 94.8367 42.9215 94.51C41.7548 94.1367 40.6581 93.4833 39.6315 92.55C38.6515 91.57 37.8348 90.2867 37.1815 88.7C36.5281 87.0667 36.2015 84.99 36.2015 82.47ZM72.3718 83.45C72.8851 81.0233 73.2118 78.55 73.3518 76.03C73.4918 73.4633 73.5385 71.2933 73.4918 69.52C73.4451 67.1867 73.5385 65.2733 73.7718 63.78C74.0518 62.2867 74.4485 61.12 74.9618 60.28C75.5218 59.44 76.2218 58.88 77.0618 58.6C77.9018 58.2733 78.8818 58.11 80.0018 58.11C81.4485 58.11 82.6385 58.3667 83.5718 58.88C84.5518 59.3933 85.2985 60.3967 85.8118 61.89C87.1651 60.35 88.6818 59.3467 90.3618 58.88C92.0418 58.3667 93.5818 58.11 94.9818 58.11C97.2218 58.11 99.0885 58.53 100.582 59.37C102.075 60.21 103.242 61.3767 104.082 62.87C104.782 61.89 105.552 61.0967 106.392 60.49C107.232 59.8367 108.072 59.3467 108.912 59.02C109.798 58.6467 110.685 58.4133 111.572 58.32C112.458 58.18 113.275 58.11 114.022 58.11C117.662 58.11 120.368 59.2067 122.142 61.4C123.915 63.5467 124.755 66.6033 124.662 70.57C124.662 71.1767 124.662 71.97 124.662 72.95C124.708 73.8833 124.755 74.9333 124.802 76.1C124.895 77.2667 125.012 78.48 125.152 79.74C125.292 81 125.478 82.2367 125.712 83.45C126.178 85.69 126.365 87.5567 126.272 89.05C126.178 90.4967 125.805 91.6633 125.152 92.55C124.545 93.4367 123.658 94.0667 122.492 94.44C121.325 94.8133 119.878 95 118.152 95C116.425 95 114.955 94.8133 113.742 94.44C112.575 94.0667 111.688 93.4133 111.082 92.48C110.475 91.5 110.125 90.2167 110.032 88.63C109.985 86.9967 110.218 84.9433 110.732 82.47C111.105 80.51 111.338 78.76 111.432 77.22C111.572 75.68 111.642 74.5833 111.642 73.93C111.642 72.4367 111.338 71.3633 110.732 70.71C110.172 70.01 109.472 69.66 108.632 69.66C108.305 69.66 107.955 69.73 107.582 69.87C107.255 69.9633 106.952 70.1967 106.672 70.57C106.392 70.8967 106.158 71.3867 105.972 72.04C105.832 72.6467 105.738 73.4633 105.692 74.49C105.785 75.8433 105.902 77.3133 106.042 78.9C106.182 80.44 106.415 81.9567 106.742 83.45C107.162 85.69 107.325 87.5567 107.232 89.05C107.138 90.4967 106.765 91.6633 106.112 92.55C105.505 93.4367 104.618 94.0667 103.452 94.44C102.285 94.8133 100.838 95 99.1118 95C97.3851 95 95.9151 94.8133 94.7018 94.44C93.5351 94.0667 92.6485 93.4133 92.0418 92.48C91.4351 91.5 91.0851 90.2167 90.9918 88.63C90.9451 86.9967 91.1785 84.9433 91.6918 82.47C92.0651 80.51 92.3218 78.76 92.4618 77.22C92.6018 75.68 92.6718 74.5833 92.6718 73.93C92.6718 72.4367 92.3685 71.3633 91.7618 70.71C91.2018 70.01 90.4785 69.66 89.5918 69.66C89.2185 69.66 88.8451 69.73 88.4718 69.87C88.1451 70.01 87.8418 70.29 87.5618 70.71C87.2818 71.13 87.0485 71.7133 86.8618 72.46C86.7218 73.16 86.6518 74.1167 86.6518 75.33C86.7918 78.0367 87.1185 80.7433 87.6318 83.45C88.0518 85.69 88.2151 87.5567 88.1218 89.05C88.0285 90.4967 87.6551 91.6633 87.0018 92.55C86.3951 93.4367 85.5085 94.0667 84.3418 94.44C83.1751 94.8133 81.7285 95 80.0018 95C78.2751 95 76.8051 94.8133 75.5918 94.44C74.4251 94.0667 73.5151 93.4367 72.8618 92.55C72.2551 91.6633 71.9051 90.4967 71.8118 89.05C71.7185 87.5567 71.9051 85.69 72.3718 83.45ZM138.371 45.79C137.951 47.4233 137.415 49.1967 136.761 51.11C136.108 53.0233 135.385 54.9367 134.591 56.85C133.845 58.7167 133.098 60.49 132.351 62.17H127.801C128.128 60.8633 128.455 59.4633 128.781 57.97C129.155 56.4767 129.481 54.9833 129.761 53.49C130.088 51.95 130.368 50.4567 130.601 49.01C130.881 47.5633 131.115 46.2333 131.301 45.02H137.881L138.371 45.79ZM140.458 83.45C140.971 81.0233 141.298 78.55 141.438 76.03C141.578 73.4633 141.624 71.2933 141.578 69.52C141.531 67.1867 141.624 65.2733 141.858 63.78C142.138 62.2867 142.534 61.12 143.048 60.28C143.608 59.44 144.308 58.88 145.148 58.6C145.988 58.2733 146.968 58.11 148.088 58.11C149.534 58.11 150.724 58.3667 151.658 58.88C152.638 59.3933 153.384 60.3967 153.898 61.89C155.251 60.35 156.768 59.3467 158.448 58.88C160.128 58.3667 161.668 58.11 163.068 58.11C165.308 58.11 167.174 58.53 168.668 59.37C170.161 60.21 171.328 61.3767 172.168 62.87C172.868 61.89 173.638 61.0967 174.478 60.49C175.318 59.8367 176.158 59.3467 176.998 59.02C177.884 58.6467 178.771 58.4133 179.658 58.32C180.544 58.18 181.361 58.11 182.108 58.11C185.748 58.11 188.454 59.2067 190.228 61.4C192.001 63.5467 192.841 66.6033 192.748 70.57C192.748 71.1767 192.748 71.97 192.748 72.95C192.794 73.8833 192.841 74.9333 192.888 76.1C192.981 77.2667 193.098 78.48 193.238 79.74C193.378 81 193.564 82.2367 193.798 83.45C194.264 85.69 194.451 87.5567 194.358 89.05C194.264 90.4967 193.891 91.6633 193.238 92.55C192.631 93.4367 191.744 94.0667 190.578 94.44C189.411 94.8133 187.964 95 186.238 95C184.511 95 183.041 94.8133 181.828 94.44C180.661 94.0667 179.774 93.4133 179.168 92.48C178.561 91.5 178.211 90.2167 178.118 88.63C178.071 86.9967 178.304 84.9433 178.818 82.47C179.191 80.51 179.424 78.76 179.518 77.22C179.658 75.68 179.728 74.5833 179.728 73.93C179.728 72.4367 179.424 71.3633 178.818 70.71C178.258 70.01 177.558 69.66 176.718 69.66C176.391 69.66 176.041 69.73 175.668 69.87C175.341 69.9633 175.038 70.1967 174.758 70.57C174.478 70.8967 174.244 71.3867 174.058 72.04C173.918 72.6467 173.824 73.4633 173.778 74.49C173.871 75.8433 173.988 77.3133 174.128 78.9C174.268 80.44 174.501 81.9567 174.828 83.45C175.248 85.69 175.411 87.5567 175.318 89.05C175.224 90.4967 174.851 91.6633 174.198 92.55C173.591 93.4367 172.704 94.0667 171.538 94.44C170.371 94.8133 168.924 95 167.198 95C165.471 95 164.001 94.8133 162.788 94.44C161.621 94.0667 160.734 93.4133 160.128 92.48C159.521 91.5 159.171 90.2167 159.078 88.63C159.031 86.9967 159.264 84.9433 159.778 82.47C160.151 80.51 160.408 78.76 160.548 77.22C160.688 75.68 160.758 74.5833 160.758 73.93C160.758 72.4367 160.454 71.3633 159.848 70.71C159.288 70.01 158.564 69.66 157.678 69.66C157.304 69.66 156.931 69.73 156.558 69.87C156.231 70.01 155.928 70.29 155.648 70.71C155.368 71.13 155.134 71.7133 154.948 72.46C154.808 73.16 154.738 74.1167 154.738 75.33C154.878 78.0367 155.204 80.7433 155.718 83.45C156.138 85.69 156.301 87.5567 156.208 89.05C156.114 90.4967 155.741 91.6633 155.088 92.55C154.481 93.4367 153.594 94.0667 152.428 94.44C151.261 94.8133 149.814 95 148.088 95C146.361 95 144.891 94.8133 143.678 94.44C142.511 94.0667 141.601 93.4367 140.948 92.55C140.341 91.6633 139.991 90.4967 139.898 89.05C139.804 87.5567 139.991 85.69 140.458 83.45ZM209.257 77.22C209.817 78.2467 210.797 78.76 212.197 78.76C212.664 78.76 213.154 78.6433 213.667 78.41C214.181 78.13 215.091 77.43 216.397 76.31C216.724 76.0767 217.144 75.82 217.657 75.54C218.171 75.2133 218.824 75.05 219.617 75.05C220.457 75.05 221.484 75.2833 222.697 75.75C224.517 76.4967 225.894 77.6167 226.827 79.11C227.807 80.5567 227.971 82.47 227.317 84.85C226.944 86.2967 226.291 87.65 225.357 88.91C224.471 90.1233 223.351 91.1967 221.997 92.13C220.644 93.0167 219.057 93.7167 217.237 94.23C215.417 94.7433 213.387 95 211.147 95C208.907 95 206.831 94.72 204.917 94.16C203.004 93.5533 201.347 92.6433 199.947 91.43C198.547 90.17 197.451 88.56 196.657 86.6C195.864 84.64 195.467 82.2833 195.467 79.53C195.467 76.7767 195.864 74.1167 196.657 71.55C197.497 68.9367 198.687 66.65 200.227 64.69C201.814 62.6833 203.727 61.0967 205.967 59.93C208.254 58.7167 210.821 58.11 213.667 58.11C215.254 58.11 216.724 58.2967 218.077 58.67C219.477 59.0433 220.667 59.58 221.647 60.28C222.674 60.9333 223.467 61.7033 224.027 62.59C224.587 63.4767 224.867 64.4567 224.867 65.53C224.867 66.93 224.377 68.26 223.397 69.52C222.464 70.78 221.227 71.9467 219.687 73.02C218.194 74.0467 216.514 74.9333 214.647 75.68C212.827 76.4267 211.031 76.94 209.257 77.22ZM209.047 72.74C209.841 72.6933 210.587 72.5767 211.287 72.39C212.034 72.1567 212.687 71.9 213.247 71.62C213.854 71.34 214.321 71.0367 214.647 70.71C215.021 70.3367 215.207 69.9633 215.207 69.59C215.207 69.1233 214.997 68.75 214.577 68.47C214.157 68.1433 213.691 67.98 213.177 67.98C212.151 67.98 211.264 68.47 210.517 69.45C209.817 70.43 209.327 71.5267 209.047 72.74Z" fill="#379287"/>
</svg>
