<svg width="224" height="65" viewBox="0 0 224 65" fill="none" xmlns="http://www.w3.org/2000/svg">
<path d="M0.71501 1.75535C0.97501 1.49535 1.45168 1.25701 2.14501 1.04035C2.83834 0.823681 3.66168 0.650348 4.61501 0.52035C5.61168 0.347016 6.67334 0.217015 7.80001 0.130347C8.97001 0.0436816 10.14 0.000348866 11.31 0.000348866C12.6967 0.000348866 14.0183 0.0653493 15.275 0.19535C16.5317 0.325349 17.5933 0.542015 18.46 0.84535C19.5867 1.23535 20.3883 1.84202 20.865 2.66535C21.385 3.48868 21.6883 4.31202 21.775 5.13535C21.905 5.91535 21.8617 6.63035 21.645 7.28035C21.4717 7.88701 21.2117 8.23368 20.865 8.32035C20.4317 8.40702 19.9983 8.34202 19.565 8.12535C19.1317 7.86535 18.33 7.51868 17.16 7.08535C16.6833 6.91202 16.25 6.82535 15.86 6.82535C15.2967 6.82535 14.8417 6.99868 14.495 7.34535C14.1917 7.69201 13.9967 8.14702 13.91 8.71035C13.8233 9.27368 13.845 9.90202 13.975 10.5953C14.105 11.2887 14.365 11.982 14.755 12.6753C15.015 13.152 15.405 13.8887 15.925 14.8854C16.445 15.8387 17.03 16.9003 17.68 18.0703C18.3733 19.197 19.0883 20.3887 19.825 21.6453C20.605 22.8587 21.3417 23.9637 22.035 24.9603C22.7717 25.9137 23.4433 26.6937 24.05 27.3003C24.7 27.907 25.1983 28.167 25.545 28.0804C25.935 27.9937 26.2383 27.5603 26.455 26.7803C26.715 26.0003 26.91 25.0037 27.04 23.7903C27.17 22.5337 27.2567 21.1253 27.3 19.5653C27.3433 18.0053 27.3217 16.402 27.235 14.7553C27.1917 13.0653 27.105 11.397 26.975 9.75035C26.8883 8.10368 26.7583 6.58701 26.585 5.20035C26.4117 3.81368 26.7583 2.79535 27.625 2.14535C28.4917 1.49535 29.5967 1.04035 30.94 0.78035C32.3267 0.520349 33.8 0.412014 35.36 0.455347C36.92 0.455347 38.3283 0.477015 39.585 0.52035C40.7117 0.52035 41.795 0.585349 42.835 0.715347C43.9183 0.802016 44.8283 1.01868 45.565 1.36535C46.345 1.66868 46.8867 2.12368 47.19 2.73035C47.5367 3.29368 47.515 4.09535 47.125 5.13535C46.8217 6.00201 46.3017 7.15035 45.565 8.58035C44.8283 9.96702 43.9833 11.527 43.03 13.2603C42.0767 14.9504 41.0583 16.727 39.975 18.5903C38.935 20.4537 37.9383 22.2953 36.985 24.1153C36.0317 25.892 35.165 27.582 34.385 29.1853C33.6483 30.7887 33.1067 32.197 32.76 33.4104C31.9367 36.1837 31.5033 38.8053 31.46 41.2754C31.46 43.702 31.6333 45.9987 31.98 48.1654C32.3267 50.332 32.7167 52.3904 33.15 54.3404C33.6267 56.247 33.9083 58.1104 33.995 59.9304C34.0383 60.6237 33.7783 61.252 33.215 61.8154C32.695 62.3354 31.98 62.747 31.07 63.0504C30.16 63.397 29.12 63.657 27.95 63.8304C26.8233 64.0037 25.6317 64.0904 24.375 64.0904C23.1617 64.0904 21.9483 64.0037 20.735 63.8304C19.565 63.7004 18.5033 63.4837 17.55 63.1804C16.5967 62.9204 15.795 62.5954 15.145 62.2054C14.495 61.772 14.0833 61.2954 13.91 60.7754C13.6067 59.822 13.4983 58.717 13.585 57.4604C13.6717 56.1604 13.845 54.752 14.105 53.2354C14.365 51.6754 14.6467 50.007 14.95 48.2304C15.2533 46.4104 15.47 44.482 15.6 42.4454C15.6867 41.492 15.4267 40.1053 14.82 38.2853C14.2133 36.4654 13.4117 34.4287 12.415 32.1753C11.4617 29.8787 10.4 27.4954 9.23001 25.0253C8.06001 22.512 6.93334 20.1504 5.85001 17.9404C4.76668 15.687 3.79168 13.6937 2.92501 11.9603C2.10168 10.1837 1.53834 8.88368 1.23501 8.06035C0.801677 6.84702 0.476676 5.87202 0.26001 5.13535C0.0866765 4.39868 9.86829e-06 3.83535 9.86829e-06 3.44535C9.86829e-06 3.01201 0.0650098 2.68701 0.19501 2.47035C0.32501 2.21035 0.498343 1.97202 0.71501 1.75535ZM43.8684 23.6604C43.6517 22.3603 43.5434 21.3203 43.5434 20.5403C43.5867 19.717 43.7384 19.0887 43.9984 18.6553C44.3017 18.1787 44.7134 17.8537 45.2334 17.6803C45.7967 17.507 46.4684 17.3987 47.2484 17.3554C48.0284 17.312 49.0467 17.312 50.3034 17.3554C51.6034 17.3554 52.8817 17.4637 54.1384 17.6803C55.4384 17.897 56.6084 18.2654 57.6484 18.7854C58.7317 19.3053 59.4251 20.0637 59.7284 21.0603C60.0317 22.0137 60.1401 22.9237 60.0534 23.7903C59.9667 24.6137 59.7501 25.3503 59.4034 26.0004C59.0567 26.6504 58.6017 27.1704 58.0384 27.5604C57.5184 27.907 56.9551 28.0804 56.3484 28.0804C55.6551 28.0804 54.9617 27.7987 54.2684 27.2354C54.0084 27.0187 53.9001 26.7154 53.9434 26.3254C54.0301 25.9354 54.0951 25.5454 54.1384 25.1554C54.2251 24.7654 54.2034 24.4404 54.0734 24.1804C53.9867 23.877 53.6401 23.7253 53.0334 23.7253C52.1667 23.7253 51.7767 24.5053 51.8634 26.0654C51.9934 27.6254 52.4267 29.9437 53.1634 33.0203C53.4234 34.1037 53.7484 35.382 54.1384 36.8554C54.5284 38.3287 54.9617 39.8453 55.4384 41.4054C55.9584 42.9654 56.5217 44.5037 57.1284 46.0204C57.7351 47.4937 58.4067 48.8154 59.1434 49.9854C59.8801 51.1554 60.6601 52.087 61.4834 52.7804C62.3067 53.4737 63.1951 53.7987 64.1484 53.7554C64.7984 53.712 65.3184 53.3004 65.7084 52.5204C66.1417 51.697 66.4451 50.657 66.6184 49.4004C66.8351 48.1437 66.9651 46.757 67.0084 45.2404C67.0951 43.7237 67.1167 42.2503 67.0734 40.8204C67.0301 39.347 66.9651 38.0037 66.8784 36.7903C66.7917 35.5337 66.7051 34.5804 66.6184 33.9303C66.4451 32.5004 66.1851 31.1787 65.8384 29.9654C65.5351 28.752 65.1884 27.6037 64.7984 26.5203C64.4517 25.437 64.0834 24.397 63.6934 23.4003C63.3034 22.4037 62.9784 21.4287 62.7184 20.4753C62.4584 19.4787 62.6534 18.7203 63.3034 18.2004C63.9534 17.637 64.8201 17.2254 65.9034 16.9654C66.9867 16.7053 68.1351 16.5537 69.3484 16.5103C70.6051 16.4237 71.6884 16.3804 72.5984 16.3804C74.4184 16.3804 75.7834 16.8354 76.6934 17.7453C77.6467 18.612 78.1234 20.2153 78.1234 22.5553C78.1234 23.0754 78.0801 23.747 77.9934 24.5704C77.9501 25.3504 77.8851 26.2604 77.7984 27.3003C77.7117 28.297 77.6251 29.3804 77.5384 30.5504C77.4951 31.677 77.4734 32.847 77.4734 34.0604C77.4734 35.8803 77.4951 37.6787 77.5384 39.4554C77.5817 41.1887 77.5817 42.857 77.5384 44.4603C77.5384 46.0204 77.4734 47.5154 77.3434 48.9454C77.2134 50.332 76.9534 51.6104 76.5634 52.7804C76.0001 54.4704 75.1984 55.9654 74.1584 57.2654C73.1184 58.5654 71.9484 59.6704 70.6484 60.5804C69.3484 61.4904 67.9401 62.2054 66.4234 62.7254C64.9501 63.202 63.4551 63.462 61.9384 63.5054C60.1184 63.5487 58.4501 63.4187 56.9334 63.1154C55.4167 62.8554 54.0084 62.357 52.7084 61.6204C51.4084 60.8404 50.1951 59.822 49.0684 58.5654C47.9851 57.3087 46.9451 55.727 45.9484 53.8204C45.2984 52.5204 44.8001 51.0254 44.4534 49.3354C44.1501 47.602 43.9551 45.782 43.8684 43.8754C43.7817 41.9254 43.7601 39.9537 43.8034 37.9604C43.8467 35.967 43.8901 34.0604 43.9334 32.2404C44.0201 30.4203 44.0634 28.7737 44.0634 27.3003C44.1067 25.7837 44.0417 24.5703 43.8684 23.6604ZM80.8707 18.6553C80.9573 18.1354 81.3473 17.7237 82.0407 17.4203C82.734 17.0737 83.8607 16.9653 85.4207 17.0953C86.4173 17.182 87.544 17.2253 88.8007 17.2253C90.0573 17.2253 91.2707 17.2253 92.4407 17.2253C93.6107 17.2253 94.6507 17.2903 95.5607 17.4203C96.4707 17.507 97.0773 17.6803 97.3807 17.9404C98.3773 18.7637 99.1357 19.652 99.6557 20.6054C100.176 21.5153 100.457 22.382 100.501 23.2053C100.587 23.9853 100.436 24.6787 100.046 25.2853C99.699 25.8487 99.114 26.2387 98.2907 26.4553C97.8573 26.542 97.4457 26.3904 97.0557 26.0004C96.709 25.567 96.384 25.0903 96.0807 24.5704C95.8207 24.0503 95.539 23.5737 95.2357 23.1403C94.9757 22.707 94.694 22.5337 94.3907 22.6203C94.0873 22.707 94.0223 23.097 94.1957 23.7903C94.369 24.4404 94.694 25.242 95.1707 26.1953C95.6473 27.1487 96.2323 28.167 96.9257 29.2503C97.6623 30.3337 98.399 31.3087 99.1357 32.1753C99.9157 33.042 100.674 33.757 101.411 34.3204C102.147 34.8837 102.776 35.1003 103.296 34.9703C103.902 34.8404 104.487 34.537 105.051 34.0604C105.614 33.5404 106.134 32.9337 106.611 32.2404C107.131 31.5037 107.586 30.7237 107.976 29.9004C108.366 29.077 108.669 28.297 108.886 27.5604C109.102 26.8237 109.232 26.1737 109.276 25.6103C109.319 25.047 109.232 24.6787 109.016 24.5054C108.842 24.3754 108.626 24.4403 108.366 24.7003C108.106 24.917 107.802 25.2203 107.456 25.6103C107.152 25.957 106.784 26.282 106.351 26.5854C105.917 26.8887 105.462 27.0187 104.986 26.9754C104.292 26.932 103.751 26.5204 103.361 25.7404C102.971 24.917 102.776 24.007 102.776 23.0104C102.776 21.9703 102.971 20.9953 103.361 20.0853C103.794 19.132 104.444 18.482 105.311 18.1353C106.091 17.832 107.001 17.572 108.041 17.3554C109.081 17.1387 110.164 16.9653 111.291 16.8353C112.417 16.662 113.544 16.532 114.671 16.4454C115.841 16.3587 116.946 16.3153 117.986 16.3153C119.026 16.3153 119.957 16.3587 120.781 16.4454C121.604 16.532 122.232 16.662 122.666 16.8353C123.446 17.1387 124.031 17.442 124.421 17.7453C124.854 18.0053 125.157 18.3303 125.331 18.7203C125.504 19.1103 125.591 19.587 125.591 20.1503C125.591 20.6704 125.591 21.342 125.591 22.1654C125.591 23.1187 125.591 24.6137 125.591 26.6504C125.634 28.6437 125.677 30.897 125.721 33.4104C125.807 35.9237 125.894 38.5454 125.981 41.2754C126.067 44.0053 126.154 46.562 126.241 48.9454C126.327 51.3287 126.392 53.387 126.436 55.1204C126.479 56.8104 126.501 57.9154 126.501 58.4354C126.501 59.2154 126.436 59.887 126.306 60.4504C126.176 61.0137 125.894 61.4904 125.461 61.8804C125.027 62.2704 124.377 62.5954 123.511 62.8554C122.644 63.072 121.452 63.202 119.936 63.2454C117.379 63.3754 115.407 63.1804 114.021 62.6604C112.677 62.097 112.114 61.2087 112.331 59.9954C112.721 58.002 112.981 55.9437 113.111 53.8204C113.284 51.697 113.284 49.7687 113.111 48.0354C112.981 46.2587 112.677 44.807 112.201 43.6804C111.724 42.5537 111.052 41.9904 110.186 41.9904C109.579 41.9904 109.124 42.3587 108.821 43.0953C108.561 43.7887 108.409 44.677 108.366 45.7604C108.366 46.8437 108.431 48.0354 108.561 49.3354C108.691 50.6354 108.842 51.892 109.016 53.1054C109.189 54.2754 109.362 55.337 109.536 56.2904C109.709 57.2004 109.817 57.8287 109.861 58.1754C109.991 59.042 109.709 59.887 109.016 60.7104C108.322 61.4904 107.196 61.8804 105.636 61.8804C104.899 61.8804 104.032 61.7504 103.036 61.4904C102.039 61.2304 101.129 60.7537 100.306 60.0604C99.4823 59.367 98.7673 58.587 98.1607 57.7204C97.554 56.8104 97.0557 55.8787 96.6657 54.9254C96.2757 53.9287 95.994 53.0187 95.8207 52.1954C95.6473 51.3287 95.5607 50.592 95.5607 49.9854C95.604 49.3354 95.7557 48.9237 96.0157 48.7504C96.189 48.6204 96.3407 48.577 96.4707 48.6204C96.644 48.6204 96.7957 48.6637 96.9257 48.7504C97.0557 48.7937 97.1857 48.837 97.3157 48.8804C97.489 48.9237 97.684 48.9237 97.9007 48.8804C98.1607 48.7937 98.204 48.382 98.0307 47.6454C97.9007 46.8654 97.6407 45.9554 97.2507 44.9153C96.8607 43.8754 96.3623 42.7704 95.7557 41.6003C95.1923 40.4304 94.6073 39.3904 94.0007 38.4804C93.394 37.5704 92.809 36.877 92.2457 36.4004C91.6823 35.8803 91.2273 35.7937 90.8807 36.1404C90.664 36.357 90.6207 37.0287 90.7507 38.1553C90.8807 39.2387 91.119 40.5604 91.4657 42.1204C91.8123 43.6804 92.224 45.3704 92.7007 47.1904C93.1773 48.967 93.654 50.7004 94.1307 52.3904C94.6073 54.037 95.0407 55.532 95.4307 56.8754C95.8207 58.1754 96.0807 59.107 96.2107 59.6704C96.4707 60.8404 96.3623 61.6637 95.8857 62.1404C95.409 62.617 94.7373 62.942 93.8707 63.1154C93.004 63.2887 92.029 63.3537 90.9457 63.3104C89.9057 63.3104 88.9307 63.3754 88.0207 63.5054C87.3707 63.592 86.7207 63.6354 86.0707 63.6354C85.464 63.6354 84.879 63.527 84.3157 63.3104C83.7523 63.137 83.254 62.8554 82.8207 62.4654C82.4307 62.032 82.1707 61.447 82.0407 60.7104C81.8673 59.7137 81.7807 58.327 81.7807 56.5504C81.824 54.7304 81.889 52.8237 81.9757 50.8304C82.0623 48.7937 82.149 46.822 82.2357 44.9153C82.3223 42.9654 82.3657 41.362 82.3657 40.1053C82.3657 39.2387 82.3007 38.177 82.1707 36.9204C82.084 35.6637 81.9757 34.342 81.8457 32.9554C81.7157 31.5687 81.564 30.1604 81.3907 28.7304C81.2607 27.257 81.1307 25.8703 81.0007 24.5704C80.914 23.2703 80.849 22.1003 80.8057 21.0603C80.7623 20.0203 80.784 19.2187 80.8707 18.6553ZM138.405 17.2904C138.015 18.807 137.516 20.4537 136.91 22.2303C136.303 24.007 135.631 25.7837 134.895 27.5604C134.201 29.2937 133.508 30.9404 132.815 32.5004H128.59C128.893 31.287 129.196 29.987 129.5 28.6003C129.846 27.2137 130.15 25.827 130.41 24.4403C130.713 23.0103 130.973 21.6237 131.19 20.2804C131.45 18.937 131.666 17.702 131.84 16.5753H137.95L138.405 17.2904ZM140.602 18.6553C140.689 18.1354 141.079 17.7237 141.772 17.4203C142.465 17.0737 143.592 16.9653 145.152 17.0953C146.149 17.182 147.275 17.2253 148.532 17.2253C149.789 17.2253 151.002 17.2253 152.172 17.2253C153.342 17.2253 154.382 17.2903 155.292 17.4203C156.202 17.507 156.809 17.6803 157.112 17.9404C158.109 18.7637 158.867 19.652 159.387 20.6054C159.907 21.5153 160.189 22.382 160.232 23.2053C160.319 23.9853 160.167 24.6787 159.777 25.2853C159.43 25.8487 158.845 26.2387 158.022 26.4553C157.589 26.542 157.177 26.3904 156.787 26.0004C156.44 25.567 156.115 25.0903 155.812 24.5704C155.552 24.0503 155.27 23.5737 154.967 23.1403C154.707 22.707 154.425 22.5337 154.122 22.6203C153.819 22.707 153.754 23.097 153.927 23.7903C154.1 24.4404 154.425 25.242 154.902 26.1953C155.379 27.1487 155.964 28.167 156.657 29.2503C157.394 30.3337 158.13 31.3087 158.867 32.1753C159.647 33.042 160.405 33.757 161.142 34.3204C161.879 34.8837 162.507 35.1003 163.027 34.9703C163.634 34.8404 164.219 34.537 164.782 34.0604C165.345 33.5404 165.865 32.9337 166.342 32.2404C166.862 31.5037 167.317 30.7237 167.707 29.9004C168.097 29.077 168.4 28.297 168.617 27.5604C168.834 26.8237 168.964 26.1737 169.007 25.6103C169.05 25.047 168.964 24.6787 168.747 24.5054C168.574 24.3754 168.357 24.4403 168.097 24.7003C167.837 24.917 167.534 25.2203 167.187 25.6103C166.884 25.957 166.515 26.282 166.082 26.5854C165.649 26.8887 165.194 27.0187 164.717 26.9754C164.024 26.932 163.482 26.5204 163.092 25.7404C162.702 24.917 162.507 24.007 162.507 23.0104C162.507 21.9703 162.702 20.9953 163.092 20.0853C163.525 19.132 164.175 18.482 165.042 18.1353C165.822 17.832 166.732 17.572 167.772 17.3554C168.812 17.1387 169.895 16.9653 171.022 16.8353C172.149 16.662 173.275 16.532 174.402 16.4454C175.572 16.3587 176.677 16.3153 177.717 16.3153C178.757 16.3153 179.689 16.3587 180.512 16.4454C181.335 16.532 181.964 16.662 182.397 16.8353C183.177 17.1387 183.762 17.442 184.152 17.7453C184.585 18.0053 184.889 18.3303 185.062 18.7203C185.235 19.1103 185.322 19.587 185.322 20.1503C185.322 20.6704 185.322 21.342 185.322 22.1654C185.322 23.1187 185.322 24.6137 185.322 26.6504C185.365 28.6437 185.409 30.897 185.452 33.4104C185.539 35.9237 185.625 38.5454 185.712 41.2754C185.799 44.0053 185.885 46.562 185.972 48.9454C186.059 51.3287 186.124 53.387 186.167 55.1204C186.21 56.8104 186.232 57.9154 186.232 58.4354C186.232 59.2154 186.167 59.887 186.037 60.4504C185.907 61.0137 185.625 61.4904 185.192 61.8804C184.759 62.2704 184.109 62.5954 183.242 62.8554C182.375 63.072 181.184 63.202 179.667 63.2454C177.11 63.3754 175.139 63.1804 173.752 62.6604C172.409 62.097 171.845 61.2087 172.062 59.9954C172.452 58.002 172.712 55.9437 172.842 53.8204C173.015 51.697 173.015 49.7687 172.842 48.0354C172.712 46.2587 172.409 44.807 171.932 43.6804C171.455 42.5537 170.784 41.9904 169.917 41.9904C169.31 41.9904 168.855 42.3587 168.552 43.0953C168.292 43.7887 168.14 44.677 168.097 45.7604C168.097 46.8437 168.162 48.0354 168.292 49.3354C168.422 50.6354 168.574 51.892 168.747 53.1054C168.92 54.2754 169.094 55.337 169.267 56.2904C169.44 57.2004 169.549 57.8287 169.592 58.1754C169.722 59.042 169.44 59.887 168.747 60.7104C168.054 61.4904 166.927 61.8804 165.367 61.8804C164.63 61.8804 163.764 61.7504 162.767 61.4904C161.77 61.2304 160.86 60.7537 160.037 60.0604C159.214 59.367 158.499 58.587 157.892 57.7204C157.285 56.8104 156.787 55.8787 156.397 54.9254C156.007 53.9287 155.725 53.0187 155.552 52.1954C155.379 51.3287 155.292 50.592 155.292 49.9854C155.335 49.3354 155.487 48.9237 155.747 48.7504C155.92 48.6204 156.072 48.577 156.202 48.6204C156.375 48.6204 156.527 48.6637 156.657 48.7504C156.787 48.7937 156.917 48.837 157.047 48.8804C157.22 48.9237 157.415 48.9237 157.632 48.8804C157.892 48.7937 157.935 48.382 157.762 47.6454C157.632 46.8654 157.372 45.9554 156.982 44.9153C156.592 43.8754 156.094 42.7704 155.487 41.6003C154.924 40.4304 154.339 39.3904 153.732 38.4804C153.125 37.5704 152.54 36.877 151.977 36.4004C151.414 35.8803 150.959 35.7937 150.612 36.1404C150.395 36.357 150.352 37.0287 150.482 38.1553C150.612 39.2387 150.85 40.5604 151.197 42.1204C151.544 43.6804 151.955 45.3704 152.432 47.1904C152.909 48.967 153.385 50.7004 153.862 52.3904C154.339 54.037 154.772 55.532 155.162 56.8754C155.552 58.1754 155.812 59.107 155.942 59.6704C156.202 60.8404 156.094 61.6637 155.617 62.1404C155.14 62.617 154.469 62.942 153.602 63.1154C152.735 63.2887 151.76 63.3537 150.677 63.3104C149.637 63.3104 148.662 63.3754 147.752 63.5054C147.102 63.592 146.452 63.6354 145.802 63.6354C145.195 63.6354 144.61 63.527 144.047 63.3104C143.484 63.137 142.985 62.8554 142.552 62.4654C142.162 62.032 141.902 61.447 141.772 60.7104C141.599 59.7137 141.512 58.327 141.512 56.5504C141.555 54.7304 141.62 52.8237 141.707 50.8304C141.794 48.7937 141.88 46.822 141.967 44.9153C142.054 42.9654 142.097 41.362 142.097 40.1053C142.097 39.2387 142.032 38.177 141.902 36.9204C141.815 35.6637 141.707 34.342 141.577 32.9554C141.447 31.5687 141.295 30.1604 141.122 28.7304C140.992 27.257 140.862 25.8703 140.732 24.5704C140.645 23.2703 140.58 22.1003 140.537 21.0603C140.494 20.0203 140.515 19.2187 140.602 18.6553ZM189.101 20.4753C189.275 19.782 189.513 19.2404 189.816 18.8504C190.12 18.4604 190.445 18.157 190.791 17.9404C191.138 17.6803 191.528 17.507 191.961 17.4203C192.395 17.2903 192.828 17.1603 193.261 17.0304C194.215 16.727 195.71 16.5103 197.746 16.3804C199.783 16.2504 202.015 16.1853 204.441 16.1853C206.001 16.1853 207.583 16.207 209.186 16.2503C210.79 16.2937 212.285 16.3587 213.671 16.4454C215.058 16.532 216.271 16.6187 217.311 16.7054C218.395 16.792 219.218 16.9003 219.781 17.0304C220.301 17.117 220.8 17.2253 221.276 17.3554C221.796 17.4853 222.208 17.8753 222.511 18.5254C222.858 19.1753 223.075 20.1937 223.161 21.5803C223.248 22.967 223.161 24.9604 222.901 27.5604C222.771 28.9904 222.728 30.3987 222.771 31.7854C222.858 33.1287 222.88 34.342 222.836 35.4253C222.836 36.5087 222.685 37.4187 222.381 38.1553C222.121 38.892 221.58 39.3254 220.756 39.4554C218.72 39.802 216.921 39.6504 215.361 39.0004C213.801 38.3504 212.523 37.527 211.526 36.5304C210.53 35.5337 209.836 34.5154 209.446 33.4753C209.1 32.392 209.121 31.612 209.511 31.1354C209.771 30.8754 210.053 30.7454 210.356 30.7454C210.746 30.7454 211.158 30.8754 211.591 31.1354C212.025 31.3954 212.436 31.677 212.826 31.9803C213.26 32.2404 213.628 32.457 213.931 32.6304C214.235 32.8037 214.451 32.782 214.581 32.5653C214.928 31.9587 214.841 31.287 214.321 30.5504C213.801 29.8137 213.043 29.0987 212.046 28.4054C211.05 27.712 209.88 27.1487 208.536 26.7153C207.193 26.2387 205.871 26.0004 204.571 26.0004C203.575 26.0004 202.621 26.1737 201.711 26.5203C200.845 26.8237 200.065 27.3654 199.371 28.1454C199.068 28.492 199.003 28.9687 199.176 29.5754C199.393 30.182 199.696 30.7887 200.086 31.3953C200.52 31.9587 200.953 32.457 201.386 32.8903C201.863 33.2803 202.231 33.4753 202.491 33.4753C202.751 33.4753 202.968 33.3887 203.141 33.2153C203.315 32.9987 203.466 32.782 203.596 32.5653C203.77 32.3487 203.943 32.132 204.116 31.9154C204.29 31.6987 204.506 31.5904 204.766 31.5904C205.416 31.547 205.98 31.872 206.456 32.5653C206.976 33.2154 207.388 34.0387 207.691 35.0354C208.038 36.032 208.255 37.1154 208.341 38.2853C208.471 39.4554 208.493 40.5387 208.406 41.5354C208.32 42.532 208.125 43.3554 207.821 44.0053C207.518 44.6554 207.085 44.9804 206.521 44.9804C206.001 44.9804 205.546 44.8287 205.156 44.5254C204.81 44.222 204.463 43.897 204.116 43.5503C203.813 43.1603 203.51 42.8137 203.206 42.5103C202.903 42.207 202.556 42.0553 202.166 42.0553C201.95 42.0553 201.711 42.1204 201.451 42.2504C200.931 42.5537 200.671 43.1604 200.671 44.0704C200.671 44.937 200.845 45.977 201.191 47.1904C201.581 48.3604 202.101 49.5954 202.751 50.8954C203.445 52.1954 204.203 53.387 205.026 54.4704C205.85 55.5537 206.695 56.4637 207.561 57.2004C208.471 57.937 209.338 58.327 210.161 58.3704C211.418 58.4137 212.393 58.002 213.086 57.1354C213.823 56.2687 214.321 55.3154 214.581 54.2754C214.841 53.2354 214.885 52.282 214.711 51.4154C214.581 50.5487 214.3 50.1154 213.866 50.1154C213.346 50.1154 212.956 50.1804 212.696 50.3104C212.48 50.4404 212.285 50.592 212.111 50.7654C211.981 50.9387 211.808 51.0687 211.591 51.1554C211.375 51.242 211.028 51.2637 210.551 51.2204C209.988 51.1337 209.511 50.7654 209.121 50.1154C208.731 49.4654 208.536 48.7287 208.536 47.9054C208.536 47.0387 208.753 46.1937 209.186 45.3703C209.62 44.547 210.356 43.9404 211.396 43.5503C212.133 43.247 212.956 43.0304 213.866 42.9004C214.776 42.727 215.686 42.6404 216.596 42.6404C217.68 42.6404 218.676 42.7704 219.586 43.0304C220.496 43.2904 221.146 43.7237 221.536 44.3304C221.926 45.0237 222.23 46.0637 222.446 47.4504C222.706 48.7937 222.88 50.2454 222.966 51.8054C223.096 53.3654 223.183 54.9254 223.226 56.4854C223.313 58.002 223.4 59.2804 223.486 60.3204C223.573 61.3604 223.248 62.1404 222.511 62.6604C221.775 63.1804 220.735 63.462 219.391 63.5054C218.871 63.5054 218.07 63.527 216.986 63.5704C215.903 63.6137 214.646 63.6354 213.216 63.6354C211.83 63.6787 210.335 63.7004 208.731 63.7004C207.128 63.7437 205.525 63.7654 203.921 63.7654C201.581 63.7654 199.415 63.722 197.421 63.6354C195.428 63.592 193.976 63.5054 193.066 63.3754C192.07 63.202 191.333 62.877 190.856 62.4004C190.38 61.9237 190.055 61.382 189.881 60.7754C189.708 60.1254 189.621 59.4754 189.621 58.8254C189.665 58.132 189.708 57.5254 189.751 57.0054C189.751 56.7454 189.73 56.052 189.686 54.9254C189.686 53.7987 189.643 52.412 189.556 50.7654C189.513 49.0754 189.448 47.212 189.361 45.1754C189.318 43.1387 189.253 41.0587 189.166 38.9354C189.123 36.812 189.058 34.732 188.971 32.6954C188.928 30.6154 188.906 28.7304 188.906 27.0403C188.906 25.3504 188.906 23.9204 188.906 22.7504C188.95 21.5803 189.015 20.822 189.101 20.4753Z" fill="#003459"/>
</svg>
