<svg width="291" height="253" viewBox="0 0 291 253" fill="none" xmlns="http://www.w3.org/2000/svg">
<path d="M290.384 122.074C290.837 120.489 288.537 118.354 284.826 116.586C284.103 116.238 283.677 115.48 283.772 114.679C284.252 110.593 283.659 107.51 282.074 107.057C280.489 106.604 278.354 108.903 276.586 112.614C276.238 113.337 275.48 113.764 274.679 113.668C270.593 113.189 267.51 113.781 267.057 115.367C266.604 116.952 268.903 119.086 272.614 120.854C273.337 121.203 273.764 121.961 273.668 122.762C273.189 126.847 273.781 129.931 275.367 130.384C276.952 130.837 279.086 128.537 280.854 124.826C281.203 124.103 281.961 123.677 282.762 123.772C286.839 124.252 289.922 123.659 290.384 122.074Z" fill="#F9C846"/>
<path d="M196.752 9.30999C196.404 7.69851 193.364 6.90584 189.252 7.1149C188.451 7.15845 187.719 6.68807 187.423 5.93896C185.899 2.11497 183.913 -0.31531 182.31 0.033117C180.699 0.381544 179.906 3.42157 180.115 7.53301C180.158 8.33439 179.688 9.06609 178.939 9.36225C175.115 10.8866 172.685 12.8727 173.033 14.4754C173.382 16.0869 176.422 16.8796 180.533 16.6705C181.334 16.627 182.066 17.0973 182.362 17.8465C183.887 21.6704 185.873 24.1007 187.475 23.7523C189.087 23.4039 189.88 20.3638 189.671 16.2524C189.627 15.451 190.097 14.7193 190.846 14.4232C194.67 12.9075 197.101 10.9215 196.752 9.30999Z" fill="#003459"/>
<path d="M44.8067 57.2765C57.3153 24.0539 81.8968 17.9913 95.6161 18C135.25 18.0087 150.554 30.9615 176.016 60.0987C199.892 87.4241 216.93 83.304 230.64 93.7916C252.992 110.899 265.692 169.958 222.391 206.072C161.007 257.282 121.574 260.392 68.5259 243.859C32.7512 232.71 2.769 202.24 2.04602 168.503C0.652307 103.321 31.2791 93.208 44.8067 57.2765Z" fill="#F9C846"/>
<path d="M110.245 66.4954C95.6957 68.5146 81.196 75.8528 70.2715 86.6877C62.5251 94.4199 56.616 103.285 53.14 112.544C52.3951 114.464 51.6503 116.188 51.4517 116.385C51.2034 116.631 50.5578 116.188 49.962 115.449C49.1675 114.464 48.9192 113.43 48.8695 111.115C48.8199 105.255 47.3798 103.482 43.8542 104.959C42.4142 105.55 42.2652 105.501 41.0238 104.024C38.4913 100.97 34.6677 101.463 35.1643 104.762C35.4622 106.338 35.4126 106.388 33.6746 106.388C32.7311 106.388 31.2911 106.782 30.4966 107.225C29.1062 108.013 29.0565 108.259 29.3545 110.081C29.5034 111.165 29.851 112.347 30.0497 112.741C30.2483 113.135 30.0497 114.07 29.5034 115.006C27.8648 117.764 29.4538 119.931 33.9725 121.162C38.5906 122.394 38.9382 122.788 45.1949 134.46C48.0254 139.68 48.5219 141.108 49.1675 144.999C51.9482 161.99 63.7665 177.504 80.2525 185.679C84.0264 187.6 85.6154 188.733 87.7507 191.097C91.6239 195.332 91.7729 197.45 88.4955 206.118C87.1548 209.664 87.4031 209.762 96.9371 209.467C101.506 209.368 105.528 209.024 105.875 208.777C106.173 208.482 106.62 207.546 106.819 206.709C107.365 204.049 109.302 200.257 110.99 198.287C113.423 195.579 115.111 194.84 118.339 195.234C123.901 195.874 128.171 199.371 133.087 207.251C136.613 212.816 137.854 213.702 144.31 215.229C150.417 216.657 154.34 216.953 156.178 216.214C158.611 215.229 158.164 213.801 154.241 210.304C151.659 208.039 150.517 206.561 149.474 204.345C148.729 202.72 148.232 201.291 148.332 201.193C148.431 201.094 150.368 200.651 152.702 200.208C161.888 198.336 167.301 195.677 175.593 188.782C180.062 185.088 183.141 181.739 187.213 176.076C189.944 172.333 190.341 172.382 191.93 176.716C194.016 182.478 194.413 183.069 196.3 183.611C197.492 184.005 198.187 184.005 198.286 183.709C198.535 182.971 199.18 183.118 201.166 184.448C202.458 185.335 203.649 185.679 205.288 185.679C207.522 185.679 207.572 185.63 208.466 183.562C208.913 182.429 209.31 181.296 209.31 181.099C209.31 180.853 209.956 180.163 210.75 179.474C212.786 177.799 213.034 176.076 211.743 172.579C210.849 170.166 209.856 168.885 205.834 164.995C203.202 162.434 200.074 158.937 198.932 157.213L196.797 154.11L197.442 148.693C198.137 142.143 197.79 131.259 196.648 126.087C193.867 113.479 187.858 102.694 177.629 92.0067C165.066 78.9063 151.113 70.8293 134.825 67.2341C130.555 66.2491 115.111 65.8059 110.245 66.4954ZM132.64 70.6816C148.133 73.3411 162.087 81.0733 174.55 93.9274C185.227 104.959 190.49 113.873 193.271 125.743C194.314 130.077 194.463 148.545 193.519 150.86C192.626 152.978 194.165 155.883 198.485 160.464C203.053 165.241 206.877 170.067 208.267 172.727C209.459 175.091 209.658 176.371 208.714 175.435C207.87 174.598 205.338 174.697 205.338 175.534C205.338 175.879 205.685 177.011 206.082 177.947C206.877 179.868 207.125 183.463 206.38 183.02C206.182 182.872 205.487 181.444 204.891 179.819C204.295 178.193 203.451 176.47 203.004 176.076C202.259 175.337 202.16 175.337 201.415 176.076C200.67 176.765 200.72 177.011 201.762 178.784C203.6 181.986 203.153 182.626 200.62 180.311C198.336 178.193 197.492 177.898 196.548 178.834C196.101 179.277 195.903 179.08 195.655 177.996C194.066 170.904 191.136 167.851 184.035 165.881C178.026 164.256 177.331 165.142 182.496 167.95C184.234 168.885 185.723 169.919 185.823 170.215C186.12 171.101 180.261 178.587 176.04 182.774C167.599 191.195 160.299 194.988 149.524 196.564L145.154 197.204L145.402 200.109C145.799 204.345 147.885 208.137 151.162 210.55L153.844 212.52L151.957 212.668C149.573 212.865 143.714 211.486 140.784 210.058C138.003 208.63 136.96 207.546 134.329 202.917C131.895 198.681 127.923 194.643 124.546 193.018C121.021 191.294 114.963 191.146 112.231 192.673C108.755 194.692 105.925 199.174 104.733 204.64L104.286 206.61H99.3207C96.5896 206.61 93.5108 206.807 92.5177 207.054C91.4749 207.251 90.6308 207.349 90.6308 207.201C90.6308 207.054 91.177 205.773 91.8722 204.296C93.6598 200.454 94.355 196.761 93.6598 194.495C92.8653 191.983 89.29 188.881 79.2097 182.133C66.6963 173.712 61.234 167.753 55.8214 156.425C52.9414 150.367 51.7993 146.23 51.6503 141.355C51.6006 137.267 51.551 137.169 48.8695 133.967C47.8764 132.736 45.6915 129.289 44.0032 126.334C41.8183 122.394 40.5272 120.621 39.2361 119.783C38.2927 119.192 37.3492 118.7 37.1009 118.7C35.9588 118.7 31.5394 117.124 31.5394 116.73C31.5394 116.434 32.2842 116.237 33.2277 116.237C34.5187 116.237 35.0153 115.991 35.2636 115.203C35.5615 114.415 35.2139 113.824 33.8236 112.691C32.1849 111.362 31.589 109.934 32.3339 109.195C32.7808 108.752 34.4691 109.737 35.7602 111.214C36.4554 112.002 37.1506 112.347 37.6471 112.15C38.7892 111.706 38.6899 110.229 37.4981 107.865C35.065 103.137 37.6471 103.334 40.7258 108.111C41.6693 109.589 42.5631 110.82 42.7121 110.82C42.8114 110.82 43.2583 110.131 43.7052 109.343C44.1521 108.505 44.897 107.865 45.3936 107.865C46.1881 107.865 46.337 108.358 46.5357 111.657C46.635 113.775 47.1315 116.287 47.5784 117.222C48.5219 119.143 50.6572 120.67 52.3455 120.67C53.4876 120.67 53.6862 120.325 55.3745 115.006C58.056 106.732 62.9223 99.3941 71.2647 91.0709C82.3878 80.039 95.3978 72.8978 108.557 70.7308C114.317 69.7951 127.128 69.7458 132.64 70.6816Z" fill="#003459"/>
<path d="M111.983 80.0883C90.1342 82.8463 76.3793 94.5184 69.3281 116.336C66.4976 125.201 65.6038 130.471 65.6038 139.139C65.6038 148.102 66.15 150.958 69.1791 157.115C73.4992 165.881 87.0555 175.583 101.704 180.311C109.5 182.823 120.325 184.744 129.86 185.236C146.544 186.123 153.943 183.808 163.278 174.894C174.104 164.551 181.006 148.89 181.8 132.736C182.496 119.389 178.97 110.18 169.237 100.034C159.951 90.283 148.779 84.2745 134.378 81.2703C129.711 80.2853 116.154 79.5958 111.983 80.0883ZM129.86 84.4715C143.217 86.4415 154.589 91.9082 164.172 100.872C171.075 107.323 175.544 114.12 177.282 120.916C178.374 125.152 178.275 134.263 177.033 140.468C173.16 160.217 161.59 177.011 148.977 181.148C136.96 185.088 115.012 183.069 97.4834 176.322C94.653 175.238 91.8722 174.007 91.3756 173.613C90.8294 173.17 89.2404 172.136 87.8003 171.249C76.2303 164.108 71.4136 158.543 69.2288 149.727C68.0867 145.147 68.3349 133.278 69.7253 127.072C72.0095 116.681 75.3365 108.111 79.2097 102.448C85.7644 92.8439 97.2351 86.146 110.295 84.2745C115.012 83.585 124.745 83.6835 129.86 84.4715Z" fill="#003459"/>
<path d="M100.761 98.9509C99.8669 99.4434 98.6255 100.625 97.9303 101.561C96.3413 103.58 92.8156 112.248 92.3191 115.105C92.0211 117.026 92.1204 117.321 93.5108 118.651C95.0502 120.03 95.0502 120.079 94.1067 120.916C92.7163 122.147 92.8156 125.743 94.355 131.751C95.944 137.957 98.2779 142.291 100.661 143.473C102.25 144.261 102.648 144.261 104.137 143.67C109.55 141.404 113.771 130.865 114.714 117.223C115.31 108.899 113.423 102.497 109.6 99.5912C107.315 97.8674 102.995 97.5227 100.761 98.9509ZM109.202 103.039C110.245 104.516 111.189 108.949 110.791 110.525C110.344 112.248 108.954 112.15 107.812 110.328C106.868 108.752 106.173 104.024 106.67 102.743C107.117 101.61 108.309 101.758 109.202 103.039Z" fill="#003459"/>
<path d="M136.265 103.679C133.584 105.107 130.505 111.362 128.37 119.734L127.277 123.871L129.462 125.644L131.598 127.466L130.505 128.648C129.115 130.126 129.115 131.258 130.356 137.464C131.697 143.866 132.541 145.935 134.726 147.806C136.265 149.185 136.712 149.333 138.897 149.136C140.188 148.988 141.678 148.545 142.174 148.053C143.515 146.871 143.763 147.068 143.763 149.382C143.763 156.031 131.498 159.084 116.651 156.179C111.089 155.095 105.776 152.978 101.406 150.072C96.0433 146.526 95.4475 145.689 95.8944 142.487C96.1427 140.616 96.0433 139.926 95.3978 139.434C94.1067 138.35 93.1136 139.138 93.1136 141.207C93.064 143.866 91.4749 147.117 89.6376 148.151C87.701 149.235 87.7507 150.909 89.7866 151.106C90.8294 151.254 91.5246 150.86 92.617 149.727L94.0571 148.2L97.1855 150.712C101.158 153.913 108.11 157.311 113.125 158.592C124.844 161.498 137.606 160.71 142.472 156.77L143.912 155.588L145.501 157.361C146.594 158.493 147.388 158.986 147.935 158.789C148.977 158.395 148.928 156.671 147.885 155.489C147.19 154.75 146.991 153.569 146.941 150.023C146.892 147.56 146.743 145.196 146.544 144.704C146.346 144.26 146.643 142.438 147.19 140.665C149.921 131.948 150.467 116.927 148.282 111.312C145.65 104.467 140.685 101.315 136.265 103.679ZM143.813 108.308C144.806 109.096 145.005 109.786 145.154 112.888C145.303 115.893 145.203 116.631 144.508 117.222C143.763 117.863 143.515 117.764 142.323 116.434C140.883 114.858 139.493 109.687 140.089 108.16C140.486 107.077 142.373 107.175 143.813 108.308Z" fill="#003459"/>
<path d="M84.9699 133.77C84.4236 134.263 84.1754 135.149 84.2747 136.134C84.374 137.366 84.6223 137.661 85.665 137.661C87.2541 137.661 88.6444 135.396 87.8499 134.115C87.1051 132.884 85.963 132.785 84.9699 133.77Z" fill="#003459"/>
<path d="M118.19 138.892C116.303 139.631 114.814 141.699 114.764 143.669C114.665 146.329 116.105 146.476 117.396 143.916C118.538 141.699 119.581 141.108 120.921 141.847C122.808 142.832 123.454 145.442 122.312 147.215C120.921 149.481 123.702 150.712 125.192 148.496C126.384 146.723 125.937 142.734 124.348 141.01C123.255 139.877 120.524 138.35 119.581 138.449C119.382 138.449 118.736 138.646 118.19 138.892Z" fill="#003459"/>
<path d="M83.5299 143.226C81.8415 145.048 82.7354 147.412 84.9699 147.166C86.9065 146.969 87.7507 144.802 86.41 143.324C85.3175 142.093 84.5727 142.093 83.5299 143.226Z" fill="#003459"/>
<path d="M150.566 142.684C150.119 143.078 150.119 144.95 150.517 145.984C150.864 146.92 152.751 147.018 153.595 146.181C154.986 144.802 153.943 142.34 151.957 142.34C151.361 142.34 150.715 142.487 150.566 142.684Z" fill="#003459"/>
<path d="M157.27 145.098C156.376 145.689 156.178 146.28 156.277 147.659C156.376 149.136 156.624 149.53 157.568 149.629C160.001 149.973 161.59 146.821 159.852 145.098C158.909 144.113 158.66 144.113 157.27 145.098Z" fill="#003459"/>
<path d="M151.311 150.318C150.417 151.205 150.616 153.076 151.659 153.667C153.148 154.406 154.936 152.781 154.489 151.057C154.142 149.629 152.404 149.235 151.311 150.318Z" fill="#003459"/>
<path d="M109.699 160.316C108.855 162.434 114.317 165.979 118.438 165.979C119.68 165.979 121.219 165.635 121.815 165.191C122.957 164.404 123.255 162.828 122.361 162.286C121.517 161.744 118.389 161.892 117.793 162.483C116.899 163.369 116.105 163.123 113.423 161.301C110.593 159.38 110.096 159.232 109.699 160.316Z" fill="#003459"/>
<path d="M10 55C15.5228 55 20 50.5228 20 45C20 39.4771 15.5228 35 10 35C4.47715 35 0 39.4771 0 45C0 50.5228 4.47715 55 10 55Z" fill="#003459"/>
</svg>
