<svg width="115" height="104" viewBox="0 0 115 104" fill="none" xmlns="http://www.w3.org/2000/svg">
<g clip-path="url(#clip0_163_4674)">
<path opacity="0.2" d="M96.1591 36.6356C94.0739 31.2223 91.5524 25.0527 86.3003 22.5182C86.1193 22.431 85.9283 22.4049 85.7473 22.4288C83.3444 19.9423 80.6842 17.7434 77.8208 15.8888C76.8677 15.2721 75.7075 16.791 76.6023 17.5995C78.229 19.0706 79.8598 20.5503 81.3095 22.2284C82.8558 24.0175 83.9899 25.9854 84.8907 28.2258C85.7956 30.4726 86.8934 32.3686 88.2326 34.3365C89.5919 36.3349 90.6254 38.5076 91.4257 40.8329C91.8218 41.9836 92.1717 43.1517 92.5095 44.322C92.5759 44.5508 92.6463 44.784 92.7207 45.0172C92.7709 46.3269 92.6945 47.6476 92.4774 48.9595C91.9425 52.1805 90.8144 55.2642 89.793 58.3304C88.7956 61.3226 87.7681 64.306 86.5536 67.2023C86.3747 67.6295 86.1897 68.0544 86.0027 68.4772C82.9362 72.607 78.9569 75.7887 75.042 78.9029C74.0104 79.7245 75.0118 81.6161 76.0574 80.7836C77.7666 79.4238 79.4858 78.0552 81.1426 76.6081C81.2573 76.7302 81.396 76.8217 81.5548 76.8609C82.9383 77.2162 84.016 76.3967 84.8203 75.2286C85.3532 74.455 85.8197 73.6073 86.254 72.7421C86.9075 71.9684 87.5329 71.1686 88.1281 70.3427C88.5564 70.6085 89.1234 70.565 89.417 69.946C89.7065 69.338 89.992 68.7278 90.2776 68.1176C90.5933 68.0435 90.8748 67.8125 90.9974 67.3832C91.0195 67.3069 91.0437 67.2328 91.0658 67.1566C91.297 67.0955 91.5001 66.9343 91.6147 66.6444C92.4653 64.4695 93.3179 62.2924 94.1684 60.1175C94.2931 59.7971 94.2911 59.492 94.2046 59.2327C94.4781 58.5811 94.7475 57.9294 95.0149 57.2778C95.21 57.1558 95.3648 56.9422 95.4292 56.6153C95.4734 56.3843 95.5197 56.1533 95.5639 55.9201C95.6423 55.724 95.7227 55.5257 95.8032 55.3296C95.9258 55.0245 95.9238 54.7281 95.8414 54.4731C96.3541 51.7599 96.8266 49.0314 97.1564 46.2899C97.5626 42.9185 97.3756 39.7891 96.1591 36.6313V36.6356Z" fill="#003459"/>
<path opacity="0.2" d="M52.9074 9.61297C46.6298 9.15096 39.3829 9.95948 33.9559 13.8343C31.3057 15.7281 29.2788 18.5001 27.2942 21.185C25.3639 23.798 23.528 26.5199 21.9858 29.4423C18.865 35.3569 17.184 41.995 18.1814 48.8663C19.1968 55.8684 22.6714 62.1164 27.063 67.1091C31.7119 72.3961 37.7723 77.5348 44.6934 77.5457C45.6807 77.5457 45.9863 76.0834 45.184 75.5146C40.8548 72.4527 35.472 71.7902 31.4846 68.0462C27.7828 64.5703 25.3518 59.6603 23.148 54.9291C21.7947 52.0263 21.0186 49.1344 21.3866 45.8327C21.7022 42.9975 22.5508 40.1818 23.524 37.5514C25.3759 32.5434 28.0965 27.9386 31.2735 23.8633C33.041 21.5969 34.9512 19.4721 36.968 17.4867C37.9372 16.5322 38.9325 15.6082 39.948 14.7169C40.1189 14.5665 40.4567 14.2265 40.8609 13.856C41.9849 13.4376 43.1431 13.1151 44.3335 12.9015C44.7055 12.834 44.9528 12.4657 45.0232 12.0581C47.6331 11.6702 50.2753 11.5939 52.9074 11.7879C54.1581 11.8794 54.1521 9.70014 52.9074 9.60861V9.61297Z" fill="#003459"/>
<path opacity="0.2" d="M47.7397 94.8879C45.1217 94.6962 42.5037 94.7201 39.8937 94.9533C39.9299 94.0358 40.1068 93.1358 40.2677 92.2379C40.5894 90.4422 40.8468 88.6748 40.5291 86.8551C40.2677 85.3557 39.6343 83.9218 38.8139 82.6927C34.8567 76.765 27.8914 75.7691 22.9007 71.3342C22.7599 71.21 22.6131 71.1359 22.4623 71.0988C20.8718 68.7408 19.3718 66.3 18.1532 63.6936C17.3992 61.4598 16.8503 59.1237 16.3295 56.8528C15.8187 54.6278 15.4246 52.4071 15.0607 50.1711C14.755 46.4751 14.6766 41.953 12.6296 38.7974C11.6786 37.3329 10.3675 36.1213 8.91575 35.1014C7.62484 33.5497 6.23137 32.0961 4.83389 30.6556C4.5745 30.3876 4.25679 30.3156 3.96523 30.3767C3.53493 30.1195 2.98599 30.1718 2.72057 30.7951C2.41694 31.5121 2.1113 32.229 1.80768 32.946C1.54024 33.5737 1.73529 34.3473 2.4089 34.5478C2.84322 34.6764 3.25744 34.6764 3.63145 34.5783C5.09529 35.2517 6.50082 36.0733 7.82792 37.0257C8.30046 37.6097 8.75489 38.209 9.18519 38.8301C10.9848 41.43 12.1189 44.2348 12.6015 47.4448C12.7724 48.5912 12.9473 49.7418 13.1323 50.8947C13.1806 51.6116 13.2329 52.3199 13.3033 53.0107C13.6913 56.8507 14.5137 60.4792 16.05 63.9747C16.1344 64.1665 16.2209 64.3583 16.3094 64.5501C16.4602 64.9794 16.615 65.4087 16.7779 65.8315C17.922 68.8128 19.4884 71.5848 21.7686 73.7053C22.0541 73.9711 22.4281 74.0125 22.7599 73.9101C22.8665 73.9908 22.9731 74.0714 23.0816 74.1498C23.0213 74.5421 23.1339 74.9693 23.5119 75.2569C25.4885 76.7606 27.5154 78.1793 29.6026 79.4978C31.5249 80.7139 33.5819 81.712 35.4559 83.0108C37.3661 84.3358 38.3896 86.1446 38.4339 88.6312C38.4721 90.8061 38.273 93.7286 36.9962 95.5134C36.5437 96.1454 36.7307 97.5053 37.708 97.3745C37.8829 97.3505 38.0579 97.3331 38.2328 97.3113C38.9426 98.5274 40.6538 98.1482 41.9346 98.0109C43.9735 97.7951 46.0024 97.4617 48.0132 97.028C49.1814 96.7752 48.8195 94.9664 47.7457 94.8879H47.7397Z" fill="#003459"/>
<path opacity="0.2" d="M99.7041 70.3366C96.4245 75.7478 92.7689 81.3333 87.4283 84.5412C84.6253 86.2236 81.4845 86.9537 78.4542 87.9932C76.918 88.5206 75.3838 89.1286 73.9642 89.9654C72.5305 90.8088 72.2229 92.1164 72.4219 93.8162C72.7718 96.8019 74.6036 98.9506 76.6848 100.733L75.0882 101.008C73.8134 101.228 74.3543 103.327 75.6231 103.109L79.4797 102.444C80.4167 102.283 80.3504 100.927 79.719 100.452C77.4167 98.7131 74.4649 96.488 74.3744 93.1014C74.3482 92.1251 74.8429 91.9028 75.5829 91.5084C76.3188 91.1183 77.0809 90.7936 77.855 90.4994C79.2525 89.9676 80.6842 89.5427 82.1038 89.0894C84.7962 88.2329 87.4283 87.213 89.789 85.5371C92.0712 83.9179 94.0779 81.8825 95.8635 79.6552C97.9225 77.0837 99.7141 74.2767 101.437 71.4349C102.149 70.2603 100.41 69.1663 99.702 70.3344L99.7041 70.3366Z" fill="#003459"/>
<path opacity="0.2" d="M111.819 69.3773C110.56 68.0828 109.165 66.9234 107.822 65.727C107.13 63.6828 106.267 61.7084 105.632 59.6402C105.352 58.7336 105.153 57.8162 105.006 56.8921C105.119 56.356 105.232 55.8221 105.32 55.2925C106.002 51.2304 106.247 47.081 106.01 42.96C105.895 40.9681 105.694 38.961 105.342 36.9996C105.065 35.4523 104.516 34.0162 103.249 33.1423C102.863 32.8764 102.366 32.9854 102.051 33.2992C102.016 33.1575 101.982 33.0159 101.946 32.8764C100.736 28.1168 98.9018 23.7822 95.8052 20.1145C94.1845 18.1945 92.3567 16.4947 90.5028 14.845C89.5698 14.0146 88.6267 13.1974 87.6937 12.3671C86.8934 11.6567 85.319 10.6411 85.2788 9.39455C85.2326 7.99545 83.2218 7.98891 83.268 9.39455C83.3444 11.7504 85.3814 13.1233 86.9095 14.4723C88.6106 15.9716 90.3278 17.4514 91.9525 19.051C93.6094 20.6833 95.1859 22.4441 96.4486 24.4556C97.7878 26.5891 98.7248 28.9515 99.4467 31.4032C100.967 36.5594 101.801 41.9597 101.988 47.3665C102.083 50.0688 102.016 52.7776 101.787 55.4691C101.675 56.7854 101.524 58.0973 101.329 59.4027C101.128 60.7451 100.73 62.1421 101.144 63.4801C101.508 64.657 102.419 65.703 103.177 66.6052C103.993 67.5772 104.89 68.4576 105.849 69.2618C107.723 70.8352 109.925 72.1254 111.099 74.4507C111.254 74.7601 111.632 75.0282 111.968 74.9911C112.219 74.9628 112.47 74.9367 112.722 74.9083C113.317 74.8429 113.651 74.4572 113.727 73.8187C113.936 72.0469 112.951 70.5454 111.819 69.3816V69.3773Z" fill="#003459"/>
<path d="M22.8866 55.3171C22.0682 52.922 21.9596 50.1456 22.0179 47.6285C22.1547 41.7946 23.7733 36.05 26.2144 30.8785C28.0945 26.8991 30.8874 23.3556 33.984 20.4332C40.5934 14.1917 49.1271 11.254 57.8479 11.6724C63.6871 11.9514 69.263 13.612 74.6318 16.0397C82.0093 19.374 89.4773 24.3624 93.6999 31.942C94.8561 34.0189 95.7288 36.257 96.2576 38.6172C96.3943 39.223 96.5029 39.8332 96.5994 40.4478C96.6035 40.4739 96.6658 40.9337 96.6376 40.7049C96.6135 40.5131 96.6638 40.9534 96.6718 41.0449C96.696 41.3108 96.7141 41.5766 96.7301 41.8425C97.0177 46.8832 96.1993 51.9958 94.8682 56.8099C94.3313 58.7516 93.6979 60.6585 92.98 62.5283C92.9097 62.7114 92.8393 62.8944 92.7689 63.0775C92.6945 63.2693 92.8755 62.8182 92.7951 63.0099C92.5759 63.5417 92.3406 64.0625 92.0873 64.5768C91.0276 66.7169 89.7166 68.7088 88.2125 70.5067C82.8458 76.9225 75.3094 80.2394 67.3628 80.3505C63.5987 80.4028 59.9974 79.6444 56.3197 78.91C53.8947 78.4262 51.4999 77.7398 49.1493 76.9312C40.7623 74.048 32.5503 69.3168 26.8418 61.9029C25.2392 59.8216 23.89 57.5225 22.7981 55.0839C22.2894 53.9485 20.729 54.9422 21.2357 56.0733C25.6273 65.8713 34.0846 72.4986 43.1572 76.6261C48.3791 79.0016 53.8565 80.5096 59.4223 81.5644C68.8086 83.3427 78.5648 81.8739 86.1515 75.3011C89.5939 72.3177 92.6201 68.347 94.3856 63.9361C96.511 58.6274 97.9627 52.9765 98.4413 47.2036C98.7047 44.0196 98.6685 40.8444 97.9225 37.7389C95.6463 28.2416 88.3513 21.4357 80.65 16.9703C76.2404 14.414 71.4487 12.2979 66.5726 11.0426C56.6514 8.49068 46.0064 9.42123 37.2535 15.3772C32.3875 18.6876 28.1608 23.3338 25.2512 28.7167C21.3021 36.0216 19.1606 45.3577 20.6566 53.7741C20.7793 54.4671 20.918 55.1754 21.1453 55.8401C21.5474 57.0125 23.2968 56.5069 22.8906 55.3192L22.8866 55.3171Z" fill="#003459"/>
<path d="M15.8871 30.9459C19.3898 20.7098 27.6239 12.8578 36.3909 7.96092C45.1579 3.06406 55.4731 0.928361 65.3923 2.4081C71.2858 3.28635 76.5118 5.31527 81.583 8.48177C88.486 12.7902 94.5846 18.7331 98.8455 26.0665C104.411 35.6466 106.509 47.1816 105.206 58.3744C105.085 59.403 104.914 60.3968 104.673 61.4014C104.379 62.624 106.124 63.1449 106.418 61.9223C107.538 57.2564 107.602 52.1111 107.22 47.3363C106.706 40.9161 105.099 34.6289 102.403 28.8821C98.4091 20.3676 92.0792 13.3459 84.6836 8.2268C80.0206 4.99927 75.0158 2.55411 69.6068 1.24872C59.2896 -1.24221 48.4555 0.0610042 38.7757 4.58085C29.2527 9.02878 20.2223 16.7217 15.5312 26.9338C15.0104 28.0692 14.5499 29.2373 14.1437 30.425C13.7376 31.6127 15.4869 32.1205 15.8891 30.9459H15.8871Z" fill="#003459"/>
<path d="M100.87 71.0639C99.3461 73.7444 97.5425 76.207 95.4674 78.4125C93.4043 80.6027 91.4137 82.7885 89.0329 84.5886C84.6132 87.9294 79.5581 90.0869 74.2598 91.0872C73.7711 91.1787 73.5178 91.8195 73.6284 92.2945C74.4146 95.6899 76.4053 99.3402 79.4335 100.818C80.282 101.232 81.4081 100.024 80.5293 99.277L80.5032 99.2552L79.8638 100.929C79.5219 100.911 80.0045 101.012 80.0246 101.014L80.1553 101.084C80.3544 101.247 80.3544 101.164 80.1533 100.837C80.0246 100.844 79.6044 101.251 79.4335 101.326C79.1902 101.432 78.9328 101.511 78.6794 101.589C77.3282 102.003 75.9126 102.121 74.5192 101.942C72.5687 101.692 70.7027 100.877 69.0398 99.763C67.3769 98.6493 66.3997 97.3113 65.6315 95.3913C64.8192 93.3602 63.6047 91.595 61.982 90.2351C59.1448 87.8597 55.069 86.6829 51.7834 88.7009C50.036 89.7753 48.7632 91.6451 48.2746 93.7503C48.1419 94.3235 48.1419 94.8617 48.0916 95.4349C47.9589 96.9822 46.3985 96.8318 45.2886 96.9626C43.9796 97.1173 42.6645 97.2023 41.3475 97.211C40.6719 97.2154 39.9962 97.2023 39.3206 97.1674C38.7737 97.1413 38.08 97.2088 37.5572 97.028C36.4874 96.6597 38.0317 95.9252 38.3032 95.5025C38.7033 94.877 38.9526 94.0053 39.1477 93.2818C40.2938 89.0321 38.8159 84.5842 35.655 81.871C34.2997 80.7073 32.679 79.9162 31.2132 78.9311C28.6495 77.2095 26.1963 75.2874 23.9262 73.1342C20.7532 70.1246 17.8838 66.6509 15.9152 62.5843C13.5848 57.7703 13.1424 52.3373 13.2087 46.9784C13.2248 45.7166 11.4151 45.7144 11.399 46.9784C11.3367 52.0954 11.7308 57.3344 13.6732 62.0569C15.3361 66.0995 17.9401 69.6583 20.8537 72.7289C23.3812 75.392 26.1923 77.7456 29.1441 79.829C30.7447 80.9579 32.5001 81.8514 34.0685 83.0217C35.6369 84.1919 36.7991 85.7915 37.3561 87.6744C37.7301 88.9406 37.8367 90.2896 37.6456 91.6037C37.525 92.4253 37.3078 93.8048 36.7669 94.4586C37.0002 94.1774 36.3668 94.6395 36.3608 94.6438C36.1919 94.7898 36.0531 94.9337 35.9164 95.1124C35.6489 95.4654 35.464 95.8708 35.3835 96.3175C35.1804 97.4355 35.7877 98.4053 36.7408 98.7975C37.5873 99.1462 38.5987 99.0961 39.4935 99.1353C41.082 99.2072 42.6746 99.1702 44.2611 99.0285C46.4609 98.8324 49.3765 98.9501 49.851 95.9688C49.9676 95.2409 49.8872 94.7724 50.0682 94.0685C50.3638 92.9309 50.9388 91.9023 51.7552 91.1155C55.262 87.7246 60.7011 90.5511 62.9914 94.1927C64.2924 96.2608 64.785 98.6842 66.651 100.34C68.1611 101.681 70.017 102.688 71.875 103.311C74.5634 104.215 77.853 104.331 80.4469 102.988C81.3477 102.522 82.3571 101.432 81.8786 100.269C81.5649 99.5058 80.6098 99.0024 79.8618 98.9632C79.1138 98.9239 78.597 100.105 79.2223 100.637L79.2485 100.659L80.3444 99.1179C77.7123 97.8343 76.0534 94.7157 75.3717 91.7672L74.7403 92.9745C80.3021 91.9241 85.6649 89.5966 90.2675 86.0334C92.6824 84.1636 94.7415 81.9429 96.8447 79.6939C98.948 77.4449 100.856 74.8275 102.435 72.0511C103.048 70.9746 101.484 69.9873 100.872 71.0617L100.87 71.0639Z" fill="#003459"/>
<path d="M11.5177 47.0679C11.5177 47.0679 11.6524 43.9101 10.7455 42.2451L11.4553 42.6374L12.8086 46.6124L11.5177 47.0679Z" fill="#003459" stroke="#003459" stroke-miterlimit="10"/>
<path d="M13.8884 33.8596C13.8884 33.8596 15.1974 33.5197 17.0936 27.4264L16.1465 27.2324L13.627 33.3126L13.8864 33.8575L13.8884 33.8596Z" fill="#003459" stroke="#003459" stroke-miterlimit="10"/>
<path d="M105.027 61.5149C105.027 61.5149 104.771 61.6456 104.819 61.9289C104.795 61.9289 105.035 63.012 108.401 66.3355L107.234 63.2496L105.027 61.5127V61.5149Z" fill="#003459" stroke="#003459" stroke-miterlimit="10"/>
<path d="M56.1228 37.5661C56.1228 37.5661 55.2059 46.839 51.6549 51.1496C51.2065 51.6945 50.0885 53.0522 48.6468 52.9977C48.6468 52.9977 48.1461 52.9781 47.6434 52.7318C45.9463 51.895 42.3812 45.3658 42.9301 35.0098C43.1513 30.8256 43.4851 25.7609 46.7406 23.2177C47.2151 22.8472 48.7915 21.6159 50.7581 21.8927C52.9639 22.2043 54.295 24.2224 54.8138 25.0113C56.9874 28.3085 56.6597 32.1528 56.1228 37.5661Z" fill="#003459" stroke="#1D1D1B" stroke-miterlimit="10" stroke-linecap="round"/>
<path d="M78.4221 41.136C78.3859 43.1998 78.229 52.4008 72.9648 55.8026C72.2591 56.2581 71.6056 56.6678 70.759 56.585C67.023 56.2189 64.1255 46.7521 64.6423 38.8151C64.6945 38.0022 65.5169 26.9358 70.6464 25.4452C70.9259 25.3645 71.9112 25.0921 73.0593 25.4648C77.5796 26.9336 78.5065 36.4222 78.4261 41.1382L78.4221 41.136Z" fill="#003459" stroke="#1D1D1B" stroke-miterlimit="10" stroke-linecap="round"/>
<path d="M42.8576 36.5109C42.8576 36.5109 42.8214 35.7743 42.9903 33.6865L45.6948 35.6152L42.8576 36.5109Z" fill="white" stroke="white" stroke-miterlimit="10" stroke-linecap="round"/>
<path d="M64.5638 40.2885C64.5437 40.136 64.5196 39.9224 64.5156 39.6652C64.5116 39.3558 64.5337 39.1204 64.5618 38.8807C64.602 38.5277 64.6644 38.0504 64.7609 37.4707C65.6476 38.1376 66.5324 38.8044 67.4191 39.4713L64.5618 40.2885H64.5638Z" fill="white" stroke="white" stroke-miterlimit="10" stroke-linecap="round"/>
<path d="M72.8502 28.0498C73.5982 28.6491 74.0889 29.5622 74.3784 30.5189C74.668 31.4756 74.7705 32.4868 74.8731 33.4871" fill="#003459"/>
<path d="M72.1404 28.8209C73.4635 29.9847 73.6907 31.7521 73.8697 33.489C74.0124 34.8663 76.0232 34.8837 75.8804 33.489C75.6452 31.2116 75.3054 28.8122 73.562 27.2802C72.5647 26.4041 71.135 27.9361 72.1404 28.8209Z" fill="white"/>
<path d="M51.6326 24.9189C53.0904 26.5382 53.8163 28.8983 53.5468 31.143L51.6326 24.9189Z" fill="#003459"/>
<path d="M50.9207 25.6886C52.2076 27.188 52.7385 29.1188 52.5414 31.1412C52.4047 32.5337 54.4175 32.5228 54.5522 31.1412C54.8055 28.5522 53.9691 26.0416 52.3424 24.1478C51.4596 23.1192 50.04 24.6622 50.9207 25.6886Z" fill="white"/>
<path d="M40.5231 58.2978C42.0151 58.1823 43.2839 57.2714 43.9896 55.8309C44.7939 54.1877 44.7095 52.3397 44.4863 50.5548C44.3134 49.171 42.375 49.7616 42.5479 51.1345C42.7631 52.8561 42.7007 55.9507 40.5251 56.1185C39.2422 56.2188 39.2321 58.3981 40.5251 58.2978H40.5231Z" fill="#003459"/>
<path d="M76.1218 54.8506C73.6445 57.1999 74.0808 61.3275 76.8376 63.1646C77.9435 63.9012 78.9549 62.0161 77.853 61.2839C76.1398 60.1441 76.0735 57.7883 77.5434 56.3914C78.5186 55.4652 77.0909 53.9288 76.1218 54.8506Z" fill="#003459"/>
<path d="M43.2999 55.4713C45.0976 57.7138 47.5306 59.0649 50.0441 60.1393C52.9939 61.3989 56.0482 62.5256 59.1348 63.3145C64.7529 64.7507 71.0727 64.7398 75.9287 60.9239C76.9663 60.1088 75.9649 58.2172 74.9133 59.0431C70.3649 62.6172 64.5457 62.5169 59.3037 61.1178C56.5449 60.3812 53.8303 59.3722 51.1741 58.2869C48.7672 57.3041 46.4347 56.0684 44.7195 53.9305C43.869 52.8692 42.4514 54.4165 43.2979 55.4713H43.2999Z" fill="#003459"/>
<path d="M53.4121 65.6666C54.5864 66.5274 55.5857 67.4362 56.947 67.9657C58.0831 68.4103 59.6294 68.8047 60.8258 68.4539C62.0222 68.103 62.4887 66.4882 61.4813 65.5968C60.4961 64.7251 58.807 65.0302 57.7051 65.4356C56.4866 65.8845 57.0094 67.9897 58.24 67.5364C58.622 67.3948 58.992 67.2836 59.3962 67.2531C59.559 67.24 59.7199 67.2378 59.8828 67.2487C60.2769 67.3533 60.3392 67.3337 60.0738 67.1899L60.1743 66.3509C60.0999 66.5318 58.8854 66.2746 58.7527 66.2484C58.1937 66.1351 57.6287 65.9521 57.1079 65.7036C56.1025 65.2242 55.3223 64.4418 54.4255 63.7837C53.3518 62.9948 52.3444 64.882 53.4101 65.6644L53.4121 65.6666Z" fill="#003459"/>
<path d="M58.1273 53.563C58.2038 52.2576 59.8023 51.4948 60.8439 52.1115C61.8855 52.7283 61.5135 54.2037 60.6428 54.7681C59.5349 55.4894 60.5443 57.3723 61.6583 56.6488C63.8299 55.2366 64.2381 51.7062 61.8593 50.2286C59.4806 48.7511 56.2895 50.6296 56.1166 53.5608C56.0341 54.9621 58.0449 54.9555 58.1273 53.5608V53.563Z" fill="#003459"/>
<path d="M80.1654 54.5998C80.6581 54.4145 81.0562 54.044 81.1728 53.4731C81.2894 52.9021 81.0522 52.1917 80.5334 51.9083C79.6446 51.4224 78.402 51.9018 78.2592 53.0438C78.1386 54.0157 78.8966 55.1141 79.8477 55.0618C80.8511 55.0051 81.4503 53.8152 81.1909 52.8258C81.0481 52.2788 80.4731 51.8822 79.9543 52.0653C79.4355 52.2483 79.0977 52.8171 79.2525 53.4055C79.2907 53.5515 79.2485 53.3358 79.2465 53.2987C79.2545 53.5079 79.2887 53.1113 79.2586 53.2246C79.2264 53.351 79.3571 53.0241 79.2948 53.1375C79.2324 53.2508 79.4315 52.9653 79.347 53.0634C79.2907 53.1222 79.3229 53.0961 79.4395 52.9871L79.7854 52.889C79.9302 52.889 80.1212 52.9675 80.2277 53.0764C80.1131 52.9566 80.272 53.1266 80.2599 53.1418C80.2519 53.1527 80.1534 52.8847 80.2177 53.0961C80.276 53.2857 80.2298 52.9653 80.2338 53.1789C80.2378 53.351 80.2277 53.4055 80.1433 53.5668C80.1071 53.6932 80.0307 53.776 79.9141 53.8152C79.7452 53.9046 79.715 53.9307 79.8256 53.8915C79.9462 53.8327 79.7874 53.9176 79.7351 53.9024C79.7552 53.9089 79.8356 53.9068 79.8537 53.9002C79.7251 53.9503 79.4878 53.7651 79.4053 53.6888C79.2123 53.5145 79.156 53.1244 79.2505 52.8803C79.3149 52.7147 79.4717 52.5578 79.6285 52.4989C79.1339 52.6863 78.7518 53.253 78.9268 53.8392C79.0856 54.3709 79.6326 54.8003 80.1634 54.5998H80.1654Z" fill="#003459"/>
<path d="M84.0965 53.9633C83.5737 53.85 83.0227 53.8718 82.6246 54.3186C82.2566 54.7304 82.1842 55.3668 82.335 55.9007C82.5301 56.5959 83.1997 56.9402 83.8331 56.792C84.2996 56.6831 84.6776 56.3431 84.9189 55.9051C85.1602 55.467 85.313 54.9026 85.1984 54.3926C85.0616 53.7803 84.559 53.2943 83.9678 53.2769C83.451 53.2616 82.9584 53.6081 82.701 54.0854C82.4738 54.5103 82.4215 54.992 82.4376 55.4736C82.4577 56.0424 82.886 56.5894 83.443 56.5632C83.9698 56.5371 84.4705 56.0838 84.4484 55.4736C84.4443 55.3624 84.4504 55.2491 84.4463 55.138C84.4504 55.0573 84.4484 55.0748 84.4383 55.1903C84.4665 55.0922 84.4665 55.0857 84.4383 55.1641C84.4222 55.2208 84.3921 55.2687 84.3458 55.3058C84.0482 55.5542 83.7044 55.4823 83.3143 55.0857L83.2278 54.7697C83.2479 54.6302 83.2419 54.6215 83.2117 54.7457C83.258 54.6367 83.266 54.6171 83.2359 54.6869C83.2198 54.7261 83.2017 54.7631 83.1816 54.8002C83.0971 54.9789 83.2178 54.7544 83.2781 54.7152C83.6561 54.4711 84.2493 54.9527 84.2734 55.4104C84.2875 55.0094 84.0643 55.2273 83.6079 56.0663C83.4651 56.0402 83.449 56.038 83.5616 56.062C84.0764 56.1731 84.6716 55.9029 84.7982 55.3014C84.9128 54.7588 84.6474 54.081 84.0965 53.9611V53.9633Z" fill="#003459"/>
<path d="M80.9476 58.7605C81.0763 58.5229 81.219 58.2592 81.207 57.9716C81.1929 57.6534 81.0883 57.3461 80.8732 57.1195C80.4751 56.6989 79.8879 56.6575 79.4053 56.9168C78.6875 57.3003 78.414 58.499 78.8222 59.2312C79.0916 59.715 79.5662 59.9939 80.089 59.9177C80.4972 59.8588 80.8229 59.5951 81.0682 59.2486C81.3357 58.8738 81.4744 58.3856 81.3558 57.9149C81.2955 57.6752 81.1969 57.4638 81.0401 57.2807C80.8692 57.0802 80.6922 56.9931 80.463 56.8928C80.2338 56.7926 79.8879 56.8754 79.6888 57.0018C79.4898 57.1282 79.2807 57.3941 79.2264 57.6534C79.1681 57.9323 79.1801 58.2462 79.3269 58.4924C79.4737 58.7387 79.6708 58.8803 79.9281 58.9937C79.7351 58.9326 79.5863 58.8171 79.4838 58.6406C79.4214 58.451 79.3993 58.4096 79.4194 58.5164L79.3832 58.2265C79.3872 58.2592 79.3852 58.2897 79.3832 58.3224L79.4194 58.0326C79.3913 58.1742 79.4576 57.9694 79.4697 57.9389C79.4053 58.1001 79.5943 57.8081 79.5139 57.8844C79.4838 57.9127 79.3832 58.0064 79.5179 57.8953C79.5883 57.8408 79.6024 57.8277 79.5602 57.8582C79.4918 57.9018 79.534 57.8822 79.6868 57.7972L79.9543 57.758H79.906C79.9945 57.7733 80.085 57.7863 80.1734 57.7994C79.9442 57.7471 80.0749 57.8648 80.5696 58.1546C80.6259 58.3268 80.642 58.3551 80.6178 58.2374L80.654 58.5273C80.65 58.4597 80.652 58.3965 80.656 58.329L80.6198 58.6188C80.6239 58.5818 80.6279 58.5469 80.6359 58.5099C80.646 58.4641 80.7003 58.305 80.6359 58.4859C80.5957 58.5992 80.5334 58.6842 80.4449 58.7605C80.4047 58.8041 80.3564 58.8367 80.3021 58.8542C80.2076 58.8912 80.1976 58.8999 80.268 58.8847L80.0005 58.9239H80.0448C79.9563 58.9108 79.8658 58.8978 79.7773 58.8869C79.9442 58.9261 79.8457 58.8629 79.4817 58.6951L79.2223 58.2135L79.2324 58.2571V57.6774C79.349 57.3701 79.2465 57.5946 79.2123 57.6556C78.9449 58.1459 79.0957 58.8716 79.5722 59.1462C80.0488 59.4208 80.6621 59.2791 80.9476 58.7561V58.7605Z" fill="#003459"/>
<path d="M39.5539 48.0446C39.5499 47.9683 39.5137 47.7656 39.5539 47.7003L39.5378 47.8179C39.5458 47.7613 39.5559 47.7046 39.57 47.6501C39.582 47.6 39.6082 47.4409 39.6403 47.4039C39.5901 47.5303 39.5881 47.539 39.6383 47.43C39.5217 47.5608 39.5036 47.5913 39.582 47.5194L39.1376 47.8005L39.1899 47.7852H38.6551L38.7073 47.794L38.263 47.5128L38.3012 47.5477L38.0418 47.0661C38.0699 46.7043 38.0619 46.5975 38.0176 46.7457C37.9935 46.8155 38.0036 46.7937 38.0458 46.6782C38.0136 46.7675 37.9754 46.8569 37.9392 46.9462C37.8688 47.1249 37.7985 47.3036 37.7281 47.4823C37.521 48.0054 37.5672 48.6744 38.088 48.973C38.5203 49.2192 39.2422 49.1408 39.4634 48.5829C39.6222 48.1775 39.8092 47.7744 39.944 47.3581C40.1913 46.5932 39.8233 45.7716 39.0532 45.6604C37.9111 45.4948 37.4828 47.0813 37.5431 48.0446C37.5793 48.6112 37.9794 49.1626 38.5485 49.1342C39.0632 49.1103 39.5921 48.6526 39.5539 48.0446Z" fill="#003459"/>
<path d="M37.7763 52.0366C36.9942 52.0213 36.4814 52.7558 36.3306 53.5163C36.2462 53.9435 36.226 54.4164 36.4653 54.7956C36.7529 55.2532 37.2174 55.4602 37.718 55.3883C38.3756 55.2924 38.9386 54.7171 39.0833 54.0154C39.2804 53.0565 38.7496 52.0867 37.8005 52.0344C37.2737 52.0039 36.771 52.5574 36.7951 53.1241C36.8212 53.7408 37.2375 54.181 37.8005 54.2137C37.4385 54.1766 37.2174 54.0088 37.1349 53.7059C37.1208 53.5185 37.1168 53.4836 37.1208 53.6013L37.145 53.4357C37.1369 53.4771 37.1269 53.5163 37.1128 53.5556C37.1771 53.403 37.1892 53.3638 37.149 53.4357C37.1088 53.5054 37.1309 53.4727 37.2194 53.3398C37.143 53.4183 37.1651 53.4008 37.2897 53.2875C37.2174 53.3289 37.2234 53.3289 37.3058 53.2875C37.3742 53.2461 37.4486 53.2265 37.529 53.233C38.0357 54.1875 38.2851 54.4403 38.279 53.9914L38.263 54.1352C38.273 54.0829 38.2831 54.0328 38.2971 53.9827C38.3092 53.9326 38.3253 53.8824 38.3414 53.8323L38.2911 53.9609C38.3454 53.8628 38.3273 53.8803 38.2368 54.0154C38.1081 54.1374 37.9553 54.205 37.7763 54.2159C38.3032 54.2268 38.8059 53.7081 38.7817 53.1262C38.7576 52.5444 38.3394 52.0475 37.7763 52.0366Z" fill="#003459"/>
<path d="M113.375 69.8089C112.06 68.0502 110.391 66.6794 108.881 65.1321C108.051 64.28 107.341 63.3691 107.061 62.1378C106.798 60.9828 106.868 59.7667 106.925 58.5877C106.965 57.7574 105.775 57.7596 105.734 58.5877C105.66 60.1699 105.606 61.8153 106.161 63.3124C106.692 64.7399 107.753 65.7816 108.789 66.784C109.997 67.9543 111.264 69.081 112.31 70.43C112.867 71.1492 113.407 71.9511 113.619 72.8773C113.707 73.2631 113.779 73.7926 113.619 74.1653C113.094 75.3901 112.547 74.4704 112.205 73.9975C111.759 73.3807 111.011 74.1675 111.27 74.7799C111.638 75.6428 111.841 76.5669 111.841 77.5192C111.841 77.9333 111.809 78.343 111.735 78.7483C111.692 78.9793 111.638 79.206 111.574 79.4305C111.554 79.7879 111.497 79.8663 111.403 79.6615C111.326 79.644 111.246 79.5154 111.165 79.3324C111.087 78.051 110.528 76.8872 110.106 75.6864C109.991 75.2963 109.879 74.9041 109.764 74.514C109.533 73.7229 108.443 74.0454 108.618 74.8561C108.68 75.1438 108.765 75.4315 108.863 75.7169C109.207 76.9461 109.545 78.1861 109.981 79.376C109.989 79.5176 109.993 79.6593 109.985 79.8031C109.973 80.1322 109.901 80.446 109.762 80.7402C109.529 80.8622 109.384 80.7707 109.332 80.4678C109.139 80.2302 108.97 79.7726 108.847 79.4893C108.549 78.7985 108.451 77.9006 108.017 77.2882C107.433 76.4644 106.261 76.5102 105.937 77.5606C105.74 78.2057 105.931 79.012 105.929 79.6658C105.929 80.0385 106.028 80.7598 105.734 81.0061C105.405 81.2828 105.276 80.252 105.191 79.9251C104.765 78.2558 104.735 76.5037 104.367 74.8213C104.051 73.3764 103.466 72.0448 102.61 70.8855C100.75 68.3684 97.9587 67.0761 95.0451 66.8037C94.283 66.7317 94.2871 68.0241 95.0451 68.0938C98.7087 68.4359 102.147 70.8092 103.138 74.8038C103.428 75.9719 103.909 84.4602 106.424 82.4313C106.891 82.0565 107.005 81.4506 107.061 80.8622C107.114 80.3327 107.126 79.7944 107.114 79.2626C107.11 79.0752 106.931 78.0597 107.182 78.3125C107.389 78.5217 107.504 79.3433 107.62 79.644C107.773 80.0385 107.94 80.422 108.133 80.7947C108.405 81.3221 108.714 81.978 109.281 82.1763C110.112 82.4662 110.653 81.7972 110.936 81.0083C111.222 81.2458 111.562 81.346 111.958 81.1543C112.772 80.7576 112.931 79.0251 112.999 78.2188C113.064 77.4669 113.015 76.7303 112.877 76.0111C113.542 76.155 114.206 75.8608 114.622 74.8954C115.388 73.1214 114.393 71.1688 113.369 69.8024L113.375 69.8089Z" fill="#003459" stroke="#003459" stroke-miterlimit="10"/>
<path d="M14.19 30.6122C14.1196 31.0393 13.5204 33.4888 13.0439 32.3382C12.7402 31.6016 12.6578 30.7037 12.6015 29.9148C12.5372 29.0213 12.5553 28.1234 12.5593 27.2299C12.5613 26.5282 12.6437 25.7458 12.4105 25.0812C12.0747 24.1244 11.1236 23.7888 10.2569 24.0896C9.56322 24.3315 9.14499 24.9003 8.86549 25.5671C8.43116 24.9046 7.91439 24.3053 7.29709 23.8302C6.54908 23.2549 5.23202 22.5772 4.30506 23.0108C3.37809 23.4445 3.39418 24.9635 3.6033 25.8526C3.69781 26.2514 3.84459 26.6197 4.02757 26.9662C3.67971 26.8703 3.32783 26.7919 2.97192 26.7309C2.18571 26.5958 1.24668 26.5544 0.629371 27.2038C-0.75404 28.6595 0.850556 30.1218 2.30233 31.133C1.46786 31.4534 0.846534 32.1159 0.932997 33.3254C1.0838 35.4132 3.14484 35.9667 4.69515 36.2914C6.87482 36.7469 8.27231 38.207 9.46671 40.164C10.7797 42.3171 11.8555 44.5117 11.9098 47.1486C11.9259 47.9898 13.1323 47.992 13.1163 47.1486C13.0439 43.5637 11.2563 39.9831 9.01026 37.4029C7.89831 36.1258 6.59935 35.3674 5.01486 35.0296C4.12007 34.84 2.86937 34.7376 2.32445 33.8114C1.48797 32.3883 3.19914 32.1529 4.07784 32.1922C4.70319 32.2205 4.86204 31.3074 4.38147 30.974C3.78829 30.5599 3.19511 30.148 2.60194 29.7339C2.36064 29.564 2.053 29.4158 1.85996 29.1826C1.40352 28.6378 1.46585 27.9622 2.17766 27.9535C3.42635 27.9382 4.84596 28.4917 5.85335 29.2545C6.42039 29.6838 7.06786 28.738 6.58527 28.228C6.02829 27.6418 5.43712 27.0447 5.06111 26.2994C4.86405 25.9093 4.71325 25.4604 4.69515 25.0092C4.66499 24.2988 4.80775 24.1462 5.41903 24.2988C6.87482 24.6671 7.8601 26.1032 8.51561 27.4631C8.75288 27.9556 9.50089 27.8445 9.61752 27.3062C9.74017 26.7374 10.1443 24.8087 11.0733 25.3078C11.6001 25.5911 11.3528 27.0534 11.3508 27.6178C11.3448 29.1869 11.3387 30.8149 11.7711 32.3273C12.0184 33.1925 12.5593 34.3126 13.5707 34.086C14.7048 33.8332 15.1833 31.9851 15.3542 30.9609C15.491 30.1371 14.3288 29.7862 14.19 30.6122Z" fill="#003459" stroke="#003459" stroke-miterlimit="10"/>
</g>
<defs>
<clipPath id="clip0_163_4674">
<rect width="115" height="104" fill="white"/>
</clipPath>
</defs>
</svg>
