<svg width="23" height="23" viewBox="0 0 23 23" fill="none" xmlns="http://www.w3.org/2000/svg">
<circle cx="11.5" cy="11.5" r="11.5" fill="#F9C846"/>
<path d="M9.90242 17C9.90242 17 8.12802 15.5714 6.8606 12.9524C5.59317 10.3333 6.10014 7.47619 6.10014 7.47619C6.10014 7.47619 7.55515 9.14286 8.63499 12C9.71484 14.8571 9.90242 17 9.90242 17ZM9.90242 17C10.4094 13.1905 11.8796 10.4762 15.7326 8.19048L9.90242 17ZM11.4233 12.2381V11.1157C11.4233 10.0242 11.885 8.97731 12.7067 8.20546C13.5284 7.43362 14.643 7 15.8051 7H17V8.12238C17 9.21394 16.5384 10.2608 15.7166 11.0326C14.8949 11.8045 13.7804 12.2381 12.6183 12.2381" fill="white"/>
<path d="M9.90242 17C9.90242 17 8.12802 15.5714 6.8606 12.9524C5.59317 10.3333 6.10014 7.47619 6.10014 7.47619C6.10014 7.47619 7.55515 9.14286 8.63499 12C9.71484 14.8571 9.90242 17 9.90242 17ZM9.90242 17C10.4094 13.1905 11.8796 10.4762 15.7326 8.19048M11.4233 12.2381V11.1157C11.4233 10.0242 11.885 8.97731 12.7067 8.20546C13.5284 7.43362 14.643 7 15.8051 7H17V8.12238C17 9.21394 16.5384 10.2608 15.7166 11.0326C14.8949 11.8045 13.7804 12.2381 12.6183 12.2381" stroke="#FFFCF7"/>
</svg>
