<svg width="270" height="263" viewBox="0 0 270 263" fill="none" xmlns="http://www.w3.org/2000/svg">
<path d="M49.9504 49.6494C62.501 15.2656 87.165 8.99099 100.93 9.00001C140.697 9.00902 156.053 22.4146 181.6 52.5703C205.556 80.8509 222.651 76.5868 236.408 87.441C258.835 105.147 271.577 166.27 228.131 203.647C166.541 256.647 126.975 259.865 73.7492 242.754C37.8544 231.215 7.77158 199.68 7.04617 164.764C5.64778 97.3036 36.3773 86.837 49.9504 49.6494Z" fill="#F9C846"/>
<path d="M37.715 51.022C36.3258 53.3127 38.0484 55.8875 39.6644 57.597C42.2739 60.3506 45.1278 62.9069 47.948 65.4528C50.7591 66.4924 53.7199 67.0976 56.723 67.2464C60.584 67.0742 64.796 65.9314 65.5385 65.0714C66.4961 64.0626 67.7217 63.3316 69.0795 62.9595C70.4687 62.6005 71.9469 62.7057 73.143 61.7353C75.2099 60.0573 73.22 57.1801 70.8386 57.7837C69.7329 58.0625 70.2149 59.6063 71.3016 59.4222C72.9216 60.252 70.0259 60.774 69.5655 60.8306C68.5394 60.9454 67.5553 61.2932 66.6922 61.8459C65.8291 62.3986 65.1112 63.1408 64.5962 64.0129C62.1184 64.7317 59.5846 65.2524 57.02 65.5698C54.429 65.4845 51.8573 65.1036 49.3574 64.435C49.3142 64.3679 44.9024 60.5899 42.8652 58.6411C40.9401 56.8001 38.4399 54.8762 38.7734 52.1397C51.1124 64.5901 69.98 61.4762 76.7084 51.4454C77.3213 50.5249 75.9618 49.5702 75.1856 50.3013C70.8872 54.3608 65.8517 57.2774 59.7726 57.7719C45.5153 58.933 30.9002 46.4708 32.9495 27.9293C38.9556 43.6198 55.5579 53.3574 70.0205 52.2988C70.3051 52.2891 70.5747 52.1722 70.7725 51.9726C70.9703 51.773 71.0808 51.5065 71.0808 51.2291C71.0808 50.9517 70.9703 50.6851 70.7725 50.4856C70.5747 50.286 70.3051 50.1691 70.0205 50.1593C62.8233 50.0056 55.8048 47.9464 49.7178 44.2024C44.0586 40.5371 39.4975 35.4766 36.4986 29.5362C35.3201 27.3401 33.7136 24.1026 34.425 21.5594C35.1365 19.0162 39.0677 18.7887 41.2722 19.0346C47.9817 19.7841 54.7992 23.1703 60.3896 26.7326C66.6812 30.72 71.9495 36.0605 75.789 42.343C75.8718 42.4721 76.003 42.5647 76.1547 42.6012C76.3065 42.6376 76.4668 42.615 76.6018 42.5382C76.7367 42.4613 76.8356 42.3363 76.8774 42.1896C76.9192 42.0429 76.9007 41.8862 76.8258 41.7525C73.2982 35.3977 68.3642 29.8863 62.3808 25.6175C56.3747 21.3911 48.7013 17.5526 41.2668 16.7018C38.5668 16.3914 35.231 16.8083 33.2235 18.7887C32.3023 19.9786 31.7105 21.3792 31.505 22.856C30.7328 28.0713 31.0122 36.916 32.45 41.3146C33.6748 44.798 35.4512 48.0733 37.715 51.022Z" fill="#003459"/>
<path d="M65.8908 67.3456C63.8345 68.6222 61.4443 69.2951 59.0058 69.2839C56.688 69.1161 54.4202 68.5428 52.3112 67.5915C51.9966 67.4758 51.5106 67.6585 51.6591 68.3226C53.6282 76.6797 57.2943 84.5685 62.4414 91.5243C67.5884 98.4802 74.1124 104.362 81.6291 108.825C81.9256 108.993 82.2785 109.039 82.6101 108.954C82.9418 108.869 83.225 108.658 83.3976 108.37C83.5702 108.081 83.6179 107.737 83.5303 107.414C83.4427 107.091 83.227 106.815 82.9305 106.647C68.2965 98.1166 58.3605 84.5615 52.7 69.0971C56.3895 72.094 62.7507 71.7416 66.6374 69.3444C70.7837 75.7849 76.7898 80.8896 83.9025 84.0184C90.4044 86.6579 97.6952 86.7815 104.288 84.3643C107.419 83.416 110.287 81.7859 112.675 79.5974C113.276 80.3496 119.81 86.3368 120.621 87.0863C121.542 87.9371 122.949 86.5669 122.013 85.7306C120.32 84.2052 118.638 82.6732 116.917 81.1728C115.848 80.2405 113.488 77.3764 113.052 77.0766C111.911 76.2876 110.537 77.9103 109.758 78.5139C106.884 80.5849 103.602 82.0572 100.118 82.8388C96.6343 83.6205 93.0224 83.6948 89.5077 83.0572C85.0925 82.0408 80.9604 80.0921 77.4036 77.3488C74.4336 75.2158 69.3603 68.9841 67.041 67.2391C66.8674 67.1213 66.6565 67.0674 66.4459 67.0869C66.2353 67.1064 66.0386 67.1981 65.8908 67.3456Z" fill="#003459"/>
<path d="M130.792 32.411C133.946 32.34 142.15 30.9146 139.829 26.1161C139.729 25.9563 139.583 25.8281 139.41 25.7472C139.236 25.6663 139.043 25.6361 138.852 25.6604C138.661 25.6846 138.482 25.7621 138.336 25.8837C138.19 26.0052 138.083 26.1654 138.028 26.3449C137.172 29.5009 132.3 29.9217 129.48 29.8652C127.956 29.8969 126.451 29.5318 125.121 28.8075C123.79 28.0833 122.682 27.0261 121.912 25.7453C121.642 25.2614 120.952 25.6072 121.042 26.1017C121.862 30.5148 126.58 32.5057 130.792 32.411Z" fill="#003459"/>
<path d="M133.711 58.1151C133.743 57.5259 133.605 56.946 133.584 56.353C133.579 56.2208 133.532 56.0935 133.448 55.9898C133.363 55.886 133.247 55.8113 133.116 55.7766C132.985 55.7419 132.846 55.749 132.72 55.7968C132.593 55.8447 132.486 55.9309 132.413 56.0426C132.113 56.4102 131.953 56.8674 131.959 57.3369C131.965 57.8065 132.137 58.2597 132.446 58.62C132.885 59.1434 133.678 58.6845 133.711 58.1151Z" fill="#003459"/>
<path d="M134.257 55.1563C134.707 55.6929 134.918 56.4319 135.535 56.8054C135.621 56.8528 135.717 56.8807 135.816 56.8869C135.915 56.8931 136.014 56.8775 136.106 56.8413C136.198 56.805 136.28 56.749 136.347 56.6774C136.413 56.6058 136.462 56.5206 136.49 56.428C136.974 55.0788 134.638 52.8433 133.072 53.1615C133.015 53.1769 132.963 53.2049 132.919 53.2432C132.875 53.2814 132.841 53.329 132.819 53.3823C132.797 53.4355 132.788 53.493 132.792 53.5502C132.796 53.6075 132.814 53.663 132.844 53.7125C133.229 54.2635 133.827 54.6409 134.257 55.1563Z" fill="#003459"/>
<path d="M122.024 55.4662C121.974 55.2951 121.862 55.1474 121.709 55.0507C121.556 54.9539 121.372 54.9147 121.191 54.9402C121.009 54.9639 120.843 55.0505 120.722 55.184C120.6 55.3176 120.533 55.4892 120.531 55.6674C120.453 56.1988 120.51 56.7408 120.698 57.2454C120.778 57.3755 120.896 57.4799 121.036 57.546C121.176 57.612 121.333 57.6369 121.488 57.6175C121.642 57.5981 121.788 57.5353 121.906 57.4368C122.024 57.3383 122.111 57.2082 122.155 57.0626C122.268 56.7497 122.206 56.509 122.024 55.4662Z" fill="#003459"/>
<path d="M120.64 52.283C119.882 52.7443 119.282 53.4155 118.917 54.2108C118.84 54.3396 118.819 54.4932 118.857 54.6375C118.896 54.7819 118.992 54.9054 119.125 54.9807C119.257 55.056 119.415 55.0771 119.563 55.0392C119.711 55.0014 119.838 54.9077 119.915 54.7789C120.191 54.4317 120.535 54.142 120.928 53.9272C121.321 53.7123 121.754 53.5767 122.202 53.5283C124.235 53.1154 123.154 50.8312 120.64 52.283Z" fill="#003459"/>
<path d="M139.003 76.4124C138.411 76.2402 137.996 77.137 138.575 77.4013C145.068 80.1508 151.385 83.2815 157.49 86.7759C159.367 88.0774 161.348 89.2287 163.416 90.2186C164.361 90.5789 165.01 89.2547 164.369 88.6222C162.606 87.1675 160.658 85.9394 158.574 84.9678C152.379 81.45 145.819 78.5822 139.003 76.4124Z" fill="#003459"/>
<path d="M92.5438 97.46C92.5589 97.4069 92.5631 97.3514 92.5561 97.2968C92.5492 97.2421 92.5313 97.1893 92.5034 97.1413C92.4755 97.0934 92.4382 97.0513 92.3936 97.0174C92.349 96.9835 92.298 96.9585 92.2435 96.9439C92.1889 96.9292 92.132 96.9251 92.0759 96.9319C92.0197 96.9386 91.9655 96.9561 91.9163 96.9833C91.8671 97.0104 91.8239 97.0468 91.7891 97.0902C91.7543 97.1337 91.7287 97.1834 91.7136 97.2365C89.1317 105.159 87.4734 113.34 86.7699 121.624C85.1649 137.618 85.7094 153.746 88.3899 169.602C88.2994 169.852 92.4061 188.912 95.3964 197.902C97.6914 204.821 102.708 217.627 106.539 223.808C107.152 224.797 108.551 223.931 108.094 222.922C105.224 216.583 102.631 212.784 98.1868 200.144C95.4112 192.224 91.1155 173.556 90.8968 172.381C94.7235 175.069 98.9868 177.111 103.509 178.422C114.481 181.662 126.149 181.951 137.276 179.26C142.654 178.073 147.832 176.148 152.654 173.542C158.005 187.363 158.393 190.722 160.773 196.176C161.356 197.51 163.498 196.547 163.133 195.205C162.012 191.129 160.276 187.105 158.772 183.147C157.315 179.308 155.802 175.488 154.009 171.792C154.448 170.076 154.904 161.535 155.111 159.119C155.532 154.271 156.056 149.403 156.148 144.537C159.363 144.822 163.557 143.852 165.221 141.169C165.31 141.011 165.344 140.829 165.318 140.65C165.292 140.471 165.207 140.305 165.075 140.178C164.944 140.05 164.774 139.967 164.591 139.941C164.407 139.916 164.22 139.949 164.057 140.036C162.753 140.934 161.367 141.715 159.917 142.369C157.624 143.054 155.158 142.948 152.936 142.068C150.714 141.188 148.871 139.588 147.72 137.539C147.575 137.291 147.122 137.457 147.235 137.74C147.833 139.39 148.854 140.865 150.2 142.024C151.547 143.183 153.175 143.988 154.93 144.363C154.999 144.378 151.816 170.137 152.117 172.166C149.75 172.833 147.463 173.923 145.125 174.679C131.915 178.931 117.829 180.193 104.701 176.215C99.5395 174.652 90.3906 169.447 90.3906 169.447C90.3906 169.447 85.9356 144.462 88.3494 125.364C89.5428 115.996 90.778 106.726 92.5438 97.46Z" fill="#003459"/>
<path d="M110.295 110.237C109.326 123.409 109.653 136.64 111.271 149.751C111.695 153.028 114.184 166.13 115.53 169.081C115.666 169.302 115.873 169.474 116.119 169.571C116.364 169.667 116.635 169.683 116.891 169.615C117.146 169.547 117.372 169.4 117.534 169.196C117.696 168.992 117.785 168.742 117.787 168.484C117.227 165.342 116.501 162.229 115.613 159.159C114.903 155.931 112.192 136.519 111.985 130.03C111.31 109.028 114.493 100.155 115.073 92.2811C117.087 91.8743 119.058 91.2861 120.96 90.5243C125.211 88.7677 129.358 86.7794 133.38 84.5687C135.065 83.5088 137.356 82.3121 138.407 80.6C138.45 80.5239 138.47 80.4373 138.463 80.3507C138.456 80.2641 138.424 80.1813 138.369 80.1124C138.315 80.0436 138.241 79.9916 138.157 79.9628C138.073 79.934 137.982 79.9297 137.896 79.9504C135.968 80.5461 134.275 82.1596 132.563 83.205C122.94 89.0739 117.038 89.2777 113.85 90.4007C113.175 90.6374 111.96 97.9107 111.507 100.781C111.019 103.924 110.614 107.076 110.295 110.237Z" fill="#003459"/>
<path d="M117.577 112.518C117.48 112.324 117.341 112.152 117.17 112.016C116.999 111.879 116.799 111.78 116.585 111.726C116.37 111.671 116.147 111.663 115.929 111.701C115.711 111.739 115.504 111.823 115.322 111.947C115.164 112.099 115.046 112.286 114.978 112.492C114.909 112.698 114.892 112.916 114.929 113.13C114.966 113.343 115.054 113.545 115.187 113.718C115.321 113.891 115.495 114.031 115.695 114.125C115.955 114.25 116.248 114.298 116.536 114.262C116.824 114.226 117.095 114.109 117.315 113.923C117.463 113.723 117.563 113.492 117.608 113.249C117.654 113.006 117.643 112.756 117.577 112.518Z" fill="#003459"/>
<path d="M117.145 131.094C117.363 131.029 117.563 130.914 117.728 130.761C117.893 130.607 118.019 130.418 118.095 130.209C118.172 129.999 118.197 129.775 118.169 129.554C118.142 129.334 118.061 129.122 117.935 128.937C117.776 128.73 117.556 128.577 117.303 128.497C117.051 128.418 116.78 128.416 116.527 128.493C116.274 128.57 116.052 128.722 115.891 128.927C115.731 129.133 115.639 129.381 115.63 129.639C115.518 130.448 116.263 131.408 117.145 131.094Z" fill="#003459"/>
<path d="M119.07 149.807C119.222 149.642 119.328 149.441 119.377 149.225C119.425 149.008 119.416 148.783 119.349 148.571C119.281 148.359 119.159 148.168 118.993 148.016C118.828 147.864 118.624 147.756 118.403 147.703C118.109 147.623 117.797 147.64 117.514 147.75C117.231 147.861 116.993 148.059 116.837 148.315C116.71 148.534 116.659 148.788 116.692 149.038C116.726 149.288 116.841 149.521 117.022 149.702C117.309 149.926 117.661 150.057 118.029 150.076C118.396 150.095 118.76 150.001 119.07 149.807Z" fill="#003459"/>
<path d="M124.029 214.524C124.039 214.802 124.159 215.066 124.365 215.26C124.571 215.454 124.846 215.562 125.132 215.562C125.418 215.562 125.693 215.454 125.899 215.26C126.105 215.066 126.226 214.802 126.236 214.524C126.685 208.093 126.262 201.18 127.494 188.708C132.007 194.251 136.207 200.03 140.076 206.018C141.055 207.465 143.451 206.1 142.462 204.66C137.531 197.543 131.941 190.109 125.265 184.442C124.971 184.195 124.455 184.515 124.696 184.869C125.312 185.772 125.95 186.662 126.61 187.539C124.82 196.426 123.955 205.467 124.029 214.524Z" fill="#003459"/>
<path d="M129.611 101.301C131.825 101.629 134.027 102.06 136.234 102.418C136.351 102.448 136.476 102.432 136.581 102.373C136.686 102.314 136.763 102.217 136.794 102.103C136.826 101.99 136.811 101.868 136.751 101.765C136.691 101.663 136.592 101.587 136.476 101.555C134.649 100.977 132.805 100.447 130.977 99.8616C131.564 97.037 129.673 94.0637 126.305 94.4701C125.693 94.5376 125.108 94.7515 124.602 95.0927C124.095 95.4338 123.684 95.8916 123.403 96.4253C123.122 96.959 122.982 97.5521 122.993 98.1516C123.005 98.7511 123.169 99.3386 123.47 99.8616C122.898 100.085 122.388 100.437 121.982 100.889C121.577 101.341 121.288 101.881 121.138 102.463C120.988 103.046 120.982 103.654 121.12 104.239C121.258 104.824 121.537 105.369 121.933 105.829C122.367 106.326 122.923 106.709 123.549 106.942C124.175 107.175 124.851 107.25 125.515 107.16C126.179 107.071 126.809 106.82 127.347 106.431C127.884 106.041 128.313 105.526 128.592 104.932C130.077 105.508 131.554 106.08 133.047 106.642C134.303 107.115 134.856 105.137 133.604 104.669C131.828 104.009 130.047 103.359 128.262 102.72C128.007 102.652 127.734 102.685 127.503 102.812C127.273 102.939 127.104 103.15 127.032 103.399C126.743 105.019 124.937 106.054 123.582 104.723C123.292 104.438 123.097 104.074 123.024 103.679C122.951 103.284 123.003 102.876 123.172 102.51C123.341 102.144 123.62 101.837 123.973 101.629C124.325 101.42 124.734 101.321 125.145 101.344C125.351 101.338 125.55 101.267 125.712 101.143C125.874 101.019 125.99 100.847 126.044 100.653C126.098 100.459 126.087 100.254 126.012 100.067C125.937 99.8795 125.802 99.721 125.627 99.6143C123.792 98.2993 125.341 95.8995 127.316 96.1953C129.341 96.5031 129.632 98.661 128.968 100.2C128.904 100.429 128.935 100.673 129.056 100.88C129.176 101.087 129.376 101.238 129.611 101.301Z" fill="#003459"/>
<path d="M188.888 114.129C191.465 114.492 196.988 115.46 196.224 119.087C195.622 121.932 191.846 123.944 189.474 125.209C183.87 128.185 177.382 129.65 171.148 130.742C158.225 133.214 144.86 132.311 132.412 128.122C129.577 127.112 124.866 125.658 124.735 122.063C124.59 118.102 128.621 115.951 131.62 114.211C131.729 114.132 131.806 114.017 131.833 113.887C131.861 113.757 131.838 113.621 131.769 113.507C131.7 113.392 131.589 113.307 131.459 113.267C131.329 113.227 131.189 113.235 131.065 113.29C128.07 114.707 124.929 116.479 123.605 119.633C123.041 120.909 122.932 122.332 123.294 123.675C123.657 125.019 124.47 126.205 125.605 127.047C128.332 129.215 132.203 130.305 135.505 131.308C143.886 133.759 152.636 134.79 161.375 134.355C161.172 134.843 161.162 135.384 160.593 135.633C160.125 135.843 157.86 133.967 157.066 134.959C156.703 135.411 156.449 135.906 155.79 135.979C155.454 136.015 155.116 135.938 154.831 135.762C154.545 135.585 154.33 135.32 154.22 135.009C154.104 134.655 153.473 134.695 153.521 135.1C153.536 135.644 153.739 136.167 154.098 136.584C154.456 137.001 154.949 137.289 155.496 137.4C156.064 137.51 156.654 137.431 157.171 137.176C157.688 136.922 158.103 136.505 158.348 135.994C158.448 136.255 158.601 136.495 158.797 136.698C158.993 136.901 159.228 137.065 159.49 137.179C159.751 137.293 160.033 137.355 160.32 137.362C160.606 137.368 160.891 137.32 161.158 137.218C161.736 136.984 162.218 136.567 162.525 136.035C162.832 135.502 162.946 134.885 162.85 134.282C172.658 133.674 185.641 131.24 193.672 125.653C196.438 123.731 199.57 120.748 198.443 117.089C198.168 116.318 197.739 115.608 197.18 114.998C196.622 114.389 195.946 113.893 195.191 113.539C193.264 112.754 191.156 112.488 189.088 112.768C188.314 112.784 188.062 114.011 188.888 114.129Z" fill="#003459"/>
<path d="M152.078 134.555C151.396 134.949 151.346 135.84 150.404 135.914C149.507 135.984 148.96 135.215 148.5 134.599C148.399 134.468 148.23 134.48 148.068 134.599C147.237 135.109 146.277 135.382 145.295 135.388C144.881 135.324 144.487 135.168 144.143 134.934C143.799 134.7 143.514 134.393 143.309 134.037C143.114 133.663 142.591 133.942 142.657 134.3C142.715 134.881 142.948 135.433 143.327 135.885C143.707 136.337 144.215 136.67 144.788 136.841C145.362 137.011 145.974 137.013 146.548 136.845C147.122 136.677 147.632 136.347 148.014 135.896C148.199 136.32 148.495 136.689 148.873 136.966C149.251 137.243 149.698 137.419 150.167 137.474C151.484 137.594 153.76 136.291 153.002 134.788C152.909 134.64 152.76 134.533 152.588 134.49C152.416 134.447 152.233 134.47 152.078 134.555Z" fill="#003459"/>
<path d="M172.583 135.353C169.105 134.177 166.527 136.108 163.662 137.496C161.375 138.547 158.885 139.11 156.357 139.148C153.829 139.186 151.322 138.697 149.004 137.715C148.62 137.559 148.373 138.167 148.724 138.36C154.289 141.432 160.371 140.814 165.869 137.983C167.574 137.107 169.64 136.027 171.63 136.638C172.656 136.952 173.667 137.821 174.78 137.185C176.67 136.115 175.262 133.491 173.544 133.201C173.431 133.175 173.314 133.181 173.205 133.219C173.096 133.257 173 133.324 172.93 133.413C172.859 133.503 172.817 133.61 172.808 133.722C172.798 133.834 172.822 133.946 172.877 134.046C173.113 134.297 173.336 134.561 173.544 134.835C174.15 136.365 173.181 135.554 172.583 135.353Z" fill="#003459"/>
<path d="M238.845 172.603C238.729 168.027 235.422 164.224 232.019 161.311C227.665 157.583 199.661 136.326 188.731 132.065C187.604 131.628 186.937 133.354 187.921 133.93C196.393 138.861 231.779 164.104 234.257 167.857C237.028 172.048 236.012 176.44 232.502 179.851C229.127 183.116 200.777 195.976 191.057 200.535C171.899 209.52 114.979 236.09 105.772 240.574C101.687 242.562 97.6022 245.308 92.8246 244.084C88.4131 242.754 84.3215 240.574 80.7934 237.672C71.8051 230.882 44.1584 210.251 39.4928 206.54C35.8573 203.647 31.301 198.073 35.6075 193.723C35.621 193.709 45.4193 187.77 47.5186 186.531C63.0139 177.375 73.9921 173.034 85.4198 166.391C85.6366 166.268 85.7943 166.065 85.8581 165.829C85.9219 165.592 85.8866 165.341 85.76 165.13C85.6335 164.919 85.426 164.765 85.1832 164.703C84.9404 164.641 84.6822 164.675 84.4654 164.798C75.8794 169.081 67.3744 173.609 58.9004 178.11C54.7465 180.313 36.3554 191.862 34.8704 193.014C34.2124 193.533 33.6748 194.181 33.2932 194.917C32.9115 195.653 32.6945 196.459 32.6564 197.283C31.9531 203.529 33.0263 214.509 35.9909 218.206C38.2618 220.725 40.8328 222.972 43.6495 224.898C46.8031 227.333 64.9646 241.167 70.9492 245.563C76.6003 249.712 82.5956 253.723 89.4901 255.604C96.4966 257.519 103.166 255.867 109.605 252.935C113.115 251.332 216.587 201.16 221.035 198.854C224.783 196.908 236.991 191.001 237.901 188.833C238.432 187.562 239.131 174.28 238.845 172.603Z" fill="#003459"/>
<path d="M198.674 151.668C199.349 150.105 199.041 149.01 197.355 147.63C195.35 145.988 191.102 147.163 191.415 150.553C191.738 154.009 197.109 155.302 198.674 151.668Z" fill="#003459"/>
<path d="M62.7264 210.234C61.0082 209.045 59.1572 208.049 57.2089 207.265C56.5677 207.057 56.2005 207.865 56.592 208.296C58.074 209.715 59.6869 210.999 61.4101 212.131C62.7871 213.183 74.3404 222.359 76.0725 222.059C76.2668 222.004 76.4377 221.89 76.5594 221.733C76.6812 221.575 76.7472 221.384 76.7475 221.187C76.6503 218.974 64.4638 211.274 62.7264 210.234Z" fill="#003459"/>
<path d="M160.944 145.658C160.841 145.659 160.739 145.682 160.646 145.727C160.553 145.772 160.472 145.837 160.409 145.917C160.347 145.997 160.304 146.091 160.284 146.19C160.264 146.289 160.268 146.391 160.295 146.488C160.998 148.268 162.86 149.334 164.354 150.457C173.591 157.374 189.844 168.61 193.528 171.13C196.926 173.667 200.469 176.014 204.14 178.16C203.176 178.481 189.946 185.175 186.725 186.761C153.599 203.067 138.615 209.157 105.573 226.917C105.573 226.917 65.8151 198.119 58.0405 192C63.0976 189.621 87.6055 176.832 88.217 175.815C88.2688 175.728 88.2994 175.63 88.3065 175.529C88.3136 175.428 88.2969 175.327 88.2579 175.234C88.2188 175.14 88.1584 175.056 88.0811 174.989C88.0038 174.921 87.9118 174.872 87.812 174.845C85.517 174.45 60.1586 188.008 55.5659 192.037C55.0583 192.481 55.7576 193.22 56.1856 193.561C69.9083 204.365 105.106 228.597 105.385 228.489C112.04 225.947 118.769 222.563 125.173 219.481C183.559 191.389 208.53 180.044 206.848 178.337C203.666 175.102 163.08 145.93 160.944 145.658Z" fill="#003459"/>
<path d="M156.094 14.2984C154.259 13.5713 152.276 13.269 150.301 13.4152C148.326 13.5615 146.413 14.1524 144.712 15.1413C144.253 13.2385 143.253 11.5001 141.826 10.1259C140.718 8.9578 139.365 8.03626 137.859 7.42429C136.352 6.81232 134.728 6.52434 133.097 6.58002C131.466 6.6357 129.866 7.03374 128.407 7.74693C126.948 8.46012 125.665 9.47165 124.644 10.7124C122.341 8.8337 119.459 7.75974 116.456 7.66162C108.963 7.34076 101.893 13.7488 104.832 20.0581C106.317 23.2299 109.573 24.9907 112.849 26.019C112.655 29.4512 115.51 46.579 115.598 46.6356C114.984 47.1309 114.456 47.7198 114.035 48.3793C113.122 49.7337 112.05 51.3788 113.021 52.9949C113.209 53.3248 113.483 53.6013 113.814 53.7974C114.145 53.9935 114.523 54.1026 114.911 54.114C114.605 54.7765 114.422 55.4867 114.371 56.2114C114.137 56.0632 113.866 55.9779 113.588 55.9643C113.309 55.9507 113.031 56.0092 112.783 56.1338C110.529 57.245 111.048 61.2794 114.643 61.4057C114.761 62.1753 114.963 62.9305 115.245 63.6583C114.605 65.5038 114.362 67.4583 114.531 69.3996C114.457 71.2735 114.831 73.1386 115.623 74.848C116.414 76.5574 117.603 78.0644 119.094 79.2502C124.971 84.2472 137.175 81.1675 139.27 72.0401C139.809 69.9664 139.823 67.7963 139.311 65.7162C139.526 65.0981 139.662 64.4563 139.716 63.8055C140.62 63.9647 141.552 63.7705 142.31 63.2649C143.068 62.7593 143.591 61.9831 143.766 61.1045C144.383 58.5206 141.414 57.2069 141.414 57.2069C141.53 56.4542 141.588 55.6943 141.588 54.9332C141.914 54.8124 142.203 54.6102 142.424 54.3467C142.949 53.368 143.174 52.2628 143.072 51.163C142.97 50.0632 142.545 49.0151 141.849 48.1439C141.569 47.8583 141.262 47.6002 140.931 47.3733C140.931 47.3733 146.964 33.1713 147.319 32.1877C153.19 33.4369 160.211 30.1323 161.155 23.8164C161.478 21.9104 161.159 19.9539 160.247 18.2387C159.335 16.5234 157.878 15.1413 156.094 14.2984ZM113.451 58.3509C113.426 58.0578 113.498 57.7646 113.655 57.5138C113.813 57.2631 114.049 57.068 114.329 56.957C114.299 58.034 114.407 59.1386 114.419 59.3687C113.963 59.1675 113.555 58.9769 113.451 58.3483V58.3509ZM132.717 67.9728C132.547 70.3529 129.535 71.7126 127.331 71.5851C126.207 71.5419 125.129 71.1385 124.264 70.4376C123.4 69.7366 122.797 68.7773 122.549 67.7085C122.499 67.314 123.061 67.1641 123.314 67.4047C124.601 68.5882 125.736 69.7138 127.683 69.5087C129.411 69.3246 130.082 68.074 131.387 67.2337C131.521 67.159 131.673 67.1195 131.828 67.1193C131.982 67.119 132.134 67.158 132.268 67.2323C132.402 67.3067 132.514 67.4138 132.593 67.5432C132.672 67.6726 132.715 67.8197 132.717 67.9701V67.9728ZM141.253 58.0866C141.699 58.8489 141.908 59.721 141.855 60.5969C141.764 60.9369 141.58 61.2468 141.325 61.4947C141.069 61.7425 140.75 61.9193 140.4 62.0066C140.897 59.4937 140.912 59.8106 141.253 58.084V58.0866ZM158.355 23.1444C158.129 24.6039 157.472 25.9676 156.462 27.0683C155.452 28.1689 154.135 28.9587 152.672 29.3407C149.018 30.4045 145.944 28.7831 142.78 27.2367C141.978 26.8422 140.755 27.7246 141.41 28.5714C142.386 29.8378 143.675 30.8426 145.157 31.492C143.906 33.6647 142.902 35.9638 142.163 38.3485C141.107 41.115 140.407 43.9984 140.079 46.9328C139.861 46.8407 134.573 45.389 134.573 45.389C136.393 38.0894 136.643 37.499 136.484 35.9657C136.48 35.8622 136.442 35.7627 136.376 35.6816C136.31 35.6004 136.219 35.542 136.117 35.5149C136.014 35.4877 135.905 35.4932 135.806 35.5305C135.707 35.5678 135.623 35.6351 135.566 35.7224C133.676 38.2078 133.529 42.0988 133.365 45.2443C132.319 45.144 131.264 45.1643 130.222 45.3048C129.738 45.4666 129.766 45.7243 129.966 45.9623C130.118 46.1451 134.247 48.9947 135.105 49.6982C136.432 50.7857 140.053 54.4967 140.789 54.8267C139.96 56.4889 138.517 64.7615 138.089 64.8825C137.469 65.0386 136.82 65.0566 136.192 64.9351C133.079 63.9988 130.252 60.6167 129.473 61.4859C129.078 61.9264 129.045 62.3748 128.686 62.8127C127.327 64.4657 126.286 61.4648 126.152 60.5891C125.866 58.7599 126.557 57.195 126.722 55.4264C126.757 55.0555 126.257 54.9253 126.014 55.141C125.353 55.8681 124.859 56.7248 124.566 57.6535C124.273 58.5821 124.187 59.5611 124.315 60.5246C123.738 60.7153 120.458 63.1914 118.815 63.5084C118.13 63.6393 117.426 63.6442 116.739 63.5228C115.416 58.848 115.952 55.5815 115.542 54.0995C117.274 53.7499 118.923 53.0861 120.402 52.1428C121.106 51.7483 126.953 47.493 127.692 46.942C128.097 46.6422 129.582 45.6848 128.392 45.4126C126.386 45.2161 124.365 45.2047 122.357 45.3784C122.864 43.7009 122.99 41.9362 122.727 40.2065C122.464 38.4767 121.818 36.8233 120.834 35.3608C120.763 35.2511 120.654 35.1697 120.527 35.1308C120.4 35.0919 120.263 35.0982 120.14 35.1484C120.017 35.1987 119.916 35.2897 119.855 35.4053C119.795 35.521 119.778 35.6538 119.808 35.7803C120.5 38.9875 120.986 42.2335 121.264 45.4994C120.074 45.6401 117.106 45.9084 116.833 45.9899C117.145 44.475 116.033 37.6252 115.796 35.8105C115.362 32.4349 115.25 28.6819 114.155 25.4365C113.991 24.9565 108.678 23.1905 106.873 19.8543C104.07 14.7258 110.572 9.5973 116.471 10.0668C119.9 10.339 122.738 13.3043 124.043 13.608C126.068 14.0814 131.721 8.38618 135.221 9.308C137.158 9.84557 138.878 10.9496 140.149 12.4706C141.337 13.8842 141.537 15.8751 142.78 17.1638C143.298 17.7043 150.516 15.2005 153.781 16.2604C155.246 16.7121 156.503 17.6462 157.337 18.9023C158.172 20.1584 158.532 21.6582 158.355 23.1444Z" fill="#003459"/>
<path d="M185.451 107.83C185.236 99.9306 176.872 93.2438 169.046 92.8164C164.221 92.4807 159.388 93.3507 155.006 95.3438C153.079 96.2705 151.253 97.3852 149.557 98.6708C153.726 100.173 159.883 103.77 161.507 107.805C161.535 107.901 161.54 108.002 161.524 108.1C161.508 108.199 161.47 108.292 161.413 108.375C161.356 108.458 161.281 108.528 161.193 108.58C161.106 108.632 161.008 108.665 160.907 108.677C160.025 107.444 154.926 100.821 146.795 99.4572C142.673 98.7655 137.012 100.756 135.347 104.895C134.526 107.027 134.478 109.368 135.212 111.53C136.071 113.62 137.612 115.376 139.598 116.527C142.715 114.134 147.874 113.912 150.281 114.434C152.354 114.947 154.319 115.811 156.086 116.986C156.477 117.026 157.368 116.397 157.768 116.319C162.266 115.45 164.013 118.275 165.093 119.158C165.614 118.584 166.266 118.137 166.996 117.851C167.726 117.565 168.514 117.449 169.298 117.512C171.094 117.433 172.859 117.986 174.272 119.069C174.137 118.953 174.947 115.281 182.397 113.223C183.196 113.008 184.038 112.993 184.845 113.181C185.187 111.415 185.39 109.626 185.451 107.83ZM177.969 101.093C176.662 100.851 175.703 98.9982 173.628 97.1309C173.148 96.7009 173.763 96.0184 174.294 96.2906C175.874 97.0941 178.82 98.6406 178.909 100.397C178.906 100.508 178.878 100.616 178.827 100.715C178.775 100.813 178.702 100.899 178.611 100.966C178.521 101.033 178.416 101.079 178.305 101.101C178.194 101.123 178.079 101.12 177.969 101.093ZM180.471 105.301C179.896 105.154 179.68 104.812 179.427 104.287C179.285 104.035 179.236 103.743 179.289 103.46C179.343 103.176 179.494 102.92 179.719 102.733C179.96 102.578 180.248 102.509 180.535 102.536C180.822 102.563 181.091 102.686 181.297 102.883C182.608 104.17 181.71 105.613 180.471 105.294V105.301Z" fill="#003459"/>
<path d="M158.337 148.043C158.337 156.502 156.214 163.115 157.739 171.318C158.624 176.085 164.894 191.42 167.37 193.739C168.371 192.819 194.927 180.984 199.207 178.51C199.371 178.412 161.013 149.24 158.337 148.043Z" fill="#003459"/>
<path d="M128.494 212.925C128.494 205.023 128.629 201.379 128.447 193.739C132.156 197.947 138.654 206.856 139.691 207.858C137.817 209.108 130.368 212.636 128.494 212.925Z" fill="#003459"/>
<path d="M91.673 193.368C90.1151 188.678 87.623 178.143 87.623 178.143L60.075 192.287C60.075 192.287 103.014 223.895 104.529 223.895C106.044 223.895 98.3204 213.36 91.673 193.368Z" fill="#003459"/>
<path d="M161.857 118.437C160.949 118.026 159.937 117.885 158.947 118.032C157.958 118.179 157.035 118.607 156.294 119.262C155.668 118.162 154.659 117.316 153.448 116.878C150.345 115.583 146.853 115.489 143.682 116.615C141.352 117.441 137.962 118.558 138.303 121.594C138.895 126.854 146.898 126.032 150.479 125.144C152.309 124.859 154.036 124.131 155.502 123.027C155.742 123.648 156.126 124.207 156.624 124.658C157.123 125.11 157.722 125.442 158.376 125.63C159.029 125.817 159.718 125.854 160.388 125.737C161.058 125.62 161.691 125.354 162.238 124.958C162.806 124.595 163.266 124.092 163.572 123.501C163.877 122.91 164.018 122.251 163.979 121.59C163.941 120.929 163.724 120.29 163.352 119.736C162.979 119.183 162.464 118.735 161.857 118.437ZM151.077 122.628C148.42 123.417 144.172 124.396 141.718 122.607C140.424 121.66 140.584 119.721 142.552 118.615C144.828 117.339 152.77 117.511 154.281 119.767C155.459 121.53 152.118 122.317 151.077 122.628ZM161.698 123.263C159.133 125.121 156.426 121.87 158.178 120.65C158.489 120.361 158.858 120.139 159.262 119.997C159.665 119.855 160.095 119.796 160.523 119.824C162.335 120.1 163.35 122.062 161.698 123.263Z" fill="#003459"/>
<path d="M171.786 119.309C170.937 119.081 170.047 119.039 169.18 119.184C168.312 119.329 167.488 119.659 166.766 120.149C166.177 120.626 165.7 121.22 165.366 121.89C164.88 122.617 164.151 123.083 163.812 123.923C163.598 124.322 163.52 124.778 163.591 125.223C163.661 125.668 163.876 126.08 164.203 126.398C165.174 127.238 166.802 126.804 167.936 126.639C169.928 126.498 171.867 125.951 173.628 125.032C176.407 123.203 174.366 119.954 171.786 119.309ZM166.099 125.107C165.264 124.318 166.69 122.779 167.215 122.239C167.645 121.761 168.181 121.385 168.782 121.138C169.383 120.891 170.033 120.78 170.685 120.813C171.538 120.864 172.348 121.197 172.98 121.759C174.204 123.433 166.483 125.467 166.099 125.107Z" fill="#003459"/>
<path d="M178.756 116.618C177.425 117.655 176.362 118.981 175.651 120.49C175.361 121.15 175.32 121.889 175.535 122.576C175.749 123.263 176.207 123.853 176.826 124.243C178.362 125.184 180.479 124.346 181.98 123.782C184.007 123.196 185.868 122.161 187.416 120.757C190.863 116.887 184.089 112.097 178.756 116.618ZM178.891 122.609C174.72 123.294 180.001 118.206 181.726 117.48C182.664 117.086 185.151 116.165 186.366 117.897C186.832 118.573 183.827 121.8 178.886 122.609H178.891Z" fill="#003459"/>
</svg>
