<svg width="283" height="293" viewBox="0 0 283 293" fill="none" xmlns="http://www.w3.org/2000/svg">
<path d="M62.9504 62.6494C75.501 28.2656 100.165 21.991 113.93 22C153.697 22.009 169.053 35.4146 194.6 65.5703C218.556 93.8509 235.651 89.5868 249.408 100.441C271.835 118.147 284.577 179.27 241.131 216.647C179.541 269.647 139.975 272.865 86.7492 255.754C50.8544 244.215 20.7716 212.68 20.0462 177.764C18.6478 110.304 49.3773 99.837 62.9504 62.6494Z" fill="#F9C846"/>
<path d="M33.1803 128.211C33.1265 123.67 31.1611 119.083 29.1362 111.632C29.0669 114.244 26.8227 115.075 27.1397 118.517C27.1361 118.963 27.2192 119.405 27.384 119.817C27.5487 120.229 27.7917 120.602 28.0987 120.915C28.4056 121.228 28.7701 121.473 29.1705 121.637C29.5709 121.801 29.9991 121.88 30.4296 121.869C30.5684 121.873 30.7002 121.934 30.7958 122.038C30.8915 122.142 30.9432 122.282 30.9397 122.425C30.9361 122.569 30.8775 122.706 30.7768 122.805C30.6761 122.904 30.5415 122.957 30.4027 122.954C29.8051 123.023 29.2002 122.97 28.6226 122.796C28.045 122.623 27.506 122.334 27.0366 121.945C26.5672 121.556 26.1766 121.075 25.8871 120.529C25.5977 119.983 25.415 119.384 25.3497 118.765C25.0939 117.285 25.2887 115.759 25.9072 114.398C26.6303 112.933 27.4312 112.228 26.9147 110.498C26.4789 109.058 25.7572 108.706 24.5092 108.178C23.5763 107.823 22.7405 107.24 22.074 106.477C20.5415 104.603 20.8005 101.069 22.0344 98.8967C22.7512 97.9975 23.1778 96.8883 23.2541 95.725C23.0815 91.2319 19.036 92.7672 18.2535 88.2271C18.0914 87.3382 18.14 86.4217 18.395 85.5564C18.8509 84.0594 19.5705 82.6627 20.5175 81.4369C20.5641 81.364 20.6244 81.3016 20.6947 81.2534C20.7651 81.2052 20.8442 81.1722 20.9272 81.1563C21.0102 81.1404 21.0954 81.142 21.1778 81.161C21.2601 81.18 21.338 81.2159 21.4066 81.2667C21.4753 81.3176 21.5334 81.3822 21.5774 81.4567C21.6214 81.5313 21.6505 81.6142 21.6628 81.7006C21.6752 81.7871 21.6706 81.8752 21.6493 81.9598C21.6281 82.0443 21.5906 82.1236 21.5391 82.1928C20.4 83.8214 19.8847 85.8295 20.093 87.8287C20.4651 89.3288 21.0057 89.5735 22.4009 90.4788C23.2896 90.9849 24.0292 91.7311 24.5407 92.6379C25.0523 93.5447 25.3167 94.5782 25.3058 95.6283C25.2895 97.2054 24.7668 98.732 23.8201 99.9676C23.0249 101.354 22.756 103.985 23.6616 105.095C24.7483 106.463 27.0576 106.216 28.375 108.643C25.8832 97.8287 27.4383 85.2034 21.6636 74.5807C20.3774 72.2191 17.4993 70.7717 16.2781 73.9624C15.4057 76.8773 15.1623 79.955 15.565 82.978C15.8772 86.3843 16.3599 89.7716 17.0111 93.1261C17.5672 95.3925 18.7218 97.4244 19.2525 99.7039C19.7124 102.643 20.3265 105.554 21.092 108.424C21.808 110.456 23.922 111.485 24.488 113.551C25.245 116.311 24.6083 119.332 24.9125 122.148C25.049 125.03 25.9487 127.817 27.5132 130.205C27.9651 130.851 28.5852 131.349 29.3009 131.643C30.0166 131.937 30.7983 132.013 31.5545 131.864C33.0077 131.411 33.1931 129.53 33.1803 128.211Z" fill="#003459"/>
<path d="M83.8741 76.3574C85.8403 74.8288 88.2613 74.0612 90.717 74.1878C91.2388 73.3309 91.8056 72.5044 92.415 71.7119C89.4662 71.917 86.472 72.0049 83.526 72.169C83.5416 73.5721 83.658 74.9721 83.8741 76.3574Z" fill="#003459"/>
<path d="M109.486 71.25C108.046 71.7446 106.547 72.0243 105.031 72.0807C107.166 75.7197 106.796 81.1153 105.641 85.0298C105.11 86.8552 103.943 88.3246 104.076 90.2745C104.091 91.5602 104.353 92.83 104.846 94.0102C105.456 95.0812 107.406 95.7126 108.242 96.6883C109.023 97.7791 109.628 98.9937 110.033 100.285C109.585 90.6202 109.893 80.9293 109.486 71.25Z" fill="#003459"/>
<path d="M61.5822 72.6641C55.1694 73.2823 48.5373 72.396 42.2278 73.7262C42.4938 83.9563 43.1164 89.6683 42.8645 99.5424C42.7457 104.018 42.3084 109.538 45.611 113C51.8172 119.509 59.1257 115.49 61.4873 107.808C64.1574 99.1513 62.7693 82.1866 61.5822 72.6641Z" fill="#003459"/>
<path d="M160.103 76.7353C160.15 67.5512 159.82 69.1319 160.076 68.4551C151.137 68.5526 142.209 69.1531 133.333 70.2541C132.908 78.3555 132.201 88.2736 135.738 95.7539C136.904 98.1292 138.602 100.181 140.69 101.739C142.779 103.297 145.196 104.315 147.742 104.708C149.067 104.982 151.279 105.861 152.582 105.161C156.191 103.211 157.702 96.9772 159.267 93.4407C161.827 87.6393 155.687 80.8827 160.103 76.7353Z" fill="#003459"/>
<path d="M199.631 69.4062L199.989 69.2407C199.829 69.2275 198.14 68.8569 178.702 69.2553C178.649 72.345 178.716 75.4333 178.808 78.5244C179.043 87.0551 176.985 95.4437 182.668 101.73C186.593 106.056 193.583 107.375 197.271 102.005C199.062 99.0139 199.897 95.5135 199.656 92.0024C199.63 89.3932 199.939 86.7577 199.988 84.1485C200.095 79.2569 199.777 74.3081 199.631 69.4062Z" fill="#003459"/>
<path d="M104.662 95.7613C104.289 94.0664 103.828 92.3934 103.282 90.7495C103.238 90.5878 103.135 90.4503 102.995 90.3661C102.855 90.2819 102.688 90.2578 102.531 90.2988C102.373 90.3399 102.238 90.4429 102.153 90.5859C102.068 90.7289 102.04 90.9006 102.075 91.0645L102.964 97.0109C102.983 97.1404 103.026 97.2646 103.092 97.3764C103.158 97.4882 103.245 97.5853 103.347 97.662C103.45 97.7386 103.566 97.7934 103.689 97.8229C103.812 97.8525 103.94 97.8564 104.065 97.8342C107.602 97.2834 107.979 102.669 104.887 103.671C104.677 103.741 104.493 103.877 104.362 104.061C104.231 104.245 104.159 104.468 104.157 104.696C104.157 108.775 103.782 111.142 100.874 112.788C99.2773 113.816 97.3522 114.149 95.5195 113.712C93.7069 113.381 93.5697 113.173 93.2555 113.656C92.8183 114.421 94.2687 115.315 94.9932 115.634C96.353 116.086 97.806 116.148 99.1971 115.813C99.8329 115.665 100.447 115.433 101.025 115.121C101.277 118.21 101.75 121.276 102.44 124.292C102.459 124.435 102.532 124.563 102.642 124.651C102.753 124.738 102.892 124.777 103.03 124.759C103.167 124.741 103.293 124.667 103.378 124.554C103.464 124.441 103.503 124.297 103.487 124.154C103.299 117.613 103.11 116.421 102.984 113.952C105.65 112.165 106.184 108.724 106.238 105.424C110.599 103.206 109.705 95.6807 104.662 95.7613Z" fill="#003459"/>
<path d="M101.413 103.283C101.027 103.177 100.123 104.371 100.021 104.518C99.6363 105.116 99.1114 105.603 98.4954 105.933C98.2232 106.04 97.9309 106.08 97.6412 106.052C97.3514 106.023 97.0719 105.926 96.8242 105.768C95.2677 104.88 95.1135 104.648 94.7159 104.998C94.1499 105.438 94.9989 106.701 95.18 106.948C95.785 107.636 96.6111 108.073 97.5041 108.177C98.3972 108.28 99.2962 108.044 100.033 107.512C100.461 107.245 100.834 106.892 101.13 106.475C101.426 106.058 101.639 105.585 101.758 105.082C101.814 104.667 101.93 103.421 101.413 103.283Z" fill="#003459"/>
<path d="M93.1819 96.5801C93.0404 95.6454 92.4914 94.9598 91.9353 95.0418C91.3792 95.1239 91.0736 95.9618 91.2052 96.895C91.3368 97.8282 91.9127 98.53 92.4518 98.4465C92.9909 98.363 93.3149 97.5265 93.1819 96.5801Z" fill="#003459"/>
<path d="M100.72 95.0244C100.587 94.0897 100.029 93.4041 99.4858 93.4861C98.9424 93.5682 98.6099 94.4062 98.7556 95.354C98.9014 96.3019 99.4462 96.9743 99.9895 96.8908C100.533 96.8073 100.865 95.9708 100.72 95.0244Z" fill="#003459"/>
<path d="M100.36 99.9131C99.8424 98.3792 97.4397 92.4884 96.0757 93.2268C94.921 93.8509 97.0662 97.2116 98.1458 99.8047C98.0043 99.9248 96.803 100.876 97.0138 101.369C97.3251 102.052 99.1759 101.403 99.7985 101.223C100.033 101.116 100.221 100.923 100.324 100.681C100.428 100.438 100.441 100.165 100.36 99.9131Z" fill="#003459"/>
<path d="M139.685 122.343C132.481 126.798 125.535 129.541 117.336 128.35C116.64 128.317 116.763 127.213 117.428 127.279C125.311 127.739 133.224 124.056 139.936 119.699C140.081 119.602 140.248 119.546 140.419 119.534C140.591 119.522 140.763 119.555 140.919 119.63C141.076 119.705 141.211 119.82 141.313 119.964C141.414 120.108 141.479 120.276 141.501 120.453C142.824 128.841 144.82 137.1 147.47 145.144C147.558 145.356 147.575 145.592 147.52 145.816C147.465 146.039 147.34 146.237 147.164 146.379C142.781 150.306 137.712 153.327 132.23 155.278C132.055 156.671 131.976 158.075 131.991 159.479C131.997 159.652 131.938 159.819 131.826 159.948C131.715 160.076 131.56 160.154 131.394 160.167C131.227 160.174 131.065 160.114 130.941 159.998C130.817 159.882 130.742 159.721 130.732 159.548C130.623 157.917 130.601 156.28 130.665 154.646C130.674 154.474 130.731 154.307 130.83 154.168C130.929 154.029 131.066 153.923 131.223 153.864C136.32 151.76 141.068 148.843 145.295 145.221C142.919 137.737 141.045 130.093 139.685 122.343Z" fill="#003459"/>
<path d="M162.489 92.0024C159.393 90.4158 160.102 83.3076 161.654 79.9308C161.735 79.7814 161.755 79.6049 161.71 79.4401C161.665 79.2753 161.559 79.1356 161.415 79.0518C161.266 78.9714 161.093 78.9538 160.933 79.0028C160.772 79.0517 160.636 79.1633 160.553 79.314C159.007 81.9802 158.268 85.0648 158.43 88.17C158.463 89.1419 158.681 90.0974 159.072 90.9814C159.464 91.8653 160.021 92.66 160.711 93.3194C158.118 98.8235 159.054 98.0939 151.904 107.766C150.641 109.537 145.323 116.585 143.131 119.067C143.033 119.167 142.977 119.304 142.976 119.447C142.975 119.59 143.028 119.727 143.125 119.829C143.222 119.931 143.354 119.989 143.492 119.991C143.63 119.992 143.763 119.936 143.862 119.836C147.525 116.69 150.779 113.067 153.544 109.056C161.511 98.3019 159.966 99.6102 162.922 93.4293C163.046 93.1805 163.071 92.8908 162.989 92.6234C162.908 92.356 162.728 92.1328 162.489 92.0024Z" fill="#003459"/>
<path d="M177.008 76.6925C176.898 76.1578 175.452 76.086 175.125 76.1065C173.488 76.4084 171.894 76.9156 170.376 77.617C169.997 77.7913 168.641 78.6014 168.892 79.2929C169.127 79.9419 170.469 79.709 171.066 79.539C171.664 79.3691 170.86 79.5874 173.785 78.6469C174.29 78.4828 174.82 78.3319 175.31 78.1531C175.798 77.9378 177.13 77.2771 177.008 76.6925Z" fill="#003459"/>
<path d="M175.575 82.3047C174.059 82.3969 172.573 82.7737 171.188 83.4166C170.831 83.6334 169.847 84.3572 170.087 84.9549C170.328 85.5526 171.614 85.3504 172.024 85.2479C172.166 85.2156 175.398 84.3835 175.539 84.341C175.964 84.2341 177.174 83.5719 177.144 83.1324C177.107 82.6416 175.767 82.3223 175.575 82.3047Z" fill="#003459"/>
<path d="M175.398 88.7588C174.007 88.7927 172.635 89.0958 171.352 89.6524C170.816 90.0216 169.958 90.6296 170.212 91.2317C170.465 91.8338 172.033 91.5423 172.193 91.5057C172.955 91.2818 173.73 91.1077 174.513 90.9841C174.951 90.9153 175.402 90.8874 175.841 90.8186C176.279 90.7497 177.601 90.3117 177.631 89.8722C177.659 89.3931 176.517 88.7588 175.398 88.7588Z" fill="#003459"/>
<path d="M172.726 94.6526C172.708 94.386 172.672 93.3649 172.672 92.647C172.664 92.505 172.71 92.3652 172.8 92.2583C172.891 92.1514 173.019 92.0863 173.156 92.0771C173.294 92.068 173.429 92.1157 173.532 92.2096C173.635 92.3036 173.698 92.4362 173.707 92.5782C173.809 93.277 174.01 94.4226 174.211 95.2562C174.228 95.3589 174.224 95.4642 174.199 95.5652C174.174 95.6661 174.129 95.7606 174.066 95.8423C174.004 95.924 173.925 95.9911 173.836 96.0393C173.747 96.0875 173.649 96.1157 173.548 96.122C171.489 96.4047 166.107 97.899 164.648 96.0531C164.235 95.5049 163.937 94.8731 163.773 94.1985C162.667 87.4078 161.905 80.5617 161.491 73.6885C161.633 71.5129 162.892 70.6266 164.993 70.4742C167.504 70.2452 170.034 70.4212 172.493 70.9958C172.67 71.0282 172.83 71.125 172.944 71.2687C173.058 71.4124 173.119 71.5935 173.115 71.7796L172.984 74.1822C172.983 74.3514 172.919 74.5138 172.805 74.6352C172.691 74.7565 172.536 74.8273 172.372 74.8326C172.209 74.8379 172.05 74.7774 171.929 74.6637C171.808 74.55 171.734 74.3921 171.723 74.2232L171.631 72.4798C169.471 72.3077 167.301 72.3258 165.145 72.534C164.269 72.6161 163.792 72.7406 163.619 73.249C163.195 74.5513 165.486 92.294 165.648 93.2008C165.978 94.7918 166.19 94.7376 166.763 94.8489C168.753 94.9166 170.745 94.8511 172.726 94.6526Z" fill="#003459"/>
<path d="M170.257 66.8949C169.708 66.6846 169.13 66.5698 168.545 66.555C168.578 65.4475 168.547 64.339 168.453 63.2353C168.311 60.1588 168.311 59.3384 168.055 57.1658C167.758 55.588 167.639 54.9038 167.008 54.9419C166.415 54.9771 166.356 55.61 166.199 57.2625C166.166 60.3674 166.32 63.4714 166.66 66.5565C162.743 66.9081 161.933 69.1935 165.19 68.9005C165.549 68.8726 165.897 68.8184 166.251 68.7774C167.519 68.6558 168.795 68.674 170.059 68.8316C171.32 68.8316 171.579 68.6983 171.676 68.3921C171.873 67.812 170.507 67.0003 170.257 66.8949Z" fill="#003459"/>
<path d="M92.0245 89.1537C91.2689 88.7937 90.4101 88.7414 89.619 89.0072C88.8506 89.2122 88.1601 89.6529 87.638 90.2715C87.355 90.629 86.8626 91.7072 87.3338 92.0969C87.805 92.4866 88.787 91.8391 89.3148 91.4801C89.5751 91.3037 89.862 91.1734 90.1638 91.0948C90.5903 90.9941 91.0311 90.9758 91.4641 91.0406C91.6056 91.0406 92.7009 91.1871 92.9357 90.6685C93.2966 90.0591 92.4221 89.4159 92.0245 89.1537Z" fill="#003459"/>
<path d="M100.206 87.7051C99.6591 87.4295 99.0412 87.3428 98.443 87.4575C97.7616 87.5585 97.1341 87.8976 96.6644 88.4185C96.4351 88.776 95.9979 89.7722 96.4931 90.1619C96.9346 90.49 97.9633 89.9348 98.1911 89.778C98.5409 89.587 98.9414 89.5196 99.3316 89.5861C99.7363 89.6608 100.656 89.822 100.95 89.4616C101.327 89.0001 100.648 87.9395 100.206 87.7051Z" fill="#003459"/>
<path d="M101.031 70.3745C97.1623 69.3065 93.39 72.572 90.9137 75.7672C85.6315 75.1445 80.2248 79.6406 78.6994 84.96C78.073 87.2612 78.0867 89.6986 78.739 91.992C78.7843 92.1503 79.9701 95.9637 80.5234 97.2514C80.6917 97.625 81.0214 98.2461 81.1431 98.4644C80.3658 98.8834 79.6998 99.4938 79.204 100.242C78.7082 100.99 78.3976 101.853 78.2998 102.755C78.2019 103.656 78.3198 104.569 78.6429 105.413C78.966 106.256 79.4844 107.004 80.1526 107.591C81.0064 108.422 82.1143 108.918 83.284 108.992C84.3752 109.022 85.4664 108.93 86.5385 108.718C86.9312 113.903 87.7252 119.047 88.9129 124.1C88.9315 124.24 89.0021 124.366 89.1096 124.453C89.2171 124.539 89.353 124.578 89.4882 124.562C89.6233 124.546 89.7471 124.476 89.8329 124.367C89.9187 124.257 89.9597 124.118 89.9473 123.977C89.7393 120.92 89.8822 120.315 89.2709 115.491C88.9794 112.922 88.661 110.341 88.5549 107.484C88.5499 107.341 88.5166 107.2 88.4572 107.07C88.3977 106.94 88.3133 106.824 88.2091 106.729C88.1049 106.634 87.983 106.562 87.851 106.517C87.719 106.472 87.5796 106.456 87.4413 106.469C86.1203 106.692 84.7861 106.82 83.4482 106.853C82.8919 106.797 82.3573 106.601 81.8913 106.282C81.4252 105.963 81.0419 105.53 80.7748 105.022C80.5078 104.514 80.3652 103.945 80.3596 103.367C80.354 102.788 80.4856 102.217 80.7427 101.704C81.1509 100.98 81.7621 100.402 82.495 100.046C83.2279 99.6908 84.0479 99.5744 84.8462 99.7126C85.0047 99.7337 85.1658 99.7129 85.3145 99.6521C85.4632 99.5913 85.5946 99.4926 85.6964 99.365C85.7983 99.2375 85.8673 99.0853 85.897 98.9227C85.9267 98.7601 85.9162 98.5924 85.8664 98.4351C85.038 96.3864 84.6141 94.1867 84.6198 91.9657C88.6964 86.8645 95.9907 84.5235 101.706 88.7661C101.831 88.8592 101.974 88.9225 102.125 88.9514C102.277 88.9804 102.432 88.9744 102.581 88.9338C102.73 88.8932 102.868 88.819 102.986 88.7166C103.104 88.6141 103.198 88.486 103.262 88.3413C105.964 82.2513 107.181 72.112 101.031 70.3745ZM83.5147 90.8757C82.5088 91.443 81.5549 92.104 80.6649 92.8505C80.136 90.4519 80.1408 87.9601 80.679 85.5636C81.3905 83.4908 82.6046 81.6422 84.2048 80.195C85.805 78.7479 87.7376 77.7508 89.8171 77.2996C86.8696 81.7473 85.2523 86.8103 83.5147 90.8757ZM101.856 86.3034C99.4484 84.8586 96.6586 84.246 93.8918 84.5548C91.1251 84.8636 88.5255 86.0776 86.4706 88.0204C86.922 87.1151 87.3465 86.195 87.7837 85.275C90.1213 80.3555 95.3752 71.0147 100.49 72.4489C104.772 73.6898 103.514 81.9304 101.856 86.3034Z" fill="#003459"/>
<path d="M110.417 125.257C108.714 124.417 106.913 123.808 105.06 123.445C104.836 123.403 104.605 123.447 104.41 123.569C104.214 123.69 104.068 123.88 103.998 124.104C102.919 127.206 101.49 130.439 100.496 133.92C97.6181 131.949 95.7234 130.15 90.0719 125.872C89.9952 125.789 89.898 125.728 89.7907 125.696C89.6834 125.665 89.5698 125.664 89.462 125.694C88.9264 125.879 88.4211 126.148 87.9635 126.491C87.6805 126.691 87.4188 126.93 87.498 127.273C87.5157 127.357 87.5494 127.437 87.5972 127.508C87.645 127.578 87.706 127.638 87.7765 127.684C87.8469 127.73 87.9256 127.761 88.0077 127.775C88.0899 127.79 88.174 127.787 88.255 127.767C88.6402 127.69 89.0086 127.541 89.3417 127.327C92.776 130.69 96.4822 133.741 100.42 136.448C98.2554 138.043 96.1858 139.772 94.2221 141.624C93.891 141.954 93.5613 142.342 93.1608 142.708C93.0299 142.816 92.9444 142.972 92.9223 143.144C92.9001 143.316 92.943 143.49 93.042 143.63C93.1476 143.758 93.2952 143.841 93.4565 143.864C93.6178 143.887 93.7816 143.847 93.9164 143.753C95.2805 142.837 94.7414 143.633 101.03 138.682C100.992 139.886 101.107 141.09 101.371 142.263C103.165 152.103 103.171 150.961 103.612 152.547C103.829 153.327 104.631 153.143 104.661 152.48C104.562 148.155 103.987 143.856 102.944 139.667C104.932 141.075 108.222 142.557 109.183 143.285C109.291 143.372 109.427 143.411 109.562 143.395C109.697 143.379 109.821 143.309 109.908 143.2C109.994 143.091 110.036 142.952 110.025 142.811C110.013 142.67 109.949 142.54 109.847 142.447C107.363 139.957 108.187 140.887 102.023 136.163C102.211 135.826 102.142 135.5 103.097 132.573C103.879 130.197 104.781 127.863 105.576 125.502C106.859 125.672 108.768 125.941 110.073 126.271C110.137 126.297 110.206 126.309 110.275 126.307C110.344 126.304 110.412 126.287 110.474 126.256C110.536 126.225 110.592 126.181 110.637 126.127C110.682 126.073 110.716 126.01 110.737 125.941C110.782 125.807 110.773 125.659 110.713 125.531C110.653 125.402 110.547 125.304 110.417 125.257Z" fill="#003459"/>
<path d="M232.981 142.707C232.871 142.111 232.489 140.79 231.849 140.977C231.37 141.124 231.478 141.403 231.133 143.037C230.874 144.257 230.119 145.491 228.917 145.381C228.242 145.233 227.63 144.868 227.167 144.338C226.157 143.435 226.035 142.999 225.523 143.267C224.841 143.605 225.434 144.905 225.748 145.519C226.066 146.069 226.504 146.536 227.027 146.881C227.549 147.227 228.142 147.442 228.759 147.509C229.352 147.518 229.94 147.397 230.484 147.153C231.028 146.909 231.516 146.548 231.915 146.094C232.315 145.64 232.616 145.103 232.8 144.519C232.984 143.935 233.045 143.318 232.981 142.707Z" fill="#003459"/>
<path d="M228.259 128.465C228.882 128.601 229.188 129.729 228.936 130.964C228.684 132.199 227.981 133.107 227.344 132.97C226.707 132.832 226.401 131.72 226.653 130.47C226.905 129.221 227.623 128.334 228.259 128.465Z" fill="#003459"/>
<path d="M260.797 124.496C260.659 122.906 260.009 121.411 258.95 120.25C257.892 119.09 256.487 118.332 254.962 118.098C255.111 116.927 255.063 115.737 254.82 114.582C254.185 112.626 253.106 110.857 251.672 109.423C250.239 107.989 248.494 106.933 246.584 106.343C241.393 104.824 224.91 106.05 222.51 106.563C220.459 106.992 218.508 107.831 216.768 109.034C214.943 110.371 213.517 112.213 212.656 114.349C212.204 115.481 212.131 116.736 212.448 117.916C212.766 119.096 213.455 120.131 214.407 120.858C217.02 122.716 220.062 123.821 223.223 124.062C218.66 129.955 215.362 134.587 213.013 137.892C212.902 138.049 212.835 138.234 212.819 138.428C212.802 138.622 212.838 138.817 212.922 138.991C213.005 139.165 213.133 139.313 213.292 139.417C213.451 139.521 213.634 139.578 213.822 139.581L218.742 139.637C217.423 144.218 216.007 149.959 219.3 153.368C221.213 155.38 224.548 155.712 227.258 155.895C227.161 159.386 227.116 160.213 227.231 165.658C227.224 165.8 227.272 165.939 227.364 166.044C227.456 166.15 227.585 166.213 227.722 166.221C227.86 166.224 227.994 166.171 228.095 166.073C228.196 165.976 228.257 165.842 228.265 165.699C228.397 163.841 228.804 160.516 229.172 155.96C229.776 155.996 234.549 156.064 235.058 155.999C235.333 155.961 236.933 155.665 236.969 155.12C237.004 154.575 235.459 154.095 235.058 154.008C232.421 153.501 227.819 154.448 223.345 153.23C222.385 153.012 221.495 152.544 220.758 151.871C217.968 148.948 219.99 142.788 221.116 138.881C221.16 138.724 221.169 138.559 221.142 138.399C221.115 138.238 221.053 138.086 220.961 137.954C220.869 137.822 220.749 137.713 220.611 137.636C220.472 137.558 220.319 137.515 220.161 137.508L215.838 137.467C220.006 131.505 218.927 133.29 224.824 124.187C228.654 124.433 233.793 124.47 235.416 124.47C231.454 130.29 235.109 136.42 241.173 136.19C241.294 136.181 241.413 136.147 241.522 136.09C241.631 136.034 241.728 135.955 241.808 135.86C242.085 135.486 242.44 135.183 242.847 134.974C243.254 134.764 243.702 134.654 244.157 134.651C245.299 134.723 245.961 136.754 244.754 138.496C244.272 139.183 243.628 139.732 242.883 140.089C242.764 140.15 242.659 140.235 242.572 140.339C242.485 140.443 242.419 140.563 242.379 140.694C242.338 140.825 242.323 140.962 242.334 141.099C242.346 141.236 242.384 141.369 242.446 141.49C244.346 144.795 246.642 147.838 249.279 150.547C248.996 160.069 249.081 160.686 249.317 162.68C249.493 164.145 249.544 164.546 250.025 164.546C250.58 164.546 250.601 163.982 250.793 162.706C251.16 160.393 251.175 160.069 251.376 150.93C259.316 141.241 261.759 130.171 260.797 124.496Z" fill="#003459"/>
<path d="M188.488 239.782C189.535 236.266 190.65 232.724 191.803 229.234C192.958 229.179 194.098 229.069 195.252 228.987C193.089 217.095 188.209 205.601 184.057 194.341C190.292 190.029 197.295 186.884 203.607 182.621C213.688 175.81 222.018 168.01 234.325 165.964C250.042 163.327 264.274 175.926 263.544 187.811C263.279 192.192 266.609 195.955 268.174 200.019C271.416 207.874 274.009 215.999 275.925 224.307C269.151 226.065 262.497 228.28 256.003 230.939C255.035 233.081 254.014 235.197 252.979 237.283L188.488 239.782Z" fill="#003459"/>
<path d="M240.754 171.197C240.644 171.067 240.489 170.987 240.323 170.974C240.157 170.962 239.992 171.017 239.865 171.128C239.803 171.185 239.752 171.254 239.715 171.331C239.679 171.408 239.657 171.491 239.653 171.577C239.648 171.663 239.659 171.748 239.687 171.829C239.714 171.91 239.757 171.985 239.813 172.048C243.845 176.917 244.058 183.962 243.605 190.381C242.343 208.155 229.241 220.097 213.538 227.773C208.772 230.103 203.854 232.085 198.822 233.706C198.755 233.724 198.693 233.755 198.638 233.798C198.583 233.84 198.537 233.894 198.503 233.955C198.468 234.017 198.446 234.084 198.437 234.155C198.427 234.225 198.432 234.297 198.449 234.365C198.487 234.502 198.574 234.619 198.693 234.69C198.812 234.762 198.953 234.783 199.086 234.749C221.739 229.447 244.011 214.327 245.614 190.546C246.029 183.486 245.343 176.564 240.754 171.197Z" fill="#003459"/>
<path d="M262.975 196.858C262.812 196.832 262.645 196.874 262.511 196.975C262.377 197.075 262.287 197.225 262.259 197.394C261.008 202.117 261.069 202.347 260.588 204.589C258.4 214.807 257.735 215.781 255.19 225.392C255.141 225.525 255.144 225.672 255.198 225.803C255.253 225.934 255.354 226.037 255.481 226.092C255.544 226.12 255.612 226.134 255.68 226.135C255.749 226.135 255.817 226.121 255.88 226.094C255.943 226.066 256 226.026 256.048 225.976C256.096 225.925 256.134 225.865 256.159 225.799C257.388 223.63 258.367 221.319 259.077 218.913C260.516 214.353 261.681 209.705 262.565 204.996C263.072 202.555 263.382 200.074 263.493 197.58C263.515 197.414 263.473 197.245 263.376 197.11C263.279 196.975 263.135 196.884 262.975 196.858Z" fill="#003459"/>
<path d="M182.444 197.583C182.389 197.422 182.274 197.29 182.125 197.216C181.977 197.141 181.806 197.13 181.649 197.185C154.56 205.844 119.814 192.234 105.002 188.904C104.868 188.873 104.727 188.897 104.611 188.971C104.494 189.046 104.41 189.165 104.378 189.303C104.347 189.443 104.37 189.59 104.442 189.712C104.514 189.835 104.629 189.925 104.762 189.962C111.648 191.981 116.613 194.943 134.299 198.833C149.747 202.262 167.335 204.303 182.061 198.406C182.14 198.38 182.212 198.338 182.274 198.281C182.337 198.225 182.387 198.157 182.423 198.08C182.459 198.003 182.479 197.919 182.483 197.834C182.487 197.748 182.474 197.663 182.444 197.583Z" fill="#003459"/>
<path d="M118.195 198.058C110.337 197.696 103.128 209.223 110.807 213.657C110.86 213.703 110.921 213.737 110.987 213.757C111.052 213.777 111.121 213.784 111.189 213.776C111.258 213.768 111.324 213.746 111.383 213.712C111.443 213.677 111.495 213.63 111.537 213.574C111.58 213.519 111.612 213.456 111.631 213.388C111.65 213.32 111.656 213.249 111.648 213.179C111.641 213.109 111.62 213.041 111.587 212.98C111.554 212.918 111.51 212.863 111.457 212.819C110.85 212.114 110.366 211.306 110.025 210.43C108.365 206.42 111.847 202.269 115.702 200.364C116.522 199.92 117.39 199.579 118.288 199.347C118.37 199.341 118.45 199.318 118.523 199.28C118.596 199.242 118.661 199.189 118.715 199.124C118.768 199.06 118.809 198.985 118.835 198.905C118.86 198.824 118.87 198.739 118.864 198.654C118.858 198.57 118.836 198.487 118.799 198.411C118.762 198.336 118.711 198.268 118.649 198.213C118.587 198.157 118.515 198.115 118.437 198.089C118.359 198.062 118.277 198.052 118.195 198.058Z" fill="#003459"/>
<path d="M123.514 213.67C123.376 213.664 123.241 213.715 123.138 213.812C123.036 213.908 122.974 214.042 122.967 214.186C122.96 214.329 123.008 214.469 123.1 214.576C123.193 214.683 123.322 214.747 123.46 214.756C123.554 214.766 123.602 214.881 123.672 214.961C123.783 215.216 123.836 215.494 123.827 215.773C123.818 216.053 123.747 216.326 123.62 216.573C123.326 217.182 122.113 217.493 121.444 217.493C117.22 217.534 116.28 213.336 118.447 209.486C119.853 206.989 120.953 207.21 120.45 206.341C119.875 205.349 117.867 207.185 117.134 208.032C114.004 211.713 114.365 219.699 121.471 219.605C122.245 219.643 123.015 219.458 123.694 219.07C124.373 218.682 124.935 218.107 125.317 217.408C125.952 215.33 124.728 213.577 123.514 213.67Z" fill="#003459"/>
<path d="M188.158 229.321C188.134 229.181 188.058 229.057 187.946 228.975C187.835 228.893 187.696 228.859 187.561 228.881C171.13 230.734 150.655 226.899 137.984 220.34C134.932 218.838 132.116 216.871 129.628 214.504C129.571 214.441 129.503 214.391 129.427 214.356C129.351 214.321 129.269 214.302 129.186 214.301C129.102 214.299 129.02 214.315 128.943 214.347C128.866 214.379 128.795 214.426 128.736 214.487C128.677 214.547 128.63 214.619 128.598 214.699C128.566 214.778 128.55 214.863 128.55 214.949C128.55 215.035 128.567 215.12 128.6 215.2C128.632 215.279 128.68 215.35 128.74 215.41C131.153 218.105 133.973 220.377 137.088 222.139C145.654 226.924 163.639 231.808 177.434 231.312C180.903 231.19 184.353 230.734 187.741 229.952C187.875 229.922 187.993 229.84 188.071 229.722C188.149 229.605 188.18 229.461 188.158 229.321Z" fill="#003459"/>
<path d="M18.2635 95.5998C17.863 93.1005 17.7781 86.278 15.1505 80.6568C14.2916 78.8167 13.2897 78.0652 12.4407 77.8864C9.56687 77.2682 7.63964 82.0617 7.22788 84.958C6.94794 87.9729 7.10918 91.0144 7.70615 93.9795C8.04999 95.7243 8.541 97.4266 8.95276 99.1436C8.9827 99.3128 9.07626 99.4627 9.2129 99.5605C9.34953 99.6583 9.51806 99.6959 9.68149 99.6651C9.76287 99.6505 9.84062 99.6193 9.9102 99.5732C9.97977 99.5271 10.0398 99.4671 10.0867 99.3967C10.1336 99.3263 10.1665 99.2469 10.1834 99.1632C10.2003 99.0795 10.2009 98.9932 10.1852 98.9092C9.80318 95.1954 8.68391 88.849 9.27114 85.2744C9.51735 83.4124 10.9323 79.9887 11.9497 79.9887C12.4464 79.9887 13.0577 81.1431 13.277 81.609C15.217 85.6729 15.3146 89.4277 17.239 95.8356C17.2698 95.9754 17.3525 96.0971 17.4694 96.1741C17.5862 96.2512 17.7276 96.2775 17.863 96.2473C17.9967 96.2121 18.1124 96.1256 18.1868 96.0054C18.2611 95.8852 18.2885 95.7402 18.2635 95.5998Z" fill="#003459"/>
<path d="M27.3732 94.7857C27.144 93.0057 26.9629 91.2286 26.6572 89.4575C26.2441 87.0182 25.6229 84.5966 25.0654 81.671C24.8248 80.4404 24.1329 78.1403 24.9861 77.2906C25.146 77.1266 25.3314 77.1954 25.504 77.2906C26.5256 78.0217 27.3623 78.9965 27.9435 80.1327C30.3928 84.8369 30.5386 89.56 32.746 95.7745C32.7604 95.8465 32.789 95.9147 32.83 95.9748C32.8711 96.0348 32.9236 96.0854 32.9844 96.1235C33.0452 96.1616 33.1129 96.1862 33.1833 96.196C33.2537 96.2057 33.3253 96.2003 33.3936 96.1801C33.4619 96.1599 33.5254 96.1253 33.5802 96.0786C33.6351 96.0318 33.68 95.9738 33.7121 95.9082C33.7443 95.8427 33.7631 95.7709 33.7673 95.6975C33.7715 95.6241 33.761 95.5506 33.7365 95.4815C33.104 92.0066 32.6965 84.787 29.7745 79.1131C28.9806 77.5899 27.8318 76.2962 26.4323 75.3495C25.9729 75.0617 25.4317 74.947 24.9001 75.0247C24.3684 75.1023 23.879 75.3677 23.5145 75.7758C21.8816 77.4664 22.6217 79.9496 23.0504 82.0929C24.3749 88.5477 25.4743 91.9333 26.1266 94.9849C26.1554 95.153 26.2462 95.3029 26.3798 95.403C26.5134 95.503 26.6794 95.5454 26.8426 95.5211C27.0054 95.4926 27.1513 95.4003 27.2501 95.2633C27.3489 95.1264 27.393 94.9554 27.3732 94.7857Z" fill="#003459"/>
<path d="M38.645 119.088C38.6137 118.953 38.5336 118.835 38.421 118.759C38.3084 118.683 38.1719 118.654 38.0396 118.679C37.9072 118.704 37.7891 118.78 37.7093 118.892C37.6295 119.004 37.5943 119.144 37.6107 119.282C37.6107 119.843 36.9131 124.005 36.7744 124.54C36.6485 125.014 36.2848 126.268 35.8065 126.093C35.3581 125.889 34.9535 125.594 34.6164 125.226C34.2794 124.858 34.0168 124.424 33.8439 123.949C33.3218 122.832 33.3487 122.459 32.0398 118.636C32.0023 118.466 31.9013 118.319 31.7591 118.227C31.6168 118.135 31.445 118.105 31.2814 118.144C31.1178 118.182 30.9757 118.287 30.8866 118.434C30.7974 118.581 30.7684 118.759 30.8059 118.929C30.7963 120.965 31.1983 122.981 31.986 124.847C32.2639 125.587 32.6852 126.259 33.2237 126.824C33.7623 127.388 34.4067 127.832 35.1174 128.129C38.6705 129.427 39.8605 122.64 38.645 119.088Z" fill="#003459"/>
<path d="M18.3129 99.529C18.0964 98.8536 16.1041 99.3825 15.78 99.488C13.0785 100.703 10.7815 102.713 9.17483 105.269C8.77863 105.953 7.95934 107.494 8.60883 107.919C9.57669 108.558 10.8728 105.798 13.4099 103.524C14.3981 102.674 15.4596 101.92 16.5809 101.271C16.7182 101.183 18.494 100.059 18.3129 99.529Z" fill="#003459"/>
<path d="M19.9515 106.852C19.6685 106.198 17.7908 106.929 17.3649 107.145C15.1091 108.553 13.133 110.393 11.5422 112.566C11.054 113.24 9.95737 114.873 10.6012 115.382C11.0865 115.783 11.5832 115.382 12.8157 114.145C13.6378 113.322 13.9165 112.841 15.5211 111.247C16.4542 110.358 17.4374 109.526 18.4658 108.757C18.6115 108.644 20.185 107.353 19.9515 106.852Z" fill="#003459"/>
<path d="M22.7432 115.608C22.4206 115.03 20.4608 115.987 20.25 116.103C17.7947 117.696 15.567 119.637 13.632 121.87C13.1623 122.484 12.1237 123.921 12.6897 124.45C13.2203 124.918 13.9037 124.285 15.289 123.009C19.1873 119.422 18.685 119.932 20.8599 118.122C21.3579 117.713 23.1125 116.175 22.7432 115.608Z" fill="#003459"/>
<path d="M38.2701 105.102C37.4616 104.169 36.4802 103.413 35.3842 102.88C34.2882 102.347 33.0999 102.047 31.8899 101.998C31.0862 102.019 29.4193 102.071 29.449 102.905C29.4716 103.529 30.0009 103.511 31.055 103.728C32.7729 104.003 34.4118 104.664 35.8561 105.665C36.3741 106.063 36.8055 106.57 37.1223 107.152C37.4392 107.734 37.6345 108.378 37.6956 109.043C37.939 111.211 37.6602 111.468 38.1866 111.625C38.822 111.855 39.3271 110.297 39.487 109.619C39.6412 108.82 39.6113 107.995 39.3999 107.21C39.1885 106.425 38.8014 105.703 38.2701 105.102Z" fill="#003459"/>
<path d="M112.361 127.561C112.785 132.704 113.646 137.523 113.674 143.529C113.698 150.819 111.835 159.726 105.184 162.108C100.858 163.635 95.1814 161.404 92.5566 154.845C91.5984 152.142 90.8924 149.351 90.4482 146.509C89.6204 141.975 88.0427 136.814 87.4371 131.362C87.4229 131.278 87.4253 131.191 87.444 131.107C87.4627 131.023 87.4974 130.944 87.546 130.874C87.5947 130.805 87.6563 130.746 87.7273 130.701C87.7982 130.656 87.8771 130.626 87.9593 130.614C88.0415 130.601 88.1253 130.605 88.2058 130.626C88.2864 130.648 88.362 130.685 88.4283 130.737C88.4946 130.789 88.5502 130.854 88.5919 130.928C88.6336 131.003 88.6605 131.085 88.671 131.171C89.353 134.802 90.3011 137.867 91.2307 141.263C93.1325 148.463 92.9514 150.377 94.4399 154.033C96.7761 159.644 101.255 161.231 104.508 160.062C109.453 158.304 111.167 151.667 111.537 146.276C111.949 140.532 110.94 134.996 110.94 126.653C110.936 126.542 110.958 126.432 111.003 126.332C111.048 126.232 111.115 126.144 111.199 126.076C111.283 126.007 111.382 125.96 111.486 125.939C111.591 125.918 111.699 125.922 111.802 125.952C112.78 126.339 113.245 126.49 115.105 127.299C115.227 127.355 115.325 127.458 115.376 127.586C115.428 127.714 115.431 127.858 115.383 127.988C115.336 128.118 115.242 128.224 115.121 128.285C115 128.345 114.862 128.356 114.734 128.314C113.329 127.855 112.716 127.682 112.361 127.561Z" fill="#003459"/>
<path d="M130.779 164.236C125.437 160.739 121.093 155.83 118.195 150.015C115.297 144.2 113.95 137.69 114.292 131.157C114.303 130.988 114.377 130.83 114.498 130.716C114.619 130.602 114.778 130.542 114.942 130.547C115.105 130.553 115.26 130.623 115.374 130.745C115.488 130.866 115.553 131.028 115.553 131.198C115.607 134.339 116.035 137.461 116.827 140.493C118.994 149.712 124.565 157.684 132.345 162.698C132.489 162.793 132.609 162.922 132.694 163.075C132.779 163.228 132.828 163.401 132.835 163.577C133.311 172.679 133.107 181.806 132.225 190.876C132.222 190.947 132.206 191.016 132.178 191.08C132.149 191.144 132.108 191.202 132.057 191.249C132.006 191.297 131.947 191.333 131.882 191.356C131.818 191.379 131.75 191.389 131.681 191.384C131.546 191.378 131.419 191.317 131.327 191.214C131.235 191.111 131.186 190.975 131.19 190.835C131.178 189.228 130.872 166.763 130.779 164.236Z" fill="#003459"/>
<path d="M58.4777 156.083C58.4564 155.943 58.3834 155.818 58.2742 155.734C58.1651 155.649 58.0285 155.612 57.8933 155.63C55.1561 155.875 52.3988 155.67 49.7231 155.025C38.5616 152.568 30.0447 143.491 23.4352 133.851C22.8919 133.054 21.3736 130.804 21.1556 130.482C22.5876 131.472 24.6931 132.703 26.1081 131.654C26.582 131.196 26.9299 130.617 27.1161 129.974C27.3023 129.332 27.3202 128.649 27.168 127.997C26.9113 125.857 26.3575 123.766 25.5238 121.79C25.0724 120.765 24.6224 119.978 24.4229 119.483C24.3834 119.348 24.2951 119.234 24.1764 119.165C24.0578 119.096 23.918 119.077 23.7861 119.112C23.7204 119.13 23.6589 119.162 23.6051 119.205C23.5514 119.248 23.5065 119.302 23.4732 119.364C23.4398 119.425 23.4186 119.493 23.4109 119.563C23.4032 119.633 23.409 119.704 23.4281 119.771C23.5272 120.643 23.6689 121.51 23.8526 122.367C24.1979 124.023 25.7756 129.527 24.9266 129.878C24.3352 130.184 21.7499 128.422 21.0014 127.763C21.0014 127.763 18.0441 125.373 17.8049 125.113C17.6905 124.988 17.5342 124.915 17.3686 124.907C17.203 124.899 17.0409 124.958 16.9163 125.072C16.4918 125.464 16.7833 125.804 17.0762 126.381C18.0823 128.344 19.0657 130.445 20.2727 132.505C24.6176 140.095 30.4453 146.661 37.3829 151.784C43.8211 156.253 50.5494 158.396 58.0419 156.701C58.1784 156.678 58.3007 156.6 58.3822 156.484C58.4638 156.369 58.4981 156.224 58.4777 156.083Z" fill="#003459"/>
<path d="M78.7377 129.741C78.6999 129.572 78.5993 129.425 78.4579 129.333C78.3164 129.241 78.1455 129.21 77.9821 129.247C70.8319 130.619 63.7535 132.365 56.7741 134.478C56.5281 134.551 56.318 134.717 56.1866 134.944C56.0551 135.171 56.0122 135.442 56.0666 135.7L56.0949 135.829C54.4879 135.697 52.8929 135.44 51.3235 135.059C47.7059 133.974 44.373 132.054 41.5756 129.443C41.0761 129.015 39.9681 128.125 39.3215 127.548C39.2675 127.482 39.2013 127.429 39.1269 127.39C39.0525 127.352 38.9713 127.329 38.8883 127.324C38.8053 127.319 38.7222 127.332 38.6439 127.361C38.5656 127.39 38.4938 127.435 38.4328 127.493C38.311 127.607 38.2372 127.766 38.2271 127.935C38.2171 128.105 38.2716 128.272 38.3791 128.4C39.0514 129.469 39.8342 130.459 40.7138 131.352C44.6857 135.174 51.1622 138.557 56.3595 137.077C58.2245 146.137 61.1705 165.002 61.3856 167.064C61.405 167.255 61.4734 167.437 61.5837 167.591C61.694 167.745 61.8421 167.866 62.0126 167.941C62.1832 168.015 62.37 168.041 62.5536 168.016C62.7372 167.991 62.9109 167.915 63.0567 167.797C66.0918 165.306 69.9789 162.357 73.1032 160.024C73.3239 164.045 73.3225 166.37 73.6069 170.557C73.6095 170.627 73.6255 170.697 73.6539 170.761C73.6824 170.825 73.7227 170.882 73.7726 170.93C73.8225 170.978 73.8811 171.015 73.9449 171.04C74.0088 171.064 74.0766 171.075 74.1446 171.073C74.2126 171.07 74.2795 171.053 74.3413 171.024C74.4031 170.995 74.4588 170.953 74.505 170.901C74.5513 170.849 74.5872 170.789 74.6109 170.723C74.6345 170.657 74.6453 170.586 74.6427 170.516C74.5012 164.722 74.954 164.656 74.8946 158.157C74.8854 157.981 74.8313 157.811 74.7376 157.664C74.644 157.516 74.5142 157.397 74.3616 157.319C74.209 157.241 74.039 157.206 73.8691 157.218C73.6992 157.23 73.5355 157.289 73.3947 157.388C70.2152 159.65 66.3508 162.438 63.2067 164.955C63.0538 163.604 59.914 143.954 58.2542 136.2C61.544 135.174 78.0981 130.563 78.2425 130.527C78.3256 130.511 78.4047 130.477 78.475 130.428C78.5453 130.379 78.6054 130.316 78.6516 130.243C78.6979 130.17 78.7293 130.087 78.7441 130.001C78.7589 129.915 78.7567 129.826 78.7377 129.741Z" fill="#003459"/>
<path d="M86.5612 181.142C84.941 180.895 75.4832 180.368 75.619 182.199C75.677 182.987 76.9689 182.979 78.4702 183.065C84.6354 183.065 84.5547 183.201 85.9117 183.147C86.6418 183.116 88.8832 182.932 88.8832 182.171C88.8818 181.581 87.8786 181.344 86.5612 181.142Z" fill="#003459"/>
<path d="M85.9173 186.641C85.7758 186.641 79.3192 186.556 78.0924 186.656C77.341 186.723 75.5978 186.893 75.6119 187.671C75.6275 188.497 77.2236 188.594 78.4504 188.675C81.1623 188.856 83.883 188.847 86.5937 188.647C90.2656 188.017 89.5992 186.641 85.9173 186.641Z" fill="#003459"/>
<path d="M70.9198 180.088C70.6568 180.089 70.4 180.171 70.1818 180.324C69.9637 180.476 69.7939 180.692 69.694 180.944C69.594 181.195 69.5683 181.472 69.6201 181.739C69.6718 182.007 69.7988 182.252 69.9849 182.444C70.171 182.637 70.408 182.768 70.666 182.821C70.924 182.875 71.1915 182.848 71.4347 182.744C71.678 182.64 71.8861 182.464 72.0329 182.238C72.1798 182.012 72.2587 181.746 72.2598 181.474C72.2606 181.291 72.2264 181.111 72.1593 180.942C72.0922 180.774 71.9936 180.62 71.869 180.492C71.7444 180.363 71.5963 180.261 71.4334 180.191C71.2705 180.122 71.0959 180.087 70.9198 180.088Z" fill="#003459"/>
<path d="M71.2495 186.162C70.9865 186.164 70.7298 186.246 70.5117 186.398C70.2936 186.55 70.1238 186.766 70.0238 187.017C69.9238 187.269 69.898 187.546 69.9497 187.813C70.0013 188.08 70.1281 188.325 70.3141 188.518C70.5001 188.711 70.737 188.842 70.9949 188.895C71.2528 188.949 71.5202 188.922 71.7634 188.819C72.0067 188.715 72.215 188.539 72.362 188.313C72.509 188.088 72.5881 187.822 72.5895 187.549C72.5905 187.367 72.5565 187.186 72.4895 187.017C72.4224 186.849 72.3238 186.695 72.1992 186.566C72.0745 186.437 71.9264 186.335 71.7634 186.266C71.6004 186.196 71.4258 186.161 71.2495 186.162Z" fill="#003459"/>
<path d="M97.5345 181.702C97.5345 182.068 97.3941 182.419 97.1441 182.678C96.8941 182.937 96.5551 183.082 96.2016 183.082C95.8481 183.082 95.509 182.937 95.2591 182.678C95.0091 182.419 94.8687 182.068 94.8687 181.702C94.8687 181.336 95.0091 180.985 95.2591 180.726C95.509 180.468 95.8481 180.322 96.2016 180.322C96.5551 180.322 96.8941 180.468 97.1441 180.726C97.3941 180.985 97.5345 181.336 97.5345 181.702Z" fill="#003459"/>
<path d="M115.719 180.57C114.032 180.419 112.336 180.428 110.652 180.596C101.429 181.15 100.725 180.728 100.625 181.621C100.53 182.483 102.323 182.723 103.676 182.899C106.144 182.993 108.616 182.933 111.078 182.72C111.969 182.663 114.71 182.53 115.606 182.418C117.971 182.142 118.191 182.005 118.218 181.594C118.257 180.927 116.706 180.706 115.719 180.57Z" fill="#003459"/>
<path d="M117.02 186.187C115.185 186.101 113.347 186.137 111.516 186.297C110.864 186.358 109.394 186.703 109.435 187.41C109.479 188.198 110.862 188.307 111.849 188.343C112.603 188.371 116.413 188.313 117.154 188.165C117.615 188.046 118.917 187.696 118.904 187.139C118.891 186.582 117.267 186.222 117.02 186.187Z" fill="#003459"/>
<path d="M163.957 162.642C163.14 162.518 162.314 162.471 161.488 162.502C161.535 161.577 161.219 155.831 161.205 155.68C160.961 151.632 159.274 152.114 159.216 155.406C159.177 157.811 159.302 160.216 159.588 162.604C159.058 162.65 158.532 162.727 158.01 162.834C157.337 163.052 156.171 163.42 156.273 164.111C156.374 164.802 158.173 164.844 158.474 164.811C158.964 164.811 159.606 164.691 161.657 164.665C162.254 164.65 162.851 164.665 163.461 164.637C163.989 164.602 165.609 164.375 165.663 163.758C165.719 163.172 164.165 162.691 163.957 162.642Z" fill="#003459"/>
<path d="M174.242 163.331C173.519 163.227 172.787 163.215 172.061 163.296C172.077 162.11 172.009 160.924 171.86 159.748C171.412 154.244 171.577 155.803 171.501 155.12C171.477 154.673 171.218 152.373 170.466 152.373C169.742 152.373 169.647 153.595 169.538 154.831C169.537 157.726 169.783 160.615 170.274 163.465C170.083 163.494 169.893 163.526 169.708 163.566C169.125 163.697 167.91 164.112 167.985 164.787C168.055 165.4 169.511 165.633 170.318 165.584C171.048 165.557 171.778 165.488 172.52 165.438C172.998 165.412 173.476 165.422 173.953 165.356C174.561 165.272 175.785 164.845 175.822 164.436C175.869 163.875 174.569 163.385 174.242 163.331Z" fill="#003459"/>
<path d="M177.352 168.002C177.344 167.744 177.245 167.497 177.074 167.309C176.904 167.12 176.672 167.002 176.424 166.977C173.331 166.537 170.185 166.728 167.164 167.541L167.189 166.754C167.199 166.492 167.115 166.235 166.954 166.032C166.792 165.83 166.564 165.696 166.313 165.657C162.668 165.447 159.011 165.567 155.385 166.013C155.146 166.062 154.931 166.196 154.776 166.391C154.621 166.586 154.536 166.831 154.536 167.084C154.594 170.16 154.638 173.237 154.71 176.313C153.38 176.337 152.222 176.372 150.852 176.411C151.123 173.476 151.199 170.525 151.077 167.579C152.402 167.13 153.526 166.202 154.243 164.964C154.959 163.725 155.22 162.261 154.977 160.84C154.879 160.041 154.737 159.248 154.552 158.465C154.543 158.324 154.481 158.192 154.38 158.097C154.278 158.002 154.145 157.952 154.009 157.957C153.94 157.958 153.872 157.974 153.81 158.003C153.748 158.033 153.692 158.075 153.646 158.128C153.6 158.181 153.564 158.243 153.542 158.31C153.52 158.377 153.512 158.449 153.518 158.519C153.438 159.233 153.332 159.984 153.213 160.743C153.044 162.579 152.657 164.432 151.122 165.26C151.322 163.036 151.246 160.794 150.897 158.59C150.895 158.504 150.876 158.42 150.842 158.342C150.808 158.264 150.759 158.193 150.699 158.135C150.638 158.076 150.568 158.03 150.49 158C150.413 157.97 150.33 157.955 150.248 157.958C150.165 157.959 150.084 157.977 150.009 158.011C149.933 158.045 149.865 158.094 149.808 158.155C149.751 158.216 149.707 158.289 149.677 158.368C149.648 158.448 149.634 158.532 149.636 158.617C149.312 160.793 149.12 162.988 149.062 165.188C148.263 164.164 147.859 162.869 147.93 161.555C147.858 160.663 147.797 159.81 147.797 159.064C147.811 158.977 147.808 158.888 147.788 158.802C147.768 158.716 147.731 158.635 147.679 158.565C147.628 158.494 147.563 158.435 147.489 158.391C147.415 158.347 147.333 158.319 147.248 158.309C147.163 158.299 147.077 158.307 146.996 158.333C146.914 158.358 146.838 158.401 146.773 158.458C146.707 158.515 146.654 158.585 146.616 158.664C146.577 158.743 146.555 158.83 146.55 158.918C146.358 159.658 146.212 160.41 146.113 161.17C145.785 163.749 146.587 166.821 149.007 167.56C148.997 168.968 148.998 170.376 149.022 171.772C148.982 173.337 149.048 174.904 149.222 176.46C146.567 176.545 143.296 176.666 140.819 176.731C141.131 173.69 141.222 170.63 141.093 167.576C142.414 167.121 143.534 166.191 144.251 164.955C144.967 163.719 145.233 162.258 144.999 160.837C144.92 160.014 144.716 159.225 144.575 158.462C144.564 158.319 144.5 158.186 144.396 158.091C144.292 157.996 144.156 157.947 144.017 157.954C143.88 157.961 143.752 158.025 143.66 158.13C143.568 158.236 143.52 158.374 143.526 158.516C143.447 159.23 143.341 159.981 143.235 160.74C142.986 162.55 142.772 164.379 141.136 165.257C141.338 163.032 141.258 160.79 140.899 158.587C140.899 158.501 140.882 158.417 140.85 158.338C140.818 158.26 140.77 158.189 140.711 158.13C140.651 158.071 140.581 158.025 140.504 157.995C140.426 157.965 140.344 157.952 140.262 157.955C140.18 157.956 140.099 157.974 140.024 158.008C139.948 158.042 139.88 158.091 139.824 158.153C139.767 158.214 139.722 158.286 139.693 158.366C139.664 158.445 139.65 158.53 139.652 158.615C139.326 160.789 139.134 162.984 139.078 165.184C138.286 164.156 137.887 162.864 137.955 161.552C137.889 160.658 137.824 159.807 137.814 159.061C137.834 158.89 137.789 158.717 137.687 158.58C137.585 158.443 137.436 158.353 137.271 158.329C137.103 158.312 136.936 158.362 136.805 158.47C136.673 158.577 136.586 158.734 136.563 158.906C135.829 161.045 135.89 163.39 136.736 165.484C136.958 165.974 137.276 166.411 137.67 166.766C138.065 167.122 138.526 167.389 139.025 167.55C139.017 168.957 139.025 170.365 139.042 171.76C138.994 173.429 139.073 175.099 139.277 176.756C137.824 176.786 136.348 176.807 134.84 176.807C134.697 176.804 134.555 176.832 134.423 176.89C134.292 176.949 134.174 177.035 134.077 177.144C133.981 177.253 133.908 177.383 133.863 177.523C133.819 177.664 133.804 177.813 133.819 177.96C134.055 182.33 134.527 186.683 135.234 190.998C135.256 191.138 135.328 191.265 135.437 191.351C135.545 191.438 135.681 191.479 135.817 191.466C135.884 191.459 135.95 191.438 136.009 191.404C136.068 191.371 136.12 191.326 136.162 191.271C136.204 191.216 136.235 191.154 136.254 191.086C136.272 191.019 136.277 190.949 136.269 190.88C136.099 187.51 136.366 184.473 135.936 178.918C144.271 178.918 147.32 178.544 154.682 178.396C154.648 181.949 154.79 185.502 155.107 189.04C155.114 189.206 155.183 189.362 155.299 189.476C155.415 189.591 155.57 189.655 155.73 189.655C155.89 189.655 156.045 189.591 156.161 189.476C156.277 189.362 156.346 189.206 156.353 189.04C156.782 182.027 156.868 174.997 156.609 167.976C157.741 167.853 164.327 167.624 165.071 167.674C164.655 183.99 165.133 183.549 165.213 186.939C165.213 187.082 165.268 187.219 165.364 187.322C165.461 187.424 165.592 187.484 165.731 187.488C165.869 187.489 166.002 187.433 166.101 187.333C166.2 187.233 166.257 187.097 166.26 186.954C166.882 178.493 166.746 179.97 167.109 168.943C169.842 168.76 172.585 168.782 175.316 169.009C175.764 183.855 175.551 180.106 176.19 185.856C176.197 185.995 176.255 186.126 176.353 186.222C176.451 186.318 176.58 186.372 176.714 186.372C176.849 186.372 176.978 186.318 177.076 186.222C177.173 186.126 177.232 185.995 177.239 185.856C177.775 181.06 177.796 181.973 177.352 168.002Z" fill="#003459"/>
<path d="M49.6212 64.6927C49.6212 65.5156 49.937 66.3049 50.499 66.8868C51.061 67.4687 51.8233 67.7956 52.6182 67.7956C53.413 67.7956 54.1753 67.4687 54.7374 66.8868C55.2994 66.3049 55.6152 65.5156 55.6152 64.6927C55.6152 63.8698 55.2994 63.0806 54.7374 62.4987C54.1753 61.9167 53.413 61.5898 52.6182 61.5898C51.8233 61.5898 51.061 61.9167 50.499 62.4987C49.937 63.0806 49.6212 63.8698 49.6212 64.6927Z" fill="#003459"/>
<path d="M52.6181 60.9355C52.1112 60.8848 51.5996 60.9445 51.1162 61.1105C50.6328 61.2766 50.1882 61.5454 49.8111 61.8998C49.4339 62.2541 49.1324 62.6862 48.926 63.1683C48.7195 63.6503 48.6127 64.1717 48.6123 64.699C48.6023 65.2501 48.6985 65.7978 48.8953 66.31C49.092 66.8221 49.3855 67.2885 49.7584 67.682C50.1313 68.0754 50.5762 68.3879 51.0671 68.6012C51.558 68.8145 52.085 68.9244 52.6174 68.9244C53.1498 68.9244 53.6769 68.8145 54.1678 68.6012C54.6587 68.3879 55.1036 68.0754 55.4765 67.682C55.8494 67.2885 56.1428 66.8221 56.3396 66.31C56.5364 65.7978 56.6326 65.2501 56.6226 64.699C56.5448 62.4371 55.2416 61.0058 52.6181 60.9355ZM52.6181 62.2408C53.1724 62.3507 53.6731 62.6553 54.0356 63.1032C54.3981 63.5511 54.6001 64.1148 54.6076 64.699C54.6076 65.243 54.3989 65.7647 54.0274 66.1493C53.6559 66.5339 53.152 66.75 52.6266 66.75C52.1012 66.75 51.5974 66.5339 51.2259 66.1493C50.8543 65.7647 50.6456 65.243 50.6456 64.699C50.6354 64.1126 50.829 63.5418 51.191 63.0907C51.553 62.6395 52.0594 62.3379 52.6181 62.2408Z" fill="#003459"/>
<path d="M59.2758 64.3314C59.2758 65.1543 59.5915 65.9435 60.1536 66.5254C60.7156 67.1073 61.4779 67.4343 62.2727 67.4343C63.0676 67.4343 63.8299 67.1073 64.3919 66.5254C64.9539 65.9435 65.2697 65.1543 65.2697 64.3314C65.2697 63.5085 64.9539 62.7192 64.3919 62.1373C63.8299 61.5554 63.0676 61.2285 62.2727 61.2285C61.4779 61.2285 60.7156 61.5554 60.1536 62.1373C59.5915 62.7192 59.2758 63.5085 59.2758 64.3314Z" fill="#003459"/>
<path d="M62.2727 60.573C61.7659 60.5226 61.2545 60.5824 60.7713 60.7484C60.2881 60.9145 59.8437 61.1832 59.4666 61.5374C59.0895 61.8915 58.788 62.3233 58.5814 62.8051C58.3748 63.2869 58.2677 63.808 58.2668 64.3351C58.2668 64.8798 58.3705 65.4191 58.5718 65.9223C58.7731 66.4255 59.0682 66.8827 59.4401 67.2678C59.8121 67.6529 60.2537 67.9584 60.7397 68.1668C61.2257 68.3753 61.7466 68.4825 62.2727 68.4825C62.7988 68.4825 63.3197 68.3753 63.8057 68.1668C64.2917 67.9584 64.7333 67.6529 65.1053 67.2678C65.4773 66.8827 65.7723 66.4255 65.9736 65.9223C66.175 65.4191 66.2786 64.8798 66.2786 64.3351C66.1993 62.0746 64.8961 60.6506 62.2727 60.573ZM62.2727 61.8783C62.827 61.9877 63.3278 62.292 63.6903 62.7396C64.0529 63.1873 64.2549 63.751 64.2622 64.3351C64.2622 64.8791 64.0535 65.4008 63.682 65.7854C63.3105 66.17 62.8066 66.3861 62.2812 66.3861C61.7558 66.3861 61.2519 66.17 60.8804 65.7854C60.5089 65.4008 60.3002 64.8791 60.3002 64.3351C60.2901 63.7488 60.4836 63.1783 60.8457 62.7274C61.2077 62.2764 61.7141 61.9751 62.2727 61.8783Z" fill="#003459"/>
<path d="M69.5869 64.3314C69.5869 65.1543 69.9027 65.9435 70.4647 66.5254C71.0267 67.1073 71.789 67.4343 72.5839 67.4343C73.3787 67.4343 74.141 67.1073 74.7031 66.5254C75.2651 65.9435 75.5809 65.1543 75.5809 64.3314C75.5809 63.5085 75.2651 62.7192 74.7031 62.1373C74.141 61.5554 73.3787 61.2285 72.5839 61.2285C71.789 61.2285 71.0267 61.5554 70.4647 62.1373C69.9027 62.7192 69.5869 63.5085 69.5869 64.3314Z" fill="#003459"/>
<path d="M72.5895 60.573C72.0827 60.5226 71.5713 60.5824 71.0881 60.7484C70.6049 60.9145 70.1605 61.1832 69.7834 61.5374C69.4063 61.8915 69.1048 62.3233 68.8982 62.8051C68.6916 63.2869 68.5844 63.808 68.5836 64.3351C68.5836 65.4351 69.0057 66.49 69.7569 67.2678C70.5082 68.0456 71.5271 68.4825 72.5895 68.4825C73.6519 68.4825 74.6708 68.0456 75.4221 67.2678C76.1733 66.49 76.5953 65.4351 76.5953 64.3351C76.5104 62.0746 75.2086 60.6506 72.5895 60.573ZM72.5895 61.8783C73.1422 61.9895 73.6411 62.2945 74.0019 62.742C74.3628 63.1896 74.5636 63.7522 74.5705 64.3351C74.5705 64.8791 74.3618 65.4008 73.9903 65.7854C73.6188 66.17 73.1149 66.3861 72.5895 66.3861C72.0641 66.3861 71.5602 66.17 71.1887 65.7854C70.8172 65.4008 70.6085 64.8791 70.6085 64.3351C70.5987 63.7476 70.7934 63.176 71.1572 62.7248C71.5209 62.2737 72.0293 61.9732 72.5895 61.8783Z" fill="#003459"/>
<path d="M105.995 72.0895C117.496 72.236 149.718 69.6986 161.553 69.2606C161.687 69.2579 161.814 69.2022 161.908 69.1049C162.003 69.0076 162.058 68.8764 162.061 68.7384C162.064 68.6005 162.016 68.4665 161.927 68.3643C161.837 68.2621 161.713 68.1995 161.58 68.1897C145.486 66.9327 119.248 69.9257 105.971 70.7857C105.888 70.7875 105.806 70.8065 105.73 70.8415C105.655 70.8765 105.586 70.9267 105.529 70.9893C105.473 71.0519 105.429 71.1256 105.4 71.2061C105.371 71.2866 105.357 71.3723 105.361 71.4581C105.367 71.6278 105.437 71.7884 105.555 71.9062C105.673 72.0239 105.831 72.0896 105.995 72.0895Z" fill="#003459"/>
<path d="M127.491 171.907C103.809 171.509 85.0245 173.045 77.109 173.11C78.9996 170.735 80.6364 168.155 81.9907 165.416C87.2602 154.469 89.1337 139.964 82.6813 129.41C83.9222 128.911 85.2185 128.575 86.54 128.408C86.7032 128.391 86.8531 128.308 86.9575 128.177C87.0618 128.046 87.1121 127.877 87.0975 127.708C87.081 127.538 87.001 127.382 86.8746 127.272C86.7482 127.163 86.5854 127.109 86.4211 127.122C84.5622 127.118 82.72 127.486 80.996 128.206C80.882 128.263 80.7807 128.343 80.6986 128.443C80.6165 128.542 80.5553 128.658 80.5191 128.783C80.3451 129.639 80.921 129.327 82.5879 133.575C87.6607 146.387 82.8864 161.485 75.7449 173.122C71.8707 173.129 67.9964 173.054 63.8292 173.34C63.5705 173.362 63.3302 173.487 63.1593 173.69C62.9884 173.892 62.9003 174.156 62.9137 174.424C63.3028 182.826 63.675 186.671 64.1165 193.942C57.3132 193.503 50.9952 193.598 47.0077 188.463C40.752 180.48 41.434 167.66 41.7029 156.866C41.7091 156.694 41.6502 156.526 41.5387 156.398C41.4272 156.27 41.2719 156.192 41.1057 156.18C41.0229 156.175 40.9399 156.187 40.8616 156.216C40.7832 156.244 40.7112 156.288 40.6495 156.346C40.5879 156.403 40.5379 156.473 40.5026 156.551C40.4672 156.628 40.4471 156.713 40.4435 156.799C40.1096 162.817 39.146 169.398 40.3232 177.067C40.9195 181.7 42.6702 186.092 45.4031 189.812C49.7684 195.445 56.1571 195.543 62.5798 195.992C75.0503 196.919 87.5791 196.561 99.9811 194.921C100.117 194.905 100.241 194.834 100.328 194.725C100.414 194.616 100.456 194.476 100.445 194.335C100.44 194.265 100.421 194.197 100.39 194.136C100.359 194.074 100.316 194.019 100.264 193.974C100.213 193.929 100.153 193.896 100.088 193.875C100.024 193.854 99.9562 193.847 99.8891 193.854C98.034 193.982 96.162 193.991 94.3055 194.059C84.2081 194.352 74.6526 194.552 65.4027 194.027C65.3744 191.472 64.9782 177.033 64.9301 175.351C70.317 175.089 76.2204 175.385 81.6809 175.132C96.3969 174.444 111.755 173.586 126.457 173.938C126.344 183.9 126.865 185.836 127.002 192.586C127.003 192.657 127.017 192.727 127.044 192.792C127.072 192.858 127.111 192.917 127.16 192.967C127.21 193.016 127.268 193.055 127.332 193.082C127.396 193.108 127.464 193.121 127.533 193.12C127.6 193.12 127.666 193.106 127.728 193.079C127.79 193.051 127.846 193.012 127.892 192.962C127.939 192.912 127.976 192.853 128.001 192.789C128.026 192.724 128.038 192.655 128.036 192.586C128.116 188.645 128.319 175.592 128.448 172.977C128.455 172.841 128.435 172.705 128.391 172.577C128.346 172.45 128.277 172.332 128.188 172.233C128.099 172.133 127.991 172.053 127.872 171.997C127.752 171.941 127.623 171.91 127.491 171.907Z" fill="#003459"/>
<path d="M129.018 194.296C140.422 195.891 149.353 194.536 161.87 194.131C171.156 193.773 170.735 194.334 182.76 193.444C182.9 193.438 183.032 193.376 183.129 193.271C183.225 193.166 183.279 193.027 183.278 192.882C183.277 192.811 183.263 192.741 183.236 192.676C183.208 192.612 183.169 192.553 183.119 192.504C183.07 192.455 183.011 192.417 182.948 192.392C182.884 192.368 182.816 192.356 182.747 192.359C180.652 192.277 178.569 192.126 176.473 192.031C162.121 191.464 153.709 192.583 142.148 192.923C139.519 193.006 132.471 193.14 129.13 192.992C128.967 192.985 128.808 193.043 128.686 193.155C128.564 193.267 128.488 193.423 128.474 193.591C128.46 193.759 128.51 193.926 128.612 194.058C128.715 194.189 128.862 194.274 129.024 194.296H129.018Z" fill="#003459"/>
<path d="M163.451 54.5564C130.348 53.0064 107.096 54.7659 75.5681 54.4099C68.0451 54.2831 60.5213 54.6059 53.0342 55.3768C49.1982 55.7899 45.2772 56.6074 43.1533 59.908C41.9709 61.8623 41.2527 64.0788 41.0577 66.376C40.5822 70.5278 43.2311 102.455 41.468 126.563C41.4542 126.733 41.506 126.902 41.6119 127.033C41.7179 127.164 41.8696 127.247 42.034 127.263C42.2003 127.278 42.3659 127.226 42.4951 127.116C42.6243 127.007 42.7067 126.849 42.7245 126.677C43.1773 122.018 43.4773 117.326 43.6584 112.626C44.481 114.891 46.1078 116.746 48.2066 117.812C50.3054 118.878 52.7179 119.074 54.9515 118.36C58.6421 116.932 61.6966 114.149 63.5335 110.54C65.0136 116.735 72.8428 119.695 78.6514 116.901C79.7187 116.395 80.6792 115.676 81.478 114.785C82.2768 113.895 82.8982 112.85 83.3067 111.71C83.3683 111.585 83.3791 111.439 83.337 111.305C83.2948 111.172 83.203 111.061 83.0817 110.997C82.9605 110.933 82.8198 110.922 82.6906 110.966C82.5614 111.009 82.4542 111.104 82.3926 111.23C81.2567 112.912 79.6789 114.221 77.8462 115.002C76.1182 115.76 74.22 116.002 72.3661 115.701C70.5122 115.401 68.7762 114.57 67.354 113.303C65.8891 111.935 64.9208 110.09 64.6103 108.073C64.6656 107.946 64.6713 107.802 64.6264 107.671C64.5815 107.541 64.4893 107.433 64.3693 107.371C64.2493 107.308 64.1107 107.297 63.9826 107.338C63.8545 107.38 63.7468 107.471 63.6821 107.592C62.6998 109.089 61.5994 110.5 60.3922 111.809C58.7735 113.818 56.6901 115.37 54.336 116.321C50.732 117.529 47.6756 115.735 45.621 112.378C44.9645 111.3 44.3645 110.149 43.7815 109.05C44.0391 98.8448 43.7815 90.1515 43.64 81.3952C43.5905 79.0878 43.282 76.4142 43.0882 73.6878C43.2297 73.6995 65.4565 73.8973 93.5626 72.0397C93.7015 72.0379 93.834 71.9792 93.931 71.8763C94.028 71.7734 94.0815 71.6348 94.0798 71.491C94.0781 71.3473 94.0214 71.2101 93.922 71.1097C93.8226 71.0093 93.6888 70.9538 93.5499 70.9556C90.5544 70.8838 43.4377 72.2843 43.0019 72.2975C42.808 68.5515 42.8773 64.1975 44.8739 61.0859C46.5549 58.424 50.2212 57.8292 53.2422 57.4878C60.6556 56.7421 68.1038 56.4306 75.5511 56.5546C99.7236 56.7802 152.974 55.3328 163.423 55.62C163.492 55.6233 163.56 55.6124 163.625 55.5879C163.69 55.5634 163.749 55.5257 163.8 55.4772C163.851 55.4286 163.891 55.3701 163.92 55.3051C163.948 55.2401 163.964 55.1698 163.966 55.0984C163.964 54.9567 163.91 54.8212 163.814 54.7202C163.718 54.6192 163.588 54.5605 163.451 54.5564Z" fill="#003459"/>
<path d="M134.927 104.789C134.813 104.711 134.674 104.682 134.54 104.709C134.406 104.737 134.288 104.818 134.211 104.935C132.719 106.626 131.036 108.124 129.198 109.398C127.477 110.6 125.506 111.365 123.446 111.63C121.386 111.895 119.294 111.653 117.342 110.923C115.332 110.058 113.504 108.799 111.956 107.215C111.861 107.121 111.759 107.036 111.649 106.96C111.164 106.667 110.052 107.678 109.858 107.893C109.546 108.243 109.269 108.602 108.969 108.938C107.946 110.085 107.475 110.385 107.298 110.599C107.157 110.705 106.057 111.809 106.37 112.357C106.661 112.936 107.677 112.577 108.267 112.342C109.611 111.459 110.74 110.268 111.569 108.862C115.973 114.811 124.182 115.354 130.286 111.143C132.36 109.773 134.019 107.826 135.073 105.526C135.11 105.468 135.136 105.402 135.149 105.334C135.162 105.265 135.161 105.195 135.148 105.126C135.134 105.058 135.108 104.993 135.07 104.935C135.032 104.877 134.984 104.827 134.927 104.789Z" fill="#003459"/>
<path d="M151.671 106.66C151.656 106.591 151.627 106.527 151.587 106.469C151.548 106.412 151.498 106.364 151.44 106.327C151.382 106.29 151.318 106.265 151.25 106.254C151.183 106.242 151.115 106.245 151.048 106.261C150.501 106.283 149.041 106.233 148.661 106.233C145.054 106.427 141.51 105.2 138.739 102.801C138.272 102.444 137.399 101.806 136.856 101.317C136.743 101.191 136.588 101.115 136.422 101.105C136.257 101.095 136.094 101.151 135.967 101.263C135.845 101.377 135.772 101.535 135.762 101.705C135.752 101.875 135.807 102.042 135.915 102.17C136.359 102.94 136.889 103.654 137.493 104.297C138.999 105.748 140.79 106.845 142.744 107.514C144.698 108.182 146.768 108.406 148.813 108.17C149.671 107.991 150.505 107.7 151.293 107.304C151.425 107.27 151.539 107.183 151.61 107.062C151.68 106.942 151.702 106.797 151.671 106.66Z" fill="#003459"/>
<path d="M200.946 91.9245C201.12 84.1117 203.252 64.8909 198.116 58.8712C195.361 55.9029 191.683 54.0355 187.729 53.5972C182.079 52.705 175.753 53.6104 170.858 53.9678C170.776 53.9724 170.694 53.9937 170.62 54.0307C170.545 54.0677 170.478 54.1195 170.422 54.1833C170.31 54.3122 170.252 54.4818 170.261 54.6549C170.27 54.828 170.345 54.9904 170.469 55.1063C170.594 55.2223 170.758 55.2823 170.925 55.2732C179.405 54.9333 190.984 53.5152 196.63 60.2307C198.009 61.8627 198.714 64.7722 199.095 68.1739C191.932 67.7799 182.552 68.0582 173.562 68.2706C173.48 68.2679 173.397 68.2821 173.32 68.3124C173.243 68.3427 173.172 68.3884 173.111 68.4471C173.051 68.5057 173.003 68.5761 172.968 68.6541C172.934 68.7322 172.916 68.8164 172.913 68.9021C172.91 68.9877 172.924 69.073 172.953 69.1531C172.983 69.2332 173.027 69.3066 173.083 69.369C173.14 69.4315 173.208 69.4818 173.283 69.517C173.359 69.5523 173.44 69.5718 173.523 69.5745C179.262 70.3744 194.148 70.2425 199.262 69.9393C199.881 77.7463 198.986 87.3493 198.871 91.882C198.784 95.691 198.749 99.5 198.765 103.309C195.808 105.722 192.853 107.095 189.235 106.282C185.909 105.324 182.9 103.44 180.536 100.836C180.493 100.284 180.362 99.8179 180.046 99.7637C179.517 99.6758 178.722 101.828 178.668 101.974C178.247 103.305 177.629 104.561 176.837 105.696C175.5 107.183 173.777 108.239 171.874 108.737C172.683 105.148 173.066 101.471 173.015 97.786C173.02 97.7009 173.008 97.6156 172.98 97.5353C172.953 97.4549 172.91 97.3811 172.854 97.3183C172.798 97.2555 172.731 97.2048 172.656 97.1694C172.581 97.134 172.5 97.1145 172.418 97.1121C172.336 97.1084 172.254 97.1214 172.177 97.1505C172.1 97.1796 172.029 97.2241 171.969 97.2815C171.909 97.339 171.86 97.4082 171.825 97.4852C171.791 97.5622 171.772 97.6455 171.768 97.7303C171.495 100.324 171.087 102.9 170.547 105.448C168.594 115.603 164.155 125.069 157.655 132.939C154.875 136.276 151.693 139.23 148.186 141.729C148.066 141.799 147.978 141.915 147.941 142.052C147.903 142.19 147.92 142.336 147.986 142.461C148.054 142.586 148.165 142.678 148.297 142.719C148.429 142.76 148.571 142.747 148.694 142.681C152.69 140.649 156.253 137.81 159.172 134.33C165.091 127.356 169.338 119.035 171.567 110.042C175.231 110.561 179.036 108.037 180.359 103.082C182.56 105.737 185.522 107.596 188.815 108.387C190.591 108.836 192.452 108.785 194.203 108.24C195.955 107.696 197.534 106.676 198.778 105.288C198.892 124.31 200.422 157.915 199.804 176.738C199.799 176.88 199.848 177.019 199.942 177.125C200.035 177.23 200.164 177.293 200.302 177.3C200.44 177.307 200.575 177.258 200.678 177.163C200.781 177.068 200.843 176.934 200.852 176.792C203.086 146.509 200.231 122.312 200.946 91.9245Z" fill="#003459"/>
</svg>
