<svg width="250" height="243" viewBox="0 0 250 243" fill="none" xmlns="http://www.w3.org/2000/svg">
<path d="M42.9504 40.6494C55.501 6.26555 80.165 -0.00900548 93.9304 9.69264e-06C133.697 0.00902486 149.053 13.4146 174.6 43.5703C198.556 71.8509 215.651 67.5868 229.408 78.441C251.835 96.1468 264.577 157.27 221.131 194.647C159.541 247.647 119.975 250.865 66.7492 233.754C30.8544 222.215 0.771584 190.68 0.0461703 155.764C-1.35222 88.3036 29.3773 77.837 42.9504 40.6494Z" fill="#F9C846"/>
<path d="M92 39C92.2711 38.9916 92.5253 38.9353 92.711 38.8424C92.8967 38.7496 93 38.6272 93 38.5C93 38.3728 92.8967 38.2504 92.711 38.1576C92.5253 38.0647 92.2711 38.0084 92 38C91.7289 38.0084 91.4747 38.0647 91.289 38.1576C91.1033 38.2504 91 38.3728 91 38.5C91 38.6272 91.1033 38.7496 91.289 38.8424C91.4747 38.9353 91.7289 38.9916 92 39Z" fill="#003459"/>
<path d="M181.985 59.6946C181.604 65.1439 177.655 64.8394 177.056 65.23C174.809 64.81 168.128 57.0602 168.019 57.0602C167.226 54.4324 167.147 51.6473 167.792 48.9807C167.81 48.9095 167.798 48.8343 167.76 48.7715C167.741 48.7404 167.715 48.7133 167.686 48.6917C167.656 48.6701 167.622 48.6545 167.586 48.6457C167.513 48.6281 167.436 48.6394 167.372 48.6772C167.308 48.715 167.261 48.7762 167.243 48.8473C166.384 51.2492 166.143 53.821 166.541 56.3356C166.939 58.8501 167.964 61.2302 169.526 63.2655C170.966 65.1951 172.86 66.757 175.048 67.8192C174.762 68.3099 174.409 68.7602 173.999 69.158C170.903 71.8396 169.65 67.3258 168.751 66.5687C166.837 64.9581 163.16 66.9436 161.585 65.0064C161.306 64.5723 161.122 64.0867 161.043 63.5798C160.965 63.0729 160.993 62.5557 161.128 62.0602C161.995 56.8261 164.144 55.8653 163.501 53.757C163.033 52.8051 162.639 51.8202 162.321 50.8108C162.155 49.7506 162.241 48.6673 162.574 47.6452C162.906 46.6231 163.475 45.6899 164.237 44.9184C167.066 42.1506 173.949 42.0635 174.916 46.7484C175.414 49.1634 173.121 52.2545 175.099 54.3376C177.357 56.7211 182.307 55.0968 181.985 59.6946Z" fill="#003459"/>
<path d="M204.851 47.3977C203.579 49.2124 201.399 50.6396 201.203 52.8439C201.074 54.3007 202.955 57.7395 198.618 60.0433C197.139 60.7414 195.504 61.0665 193.863 60.9887C195.217 58.2574 196.076 55.318 196.402 52.3007C197.568 43.7504 191.177 33.2223 197.695 25.879C198.059 25.4682 197.467 24.8467 197.049 25.2437C190.584 31.4564 194.925 40.4133 195.294 48.1124C194.86 48.3241 194.483 54.0106 191 59.5012C190.173 58.7935 189.401 58.0259 188.692 57.2048C187.164 55.4049 186.07 52.6671 187.584 50.8132C188.793 49.331 191.138 49.1923 192.339 47.7524C192.798 47.0973 193.047 46.3244 193.056 45.5312C193.064 44.738 192.831 43.9603 192.386 43.2962C191.461 41.9969 190.245 40.9195 188.831 40.1454C178.394 33.5865 192.729 32.3542 191.462 26.9112C191.17 26.1713 190.831 25.4499 190.447 24.7514C190.146 23.8592 190.155 22.8955 190.473 22.0088C190.79 21.1222 191.397 20.3619 192.201 19.8452C193.026 19.3522 193.964 19.0653 194.93 19.0099C195.896 18.9545 196.861 19.1323 197.739 19.5276C199.344 20.3003 200.599 21.6237 201.264 23.2436C201.929 24.8636 201.956 26.666 201.341 28.3045C200.875 29.4289 200.075 30.4114 199.541 31.5464C197.818 35.1979 200.683 36.0862 202.541 37.1725C204.213 38.2508 205.388 39.9208 205.819 41.8292C206.25 43.7376 205.903 45.7346 204.851 47.3977Z" fill="#003459"/>
<path d="M183.991 155.294C183.207 151.646 181.77 148.143 179.737 144.926C177.981 141.876 176.257 138.591 173.549 136.109C169.001 131.941 162.043 129.596 155.662 129.242C155.662 119.122 155.372 121.512 155.372 119.938C155.372 119.981 158.897 118.564 159.238 118.387C163.637 116.083 165.17 111.821 165.909 107.487C166.819 102.136 166.505 98.6135 162.332 94.9483C160.554 95.1278 158.756 94.8337 157.156 94.1011C156.578 93.8312 157.009 93.0454 157.591 93.1704C159.566 93.5956 161.753 93.9302 163.537 92.9047C168.82 89.8669 166.827 83.7746 162.764 80.7649C160.01 78.7244 157.874 77.0706 154.207 78.5942C150.621 80.0834 145.577 85.6984 148.408 89.449C149.154 90.2816 150.096 90.9483 151.163 91.3988C151.597 91.6218 151.454 92.4566 150.873 92.3732C149.686 92.2416 148.577 91.76 147.714 91.0009C146.85 90.2417 146.28 89.2462 146.087 88.164C139.367 85.7275 132.903 93.7134 131.729 98.9303C131.504 99.9524 131.487 101.004 131.68 102.032C131.828 102.829 132.704 104.026 132.55 104.735C131.698 108.814 130.921 113.454 133.711 117.097C135.946 120.015 140.005 120.855 143.622 120.065C143.781 120.034 143.921 119.947 144.012 119.823C144.102 119.698 144.136 119.547 144.105 119.4C145.061 119.933 146.134 120.266 147.247 120.375C149.578 120.715 151.958 120.64 154.257 120.153C153.916 123.166 153.967 126.312 153.916 129.369C152.615 129.984 151.172 130.303 149.709 130.299C148.645 130.299 146.32 130.082 145.502 129.236C144.063 127.75 145.578 125.369 144.293 121.084C144.264 120.992 144.2 120.912 144.113 120.858C144.026 120.805 143.921 120.781 143.817 120.792C143.712 120.802 143.616 120.846 143.543 120.916C143.471 120.986 143.428 121.077 143.422 121.172C143.447 123.257 143.422 125.293 143.278 127.375C134.334 125.515 124.664 130.211 118.573 136.233C117 136.233 109.939 139.234 107.599 140.133C97.5219 144.007 89.4883 148.059 81.2511 155.286C78.3618 157.821 75.1108 160.382 73.3233 163.704C71.1981 167.648 71.9099 173.187 71.6791 177.483C71.1207 187.894 70.9786 198.352 71.0025 208.808C71.0025 210.325 72.2442 210.287 72.2601 209.296C72.4773 195.557 73.1016 181.825 73.5166 168.09C73.6178 164.723 75.2086 162.95 77.5294 160.514C85.6892 151.959 97.3445 145.268 108.715 141.329C110.362 140.759 115.483 139.956 116.448 138.759C109.292 147.576 107.019 159.819 108.858 170.483C108.95 171.015 109.881 170.882 109.873 170.35C109.8 160.026 110.328 149.629 116.785 140.753C119.752 136.678 123.793 133.356 128.534 131.095C131.195 129.845 134.074 129.033 137.042 128.698C138.54 132.907 143.282 136.037 147.919 136.894C155.494 138.294 162.979 133.284 162.665 131.843C166.381 132.796 169.773 134.595 172.527 137.071C177.56 141.852 180.441 149.245 182.582 155.413C182.834 156.128 184.118 156.044 183.991 155.294ZM133.906 114.704C132.461 111.733 132.939 108.545 133.373 105.444C134.696 106.646 136.194 107.676 137.825 108.502C140.204 109.425 141.919 107.385 143.191 108.325C144.635 109.395 144.129 112.192 143.191 113.375C142.719 113.896 142.283 114.444 141.886 115.015C141.962 116.393 142.484 117.719 143.384 118.826C139.32 118.78 135.799 118.599 133.906 114.704ZM161.363 131.541C159.678 133.209 157.549 134.45 155.186 135.141C152.822 135.832 150.303 135.95 147.875 135.484C143.425 134.559 140.72 131.85 138.254 128.572C139.946 128.439 141.638 128.394 143.379 128.394C143.392 128.886 143.558 129.364 143.858 129.773C144.158 130.181 144.578 130.502 145.071 130.699C149.733 133.117 155.707 130.972 155.707 130.211C157.64 130.61 159.525 131.009 161.363 131.541Z" fill="#003459"/>
<path d="M121.996 176.097C111.886 182.228 99.8499 175.718 105.817 158.396C105.952 158.001 105.302 157.83 105.156 158.222C102.962 164.086 101.203 171.685 106.377 176.664C108.509 178.725 111.436 179.923 114.521 179.996C117.605 180.07 120.595 179.013 122.839 177.056C122.941 176.944 122.998 176.803 123 176.656C123.002 176.509 122.948 176.367 122.848 176.253C122.748 176.139 122.608 176.062 122.452 176.033C122.297 176.005 122.135 176.027 121.996 176.097Z" fill="#003459"/>
<path d="M182.097 144.746C184.83 148.33 187.337 151.988 188.14 156.413C189.015 161.196 187.833 166.973 182.564 168.836C181.957 169.046 182.008 170.05 182.751 169.998C190.969 169.422 193.673 153.855 182.983 144.124C182.512 143.763 181.724 144.256 182.097 144.746Z" fill="#003459"/>
<path d="M200.477 93.1726C210.974 95.6362 220.946 99.596 230.001 104.896C230.754 105.332 231.397 104.28 230.704 103.883C221.488 98.6383 211.436 94.6419 200.881 92.0271C200.709 91.9798 200.523 91.9948 200.363 92.0688C200.204 92.1428 200.084 92.2697 200.031 92.4216C199.977 92.5735 199.994 92.7379 200.078 92.8788C200.162 93.0196 200.305 93.1253 200.477 93.1726Z" fill="#003459"/>
<path d="M185.901 140.367C193.909 145.014 204.601 143.15 211.536 137.588C224.601 127.11 226.232 97.6583 202.959 99.0475C192.455 99.6747 184.118 106.622 180.216 115.36C178.794 114.973 177.304 114.852 175.831 115.002C174.723 115.095 174.723 116.705 175.831 116.616C179.177 116.616 177.155 124.205 177.084 125.354C176.703 131.419 180.51 137.24 185.901 140.367ZM181.468 116.44C185.266 106.506 197.274 98.2854 208.837 100.98C222.282 104.111 221.5 120.649 216.257 129.756C210.659 139.475 196.517 145.69 185.853 138.715C183.264 137.061 181.223 134.765 179.963 132.088C178.703 129.411 178.273 126.46 178.722 123.567C179.119 121.06 179.686 118.28 178.042 116.532C178.875 116.583 179.699 116.718 180.501 116.935C180.7 116.985 180.912 116.96 181.092 116.867C181.272 116.774 181.406 116.619 181.465 116.435L181.468 116.44Z" fill="#003459"/>
<path d="M186.504 116.991C193.809 115.883 200.943 114.105 207.778 111.689C208.258 111.524 207.875 110.933 207.437 111.006C200.148 112.17 193.032 113.988 186.213 116.429C185.782 116.59 186.071 117.071 186.504 116.991Z" fill="#003459"/>
<path d="M207.387 119.011C200.886 119.996 194.507 121.431 188.324 123.3C188.211 123.326 188.116 123.387 188.058 123.467C188 123.548 187.985 123.644 188.015 123.734C188.045 123.824 188.118 123.901 188.219 123.949C188.32 123.997 188.44 124.012 188.555 123.991C195.044 122.998 201.42 121.588 207.618 119.774C207.682 119.762 207.742 119.741 207.794 119.71C207.847 119.68 207.892 119.642 207.926 119.598C207.961 119.554 207.983 119.505 207.994 119.454C208.004 119.404 208.002 119.352 207.986 119.301C207.971 119.251 207.944 119.204 207.905 119.162C207.867 119.121 207.819 119.085 207.763 119.058C207.708 119.031 207.646 119.013 207.581 119.005C207.517 118.997 207.451 118.999 207.387 119.011Z" fill="#003459"/>
<path d="M186.514 133.987C189.48 133.132 192.42 132.169 195.452 131.368C198.425 130.582 201.553 130.085 204.53 129.136C204.693 129.096 204.832 128.998 204.916 128.865C205 128.732 205.022 128.575 204.978 128.427C204.934 128.279 204.826 128.153 204.68 128.076C204.533 128 204.359 127.98 204.196 128.02C197.939 128.912 191.875 130.694 186.228 133.3C186.137 133.34 186.066 133.41 186.029 133.495C185.991 133.581 185.99 133.676 186.026 133.762C186.062 133.848 186.132 133.918 186.222 133.96C186.312 134.002 186.417 134.011 186.514 133.987Z" fill="#003459"/>
<path d="M230.382 144.008C220.646 145.389 210.845 146.627 201.175 148.344C200.93 147.53 199.805 147.083 198.977 146.673C197.263 145.823 195.457 145.053 193.702 144.324C193.164 144.1 192.721 144.782 193.214 145.047C200.997 149.219 199.627 149.473 200.394 149.473C199.661 164.059 199.827 178.88 200.589 193.458C200.589 193.602 200.651 193.74 200.76 193.841C200.87 193.943 201.019 194 201.175 194C201.33 194 201.479 193.943 201.589 193.841C201.699 193.74 201.761 193.602 201.761 193.458C201.071 178.836 201.565 164.195 201.322 149.517C210.943 147.801 220.614 146.356 230.333 145.183C231.212 145.137 231.216 143.89 230.382 144.008Z" fill="#003459"/>
<path d="M228.105 125.579C221.353 122.551 227.486 108.979 229.152 105.559C220.481 100.331 211.015 96.3509 201.072 93.7521C200.967 93.7254 200.87 93.6733 200.793 93.601C200.715 93.5288 200.659 93.4389 200.63 93.3402C200.601 93.2416 200.601 93.1376 200.628 93.0386C200.656 92.9397 200.71 92.8491 200.787 92.7759C200.311 92.5984 199.835 92.4627 199.359 92.2873C193.839 102.63 182.322 99.2543 175.42 96.4155C172.947 95.3365 171.031 93.3901 170.089 91C169.834 91.9219 169.377 92.7845 168.746 93.5333C168.115 94.2821 167.325 94.9008 166.425 95.3506C166.425 95.3506 170.803 106.313 167.187 113.506C163.57 120.698 157 122.028 157 122.028L157.336 124.78C163.342 125.297 169.257 126.504 174.945 128.375C174.62 125.034 175.958 122.502 175.802 119.814C175.717 118.352 173.988 117.07 172.331 116.307C172.222 116.257 172.131 116.179 172.069 116.082C172.007 115.985 171.976 115.873 171.981 115.76C171.986 115.647 172.027 115.538 172.097 115.446C172.168 115.354 172.265 115.283 172.378 115.242C174.037 114.565 175.808 114.159 177.614 114.043C177.752 114.058 177.89 114.026 178.004 113.952C178.118 113.878 178.199 113.769 178.233 113.643C181.192 105.786 188.61 101.532 197.27 99.0402C203.887 97.1359 211.79 97.7039 216.782 102.147C227.354 111.555 223.117 138.403 202.6 144.272C205.345 146.741 205.749 147.57 206.788 148C215.811 146.465 228.888 144.672 229.823 144.672C231.444 143.402 239.27 130.59 228.105 125.579Z" fill="#003459"/>
<path d="M170.091 178.293C172.691 174.183 172.086 168.687 171.916 164.129C171.716 158.151 170.96 152.201 169.656 146.344C169.515 145.719 168.606 146.029 168.696 146.613C169.533 152.048 170.046 157.521 170.233 163.009C170.385 167.566 171.05 173.331 168.503 177.441C166.437 177.709 164.37 178.072 162.305 178.38C162.353 175.565 162.304 172.747 162.112 169.979C162.112 169.86 162.062 169.747 161.972 169.663C161.882 169.579 161.759 169.532 161.632 169.532C161.505 169.532 161.383 169.579 161.292 169.663C161.202 169.747 161.152 169.86 161.152 169.979C160.937 172.838 160.911 175.698 160.96 178.603C157.534 179.17 154.059 179.439 150.58 179.407C150.546 177.851 150.304 176.306 149.86 174.805C149.822 174.686 149.739 174.584 149.626 174.517C149.514 174.449 149.38 174.421 149.247 174.437C149.115 174.453 148.992 174.512 148.902 174.604C148.812 174.696 148.76 174.814 148.755 174.939C148.72 176.438 148.865 177.937 149.188 179.407C146.113 179.363 143.038 179.229 139.963 179.005C139.334 177.978 138.804 176.902 138.38 175.788C138.035 174.718 137.13 172.035 138.091 171.052C138.184 170.955 138.233 170.83 138.229 170.701C138.225 170.571 138.168 170.448 138.07 170.357C137.972 170.265 137.84 170.212 137.701 170.209C137.562 170.205 137.426 170.25 137.323 170.336C135.977 171.363 136.425 173.551 136.698 174.939C136.952 176.312 137.439 177.639 138.14 178.871C137.899 178.871 137.707 178.826 137.467 178.826C136.505 178.737 134.019 178.99 133.286 178.511C132.292 177.865 132.335 176.632 132.132 175.606C130.611 167.762 130.336 159.753 131.316 151.834C131.371 151.344 130.442 151.204 130.354 151.7C128.804 160.726 129.098 169.943 131.22 178.868C131.171 178.912 131.124 178.912 131.124 178.958C122.81 194.055 125.111 205.738 125.885 215.107C125.888 215.248 125.949 215.384 126.057 215.484C126.165 215.584 126.311 215.641 126.463 215.643C133.862 215.643 141.261 215.598 148.661 215.598C148.789 215.598 148.911 215.551 149.001 215.467C149.091 215.384 149.141 215.27 149.142 215.152C149.15 213.82 149.361 212.496 149.767 211.219C149.124 211.219 148.481 211.264 147.845 211.353C147.22 211.443 147.123 210.454 147.702 210.326C150.663 209.524 153.804 209.493 156.783 210.236C157.548 210.472 157.461 211.666 156.59 211.576C155.726 211.532 154.86 211.443 153.991 211.353C155.086 212.153 155.14 214.152 154.952 215.375C154.904 215.69 155.291 216.005 155.63 216C163.51 215.956 171.389 215.777 179.269 215.732C179.358 215.734 179.447 215.72 179.53 215.689C179.614 215.659 179.689 215.613 179.752 215.555C179.816 215.496 179.866 215.426 179.899 215.349C179.933 215.272 179.949 215.19 179.947 215.107C180.125 210.461 179.852 205.81 179.13 201.21C177.505 192.939 172.302 186.202 170.091 178.293Z" fill="#003459"/>
<path d="M175.954 67.7609C179.457 69.4549 184.862 70.6735 185.328 75.0662C184.832 75.0208 184.332 75.0208 183.836 75.0662C183.122 75.0662 182.244 75.2117 181.924 75.8283C176.421 75.5585 173.013 81.0274 173.297 85.867C173.41 88.5564 174.49 91.1247 176.353 93.1345C178.216 95.1443 180.746 96.4713 183.513 96.8892C197.213 98.6128 204.269 79.7192 190.694 75.1526C190.036 74.9323 189.669 75.4689 189.715 75.959C188.931 75.5347 188.05 75.3036 187.15 75.2865C186.879 62.7948 193.979 66.8459 195.964 52.0709C197.109 43.5534 190.886 33.2364 197.27 25.7635C197.649 25.3197 197.04 24.7357 196.618 25.131C189.4 31.9556 195.521 42.1197 194.799 50.2293C194.576 53.5047 193.72 56.7115 192.276 59.6861C191.209 61.6605 189.462 63.1258 188.172 64.9295C186.767 66.903 185.902 69.1842 185.654 71.5632C183.415 68.7845 179.034 67.6133 175.814 65.8708C172.848 64.1666 170.53 61.5912 169.204 58.5246C167.877 55.4581 167.611 52.0628 168.445 48.8399C168.456 48.8041 168.459 48.7665 168.455 48.7294C168.45 48.6923 168.438 48.6565 168.418 48.6241C168.399 48.5917 168.373 48.5634 168.342 48.5409C168.311 48.5184 168.276 48.5022 168.238 48.4931C168.2 48.4841 168.161 48.4825 168.123 48.4884C168.084 48.4943 168.047 48.5076 168.015 48.5275C167.982 48.5474 167.953 48.5734 167.931 48.6041C167.909 48.6348 167.894 48.6695 167.886 48.706C166.605 52.2828 166.716 56.1846 168.2 59.6883C169.684 63.192 172.439 66.06 175.954 67.7609ZM189.945 76.405C190.07 76.5251 200.127 80.1377 194.889 89.6715C191.635 95.5926 182.886 97.351 177.866 92.4049C172.08 86.703 174.851 77.3231 181.784 76.6738C182.05 77.6952 183.448 77.5708 184.442 77.6151C185.956 77.6857 189.945 78.2719 189.945 76.405Z" fill="#003459"/>
<path d="M91.6223 46.5014C91.5061 46.4664 91.3832 46.4824 91.276 46.5464C91.1688 46.6103 91.0845 46.718 91.0384 46.8499C90.9923 46.9817 90.9876 47.1288 91.025 47.2645C91.0624 47.4001 91.1395 47.5153 91.2422 47.5889C91.445 47.7695 91.6786 47.8951 91.9265 47.9566C92.1744 48.0181 92.4307 48.0142 92.6772 47.945C92.9237 47.8759 93.1545 47.7432 93.3533 47.5563C93.552 47.3695 93.714 47.133 93.8278 46.8635C94.41 45.3309 93.3189 43.8738 93.4477 42.3358C93.4817 41.9279 92.9585 41.8842 92.8771 42.2453C92.4988 43.9281 93.3046 45.0007 93.0291 46.0945C92.725 46.9136 92.1545 46.642 91.6223 46.5014Z" fill="#003459"/>
<path d="M96 39C95.7289 39.0168 95.4747 39.1295 95.289 39.3151C95.1033 39.5008 95 39.7457 95 40C95 40.2543 95.1033 40.4992 95.289 40.6849C95.4747 40.8705 95.7289 40.9832 96 41C96.2711 40.9832 96.5253 40.8705 96.711 40.6849C96.8967 40.4992 97 40.2543 97 40C97 39.7457 96.8967 39.5008 96.711 39.3151C96.5253 39.1295 96.2711 39.0168 96 39Z" fill="#003459"/>
<path d="M87 40C86.7305 40.0122 86.4763 40.1228 86.2901 40.309C86.1039 40.4952 86 40.7427 86 41C86 41.2573 86.1039 41.5048 86.2901 41.691C86.4763 41.8772 86.7305 41.9878 87 42C87.2695 41.9878 87.5237 41.8772 87.7099 41.691C87.8961 41.5048 88 41.2573 88 41C88 40.7427 87.8961 40.4952 87.7099 40.309C87.5237 40.1228 87.2695 40.0122 87 40Z" fill="#003459"/>
<path d="M87.8453 48.9506C87.7878 48.7044 87.6683 48.4663 87.4918 48.2465C87.4255 48.1714 87.3309 48.1092 87.2172 48.066C87.1035 48.0227 86.9748 48 86.8438 48C86.7128 48 86.584 48.0227 86.4704 48.066C86.3567 48.1092 86.262 48.1714 86.1957 48.2465C85.2836 49.2847 87.6956 51.4754 90.615 50.9075C90.741 50.8822 90.8488 50.8273 90.9183 50.753C90.9878 50.6788 91.0142 50.5903 90.9927 50.5041C90.9711 50.4179 90.903 50.3398 90.8011 50.2844C90.6992 50.2291 90.5705 50.2003 90.4389 50.2033C89.8714 50.1811 89.3255 50.0513 88.8658 49.8292C88.4061 49.6072 88.0519 49.3023 87.8453 48.9506Z" fill="#003459"/>
<path d="M88.5017 101.02C88.1435 100.891 87.8335 101.418 88.1006 101.682C89.0358 102.431 90.0045 103.192 90.8611 104.019C91.7408 104.869 92.322 105.923 93.1315 106.842C93.2089 106.924 93.3123 106.978 93.4246 106.995C93.5369 107.011 93.6515 106.989 93.7498 106.933C93.848 106.877 93.9241 106.789 93.9655 106.684C94.0069 106.579 94.0112 106.464 93.9777 106.356C93.4835 105.124 92.7061 104.023 91.7073 103.141C90.8391 102.174 89.7355 101.444 88.5017 101.02Z" fill="#003459"/>
<path d="M95.9983 106.602C95.7878 104.991 95.2628 103.469 94.4699 102.173C93.9128 101.175 93.2896 100.13 92.2824 100.003C91.9352 99.9576 91.9319 100.527 92.1435 100.74C93.8213 102.427 94.3662 104.604 95.411 106.867C95.5466 107.122 96.0326 106.997 95.9983 106.602Z" fill="#003459"/>
<path d="M97.998 104.62C97.8832 102.116 96.2038 100.381 94.5656 99.0661C94.2229 98.792 93.7977 99.4365 94.1072 99.7952C96.3114 102.345 96.2513 102.182 97.3494 104.802C97.5019 105.166 98.0366 104.984 97.998 104.62Z" fill="#003459"/>
<path d="M69.3702 88.9865C86.0879 90.0783 92.3903 96.6526 93.9547 96.564C95.5192 96.4754 96.8722 95.8778 98.4253 96.3367C99.6412 96.6963 100.517 97.6003 101.729 97.9706C102.313 98.1489 102.602 97.4722 102.263 97.1083C100.41 95.1168 96.3843 93.7507 93.9067 95.5202C91.8293 93.4486 89.2949 91.8231 86.4787 90.756C86.8245 88.6132 86.6922 86.4268 86.0903 84.334C85.4883 82.2412 84.4296 80.2872 82.9806 78.5946C82.4424 77.9724 82.4093 77.8337 82.543 77.1432C83.0054 74.5471 82.7332 71.8833 81.7531 69.4158C80.7731 66.9484 79.1193 64.7631 76.9559 63.0767C81.9601 59.2197 82.7544 51.9485 81.6196 46.3336C81.4185 45.339 81.903 44.7893 81.2311 44.6997C80.5991 44.5641 80.0151 44.8 79.4335 44.6997C79.0717 44.6311 78.7453 44.4504 78.5072 44.187C78.2691 43.9236 78.1332 43.5928 78.1216 43.2482C78.1216 41.705 80.2117 41.2951 81.4253 41.7957C81.863 41.9771 82.0607 41.3368 81.7167 41.1158C81.2917 40.8463 80.8123 40.6607 80.3077 40.5705C84.5851 38.1403 91.2486 35.1541 93.3776 29.3643C94.8358 32.4049 98.5761 34.3099 100.179 37.1691C99.7429 41.2524 100.781 45.6655 98.1396 49.2387C95.2438 53.1534 90.3378 53.8578 85.7496 52.369C85.1691 52.1811 84.7782 53.0499 85.3119 53.322C87.4368 54.3887 89.8736 54.7866 92.26 54.4565C92.3974 57.1109 92.755 59.7514 93.3296 62.3542C90.3173 65.3938 85.721 64.4087 83.952 60.7661C83.7543 60.3584 83.0869 60.6274 83.2229 61.0863C83.4654 61.9164 83.8945 62.6886 84.4818 63.3515C85.069 64.0144 85.8008 64.5528 86.6284 64.9307C87.4561 65.3086 88.3604 65.5174 89.2813 65.5432C90.2021 65.5689 91.1182 65.411 91.9686 65.08C93.1039 64.7651 94.0626 64.0486 94.6404 63.0831C95.1684 61.9006 94.6404 60.0436 94.4461 58.8141C97.2557 55.0905 99.6165 51.0886 101.486 46.8811C103.905 41.118 103.074 31.0964 101.438 27.4571C97.8093 19.394 91.1812 22.1486 91.1812 22.1486C91.1812 22.1486 86.5278 19.3246 81.5168 20.1517C72.0546 21.7153 69.5827 33.7165 71.4112 41.9323C71.7049 43.2471 72.3825 44.7904 73.7916 45.0625C71.4527 48.4495 70.4719 52.4999 71.0226 56.4971C71.3255 58.6316 72.3345 60.9892 74.5207 61.6701C71.7997 64.302 71.3906 68.5752 72.8682 71.9702C74.5205 75.3317 77.278 78.1134 80.7397 79.9106C79.6712 83.314 80.6425 87.5798 83.4606 89.8478C79.6786 88.8631 75.7749 88.3446 71.8489 88.3056C71.5625 85.8344 71.81 83.3346 72.5768 80.9543C72.7757 80.3663 71.8466 80.1368 71.6055 80.6822C70.5063 83.0672 70.1201 85.6859 70.4878 88.2597H69.4685C68.8365 88.2597 68.8845 88.9865 69.3702 88.9865Z" fill="#003459"/>
<path d="M101.616 94.9737C114.023 90.9426 125.832 86.6096 139.215 86.4739C139.426 86.4668 139.625 86.3861 139.772 86.2486C139.918 86.1112 140 85.9278 140 85.737C140 85.5461 139.918 85.3627 139.772 85.2253C139.625 85.0878 139.426 85.0071 139.215 85C125.982 85.4233 113.126 89.0332 101.232 94.2373C100.753 94.4117 101.083 95.1471 101.616 94.9737Z" fill="#003459"/>
<path d="M131.773 118.024C130.334 116.251 129.545 114.086 129.526 111.853C129.417 110.052 129.449 108.246 129.621 106.45C129.932 105.228 126.277 93.4307 136.882 86C124.177 86.4906 112.857 90.6356 101.058 94.645C104.451 97.2123 102.013 99.4373 99.673 99.3748C97.0448 99.3049 100.984 102.25 101.871 104.461C102.757 106.671 89.012 111.984 87.8738 108.381C87.0074 105.635 82.1893 103.335 79.896 102.39C79.4657 102.57 79.0364 102.751 78.5589 102.975C78.6775 103.043 78.7739 103.14 78.8376 103.257C78.9013 103.373 78.9298 103.503 78.9199 103.634C78.91 103.764 78.8622 103.889 78.7816 103.996C78.7011 104.102 78.591 104.186 78.4634 104.237C74.1318 106.064 69.9115 108.158 65.7552 110.318C67.3014 114.116 68.5479 118.017 69.4845 121.989C69.5968 121.922 87.4693 122.955 89.7873 123.16C89.9163 123.168 90.0403 123.21 90.1454 123.28C90.2505 123.351 90.3325 123.448 90.3822 123.561C90.4318 123.673 90.4472 123.797 90.4264 123.917C90.4057 124.037 90.3497 124.15 90.2648 124.242C88.3311 126.043 61.8865 150.436 61.6011 150.594C60.0808 151.442 34.5812 145.742 34.5149 145.508C33.5509 142.012 32.4126 138.621 31.3148 135.192C27.3859 139.283 24.5369 144.192 23 149.517C34.943 153.481 47.1074 157.394 58.8291 161.86C58.942 161.905 59.0385 161.98 59.1064 162.076C59.1744 162.172 59.2108 162.285 59.2112 162.401L63.3191 163.797C64.0308 164.046 64.8096 164.066 65.5349 163.856C66.2602 163.645 66.8917 163.215 67.3316 162.632C73.5543 154.367 85.6804 137.825 121.94 127.899C128.164 126.184 134.546 125.023 141 124.431V121.683C139.259 121.865 137.497 121.624 135.882 120.984C134.268 120.343 132.853 119.325 131.773 118.024Z" fill="#003459"/>
<path d="M94.3092 60.1311C93.8153 60.214 93.9614 60.8443 94.4077 60.8884C101.209 61.1118 104.485 65.7843 107.173 70.8323C109.644 75.6123 111.784 80.5269 113.58 85.5474C113.878 86.3498 115.253 85.9942 114.959 85.1908C112.804 78.8896 109.929 72.8085 106.381 67.0461C103.892 63.1958 99.6693 59.2228 94.3092 60.1311Z" fill="#003459"/>
<path d="M55.7218 54.7841C56.3117 54.5984 55.8678 53.8978 55.2779 54.0127C47.0756 55.6048 38.8258 55.5011 30.4926 56.0324C30.3619 56.0324 30.2366 56.0711 30.1443 56.1399C30.0519 56.2088 30 56.3022 30 56.3995C30 56.4969 30.0519 56.5903 30.1443 56.6591C30.2366 56.728 30.3619 56.7667 30.4926 56.7667C38.5743 57.2375 48.0712 57.1857 55.7218 54.7841Z" fill="#003459"/>
<path d="M57.2946 61.0164C52.8413 61.6311 48.4893 62.7169 43.9937 63.1622C39.8265 63.5761 35.6225 63.6546 31.4498 64.0685C31.3305 64.0685 31.2161 64.1163 31.1317 64.2013C31.0474 64.2862 31 64.4015 31 64.5217C31 64.6419 31.0474 64.7571 31.1317 64.8421C31.2161 64.9271 31.3305 64.9748 31.4498 64.9748C38.545 65.124 50.9141 64.6641 57.6264 62.1134C57.7631 62.0629 57.8755 61.9615 57.9403 61.8301C58.0052 61.6987 58.0177 61.5473 57.9752 61.4069C57.9328 61.2665 57.8386 61.1479 57.712 61.0752C57.5855 61.0026 57.4361 60.9816 57.2946 61.0164Z" fill="#003459"/>
<path d="M46.3625 70.0131C43.0772 70.5041 39.7608 70.7421 36.4409 70.7254C35.9307 70.7254 35.8358 71.545 36.3014 71.6288C39.7277 72.2724 43.2538 72.077 46.5925 71.0586C46.7277 71.0273 46.8452 70.9422 46.9192 70.8221C46.9932 70.7019 47.0177 70.5565 46.9872 70.4179C46.9567 70.2793 46.8737 70.1587 46.7566 70.0828C46.6394 70.0069 46.4976 69.9819 46.3625 70.0131Z" fill="#003459"/>
<path d="M90.3439 122.881C86.9038 122.594 70.0635 121.726 70.0635 121.726C69.1219 117.812 67.8777 113.967 66.3406 110.22C70.4934 108.088 74.708 106.025 79.0336 104.223C80.0808 103.788 79.1324 102.416 78.175 102.846C74.0031 104.721 69.8245 106.622 65.8165 108.754L63.235 101.558C70.1522 101.146 76.0694 99.6644 81.9877 101.779C85.1788 102.898 87.9265 104.897 89.8624 107.511C90.0936 107.824 90.721 107.643 90.5773 107.244C86.9049 98.8065 75.1109 98.5077 65.3383 99.4251C64.4314 99.5097 63.5257 99.6027 62.5717 99.6477C61.8982 97.6927 61.2012 95.7335 60.5188 93.7826C60.488 93.6855 60.434 93.596 60.361 93.5208C60.288 93.4457 60.1978 93.3868 60.0971 93.3484C59.9963 93.3101 59.8876 93.2934 59.7789 93.2994C59.6703 93.3055 59.5645 93.3342 59.4694 93.3835C56.9025 94.6886 54.3154 96.049 51.7867 97.4701C49.0189 95.3803 48.4902 92.4055 49.1626 88.9019C49.8649 85.4937 51.1027 82.2003 52.8361 79.1279C63.6929 75.0528 68.1196 64.4063 64.3372 57.8934C63.4572 56.3783 61.3382 55.3073 63.2866 51.763C63.7243 50.9668 64.6155 50.2531 64.4797 49.2302C64.2272 47.3222 59.2786 50.4297 59.374 50.8299C58.9221 49.2181 58.1216 47.709 57.0216 46.3951C55.9215 45.0812 54.5451 43.9901 52.9764 43.1886C49.24 41.3924 44.4845 41.9096 40.5696 42.9221C32.081 45.1164 25.1402 51.4495 23.8203 59.7147C22.5183 67.8816 27.4939 76.6066 35.9443 79.3891C40.7854 80.9871 46.0438 81.1271 50.9752 79.7893C47.1591 86.4976 44.8672 94.094 50.0683 98.493C47.8786 99.7647 25.6464 112.92 25.8754 115.774C26.181 117.278 26.6446 118.751 27.2593 120.172C28.6645 124.608 30.0641 129.066 31.4581 133.546C27.1639 138.167 23.7754 143.319 22.5823 149.094C22.1693 150.25 21.7315 166.743 21.6765 167.842C21.3645 174.016 20.9605 180.276 21.0031 186.456C21.0126 186.603 21.0822 186.741 21.1975 186.843C21.3129 186.944 21.4653 187 21.6238 187C21.7822 187 21.9347 186.944 22.0501 186.843C22.1654 186.741 22.235 186.603 22.2445 186.456C22.6429 180.282 22.6699 174.022 22.9605 167.842C23.2423 161.844 23.8663 155.714 23.4376 149.765C34.9857 154.386 46.9818 159.055 59.0833 162.16C59.7971 162.343 60.0407 161.398 59.3695 161.138C47.6844 156.619 35.5099 152.875 23.5801 148.966C25.116 143.714 27.9617 138.874 31.8857 134.839C32.9352 138.215 33.988 141.648 35.0834 145.057C35.1462 145.253 60.5615 150.967 62.1395 150.121C62.6323 149.856 68.8042 143.998 90.7704 124.133C91.2496 123.503 90.9163 122.929 90.3439 122.881ZM33.7489 76.546C23.396 70.8596 23.2917 56.6375 31.411 49.3587C35.2481 46.0349 40.1703 44.0032 45.3925 43.5877C52.0258 43.013 56.1819 46.2658 58.1809 51.9835C58.216 52.0888 58.2755 52.1856 58.3552 52.2672C58.4349 52.3487 58.5329 52.4129 58.6422 52.4553C58.7515 52.4976 58.8695 52.5171 58.9878 52.5123C59.1061 52.5075 59.2219 52.4786 59.3268 52.4276C60.1372 51.8508 60.997 51.3179 61.8073 50.7839C60.6625 52.739 59.8993 54.9134 61.4706 56.7817C64.8658 60.8192 64.6133 65.4846 61.9947 69.8868C56.5905 78.9816 43.1993 81.7402 33.7489 76.546ZM36.7075 143.716C27.3917 114.035 27.6409 115.912 27.6409 115.33C27.6409 114.475 30.8251 112.667 31.457 112.219C37.7603 107.769 52.6532 98.399 59.5165 94.8495C61.0879 99.1137 62.6244 103.332 64.1452 107.597C65.8703 112.437 68.0096 117.281 69.4417 122.212C58.4671 129.368 47.1557 136.031 36.7075 143.716ZM70.9222 140.251C67.5045 143.341 61.3887 149.179 61.0924 149.225C60.06 149.032 59.0415 148.78 58.0428 148.47C39.7345 144.872 40.0847 144.928 37.0936 144.472C48.2119 137.63 58.7107 129.856 70.068 123.325C76.3433 123.236 82.6192 123.458 88.8691 123.992C82.901 129.412 76.9187 134.832 70.9222 140.251Z" fill="#003459"/>
<path d="M70.0816 126C69.593 126.087 46.3471 142.39 47.0141 142.572C49.1591 143.159 51.3657 143.569 53.6174 144C60.0501 136.895 71.2735 129.764 75 126.605C73.3801 126.284 71.7356 126.082 70.0816 126Z" fill="#003459"/>
<path d="M65.5896 134.645C61.9815 137.441 58.6081 140.54 55 143.379C59.7542 144.107 60.2094 144.677 63.2929 142.174C68.9409 137.591 74.3982 132.795 79.7387 127.89C79.8508 127.784 79.9308 127.652 79.9709 127.509C80.0109 127.365 80.0097 127.215 79.9672 127.072C79.9247 126.929 79.8425 126.799 79.7287 126.694C79.6148 126.589 79.4732 126.513 79.3177 126.474C78.2829 126.324 77.2558 126.17 76.2254 126C73.0857 129.31 69.1965 131.848 65.5896 134.645Z" fill="#003459"/>
<path d="M43.5453 108C45.4664 108 45.0911 106.4 44.6208 106.4C44.4987 106.277 44.3323 106.176 44.1367 106.106C43.941 106.037 43.7222 106 43.4999 106C43.2776 106 43.0588 106.037 42.8631 106.106C42.6675 106.176 42.5011 106.277 42.379 106.4C41.4195 107.041 42.4571 108 43.5453 108Z" fill="#003459"/>
<path d="M51.2475 130.189C47.2628 133.391 42.5932 135.559 38.2419 138.288C35.564 131.686 33.543 124.828 30.7831 118.259C30.7513 118.165 30.6806 118.087 30.5864 118.042C30.4922 117.997 30.3823 117.988 30.2809 118.017C30.1795 118.046 30.0949 118.111 30.0456 118.198C29.9964 118.285 29.9866 118.386 30.0183 118.479C32.1653 125.536 35.1918 132.407 37.2375 139.521C37.269 139.617 37.3234 139.705 37.3967 139.779C37.47 139.854 37.5604 139.912 37.6612 139.95C37.7621 139.988 37.8709 140.005 37.9798 139.999C38.0886 139.993 38.1946 139.965 38.2902 139.917C42.7675 136.859 48.2829 134.767 51.9178 130.806C52.2046 130.365 51.6828 129.84 51.2475 130.189Z" fill="#003459"/>
</svg>
