<svg width="320" height="217" viewBox="0 0 320 217" fill="none" xmlns="http://www.w3.org/2000/svg">
<path d="M215.296 0.126376C201.31 0.106156 47.5271 0.02022 18.599 0C13.6592 0.0120519 8.92599 1.98401 5.43881 5.48288C1.95164 8.98174 -0.00447145 13.7215 7.67533e-06 18.6614V167.223C0.011741 170.906 1.11476 174.503 3.16972 177.559C5.22469 180.615 8.13939 182.994 11.5456 184.395C13.7918 185.268 16.1901 185.682 18.599 185.613H194.093C194.364 185.571 194.61 185.434 194.787 185.226C194.964 185.017 195.061 184.752 195.059 184.479C195.052 184.312 195.012 184.149 194.941 183.998C194.87 183.848 194.77 183.712 194.646 183.601L200.584 170.657C200.682 170.403 200.688 170.123 200.599 169.866C200.511 169.609 200.334 169.391 200.1 169.252L180.935 157.684C180.734 157.557 180.496 157.503 180.259 157.529C180.023 157.556 179.802 157.662 179.634 157.831C178.335 158.889 176.79 159.604 175.142 159.91C174.963 159.936 174.793 160.004 174.646 160.11C174.499 160.216 174.381 160.356 174.3 160.518L169.808 169.838L164.685 161.504C164.612 161.367 164.507 161.25 164.379 161.162C164.251 161.075 164.104 161.018 163.95 160.998C161.916 160.557 159.98 159.741 158.243 158.592C155.042 156.383 154.38 153.798 153.793 149.397C153.553 147.949 153.517 146.474 153.687 145.016C153.746 144.774 153.72 144.518 153.613 144.292C153.506 144.067 153.324 143.885 153.099 143.778L100.997 118.22C123.273 97.7603 157.462 73.4559 187.001 66.1801C194.693 64.1898 202.759 64.1464 210.472 66.0537C218.351 68.2018 225.576 72.268 231.5 77.8891V129.878C231.533 130.137 231.661 130.375 231.859 130.546C232.057 130.717 232.311 130.808 232.572 130.801C232.83 130.8 233.079 130.706 233.274 130.537C233.468 130.367 233.595 130.133 233.632 129.878V18.6681C233.669 16.2403 233.221 13.8294 232.316 11.5766C231.41 9.3238 230.064 7.2742 228.357 5.54773C226.649 3.82125 224.615 2.45255 222.372 1.52168C220.13 0.590807 217.724 0.116462 215.296 0.126376ZM2.72971 94.1898C5.95648 95.9119 15.9266 100.851 46.7335 116.769L2.72971 143.764V94.1898ZM10.4807 87.984C10.5671 87.7965 10.7215 87.6489 10.9127 87.571C11.1038 87.4931 11.3174 87.4907 11.5102 87.5644C11.6787 87.5981 12.8229 87.7919 13.4413 87.984C14.6641 88.4146 15.8623 88.9124 17.0303 89.4752C17.5981 89.7903 18.1424 90.1677 18.6883 90.503C18.7833 90.5412 18.8697 90.598 18.9423 90.6701C19.015 90.7422 19.0725 90.8281 19.1114 90.9227C19.1504 91.0174 19.17 91.1189 19.169 91.2212C19.1681 91.3236 19.1467 91.4247 19.1061 91.5186C19.0655 91.6126 19.0065 91.6974 18.9326 91.7682C18.8586 91.839 18.7713 91.8942 18.6756 91.9307C18.58 91.9672 18.478 91.9842 18.3757 91.9806C18.2735 91.977 18.1729 91.953 18.0801 91.91C16.8101 91.689 15.5749 91.3008 14.4068 90.7558C13.1619 90.3301 11.9875 89.7213 10.9222 88.9495C10.7462 88.869 10.6052 88.7277 10.525 88.5515C10.4448 88.3754 10.4309 88.1763 10.4858 87.9907L10.4807 87.984ZM28.4293 95.307C29.4606 95.5806 30.4654 95.9454 31.432 96.3972C33.0199 97.0421 34.5107 97.904 35.8619 98.9584C36.0437 99.05 36.1839 99.2074 36.254 99.3985C36.3241 99.5897 36.3188 99.8004 36.2393 99.9879C36.1334 100.166 35.9659 100.298 35.7686 100.36C35.5712 100.423 35.3579 100.41 35.1693 100.325C33.5701 99.8868 32.027 99.2649 30.571 98.4714C29.5261 98.0156 28.5674 97.3835 27.7368 96.6027C27.6418 96.5632 27.5561 96.5042 27.4853 96.4296C27.4144 96.3549 27.3599 96.2663 27.3254 96.1694C27.2908 96.0725 27.2769 95.9694 27.2845 95.8668C27.2921 95.7642 27.3211 95.6643 27.3696 95.5735C27.4181 95.4828 27.485 95.4032 27.5661 95.3398C27.6472 95.2765 27.7407 95.2308 27.8405 95.2057C27.9402 95.1806 28.0442 95.1766 28.1456 95.1941C28.247 95.2115 28.3437 95.25 28.4293 95.307ZM43.04 105.136C42.8646 105.044 42.7329 104.886 42.674 104.696C42.615 104.507 42.6337 104.302 42.7257 104.127C42.8178 103.952 42.9757 103.82 43.1649 103.761C43.354 103.702 43.5588 103.721 43.7342 103.813C44.4846 104.008 45.221 104.253 45.9382 104.548C47.3478 105.161 48.7211 105.854 50.0512 106.625C50.7455 107.045 51.3538 107.528 51.9839 107.99C52.1587 108.093 52.2879 108.259 52.346 108.454C52.4041 108.648 52.3867 108.857 52.2974 109.04C52.1873 109.213 52.0167 109.339 51.8189 109.393C51.6212 109.447 51.4103 109.426 51.2274 109.333C50.5348 109.06 49.8423 108.851 49.1919 108.578C46.9942 107.716 44.9245 106.558 43.04 105.136ZM46.8396 131.384C46.0848 131.91 45.4546 132.476 44.6997 133.002C44.3627 133.24 42.1806 134.62 41.3196 135.1C40.0463 135.874 38.7038 136.528 37.3093 137.053C37.2239 137.102 37.1295 137.135 37.0316 137.148C36.9338 137.161 36.8343 137.155 36.7388 137.129C36.6434 137.104 36.5539 137.06 36.4754 137C36.3969 136.94 36.331 136.865 36.2814 136.78C36.2319 136.694 36.1996 136.6 36.1865 136.502C36.1734 136.404 36.1797 136.305 36.205 136.209C36.2304 136.114 36.2743 136.024 36.3342 135.946C36.3942 135.867 36.469 135.802 36.5544 135.752C37.589 134.947 37.343 135.095 38.7584 134.067C39.5638 133.508 42.6592 131.634 43.5236 131.213C44.3206 130.793 45.1816 130.456 46.0511 130.058C46.2259 129.96 46.4325 129.933 46.6268 129.984C46.8211 130.035 46.9879 130.16 47.0917 130.332C47.1954 130.504 47.2281 130.709 47.1826 130.905C47.1371 131.101 47.0171 131.271 46.8481 131.379L46.8396 131.384ZM24.3617 144.073C22.3877 145.735 20.2735 147.224 18.043 148.523C17.2965 148.999 16.5956 149.468 15.839 149.909C15.0824 150.351 14.2972 150.691 13.5508 151.126C13.4697 151.188 13.377 151.232 13.2783 151.257C13.1795 151.282 13.0767 151.287 12.9761 151.271C12.8755 151.255 12.7791 151.219 12.6928 151.165C12.6065 151.111 12.5321 151.04 12.4739 150.956C12.4158 150.872 12.3752 150.778 12.3545 150.678C12.3339 150.578 12.3336 150.476 12.3538 150.376C12.374 150.276 12.4141 150.181 12.4719 150.097C12.5296 150.013 12.6037 149.942 12.6897 149.887C15.0627 147.645 17.7264 145.732 20.6092 144.199C21.563 143.651 22.6043 143.233 23.5698 142.772C23.6579 142.719 23.7555 142.684 23.8571 142.67C23.9586 142.655 24.0621 142.66 24.1616 142.686C24.261 142.711 24.3544 142.756 24.4365 142.817C24.5186 142.879 24.5877 142.956 24.6398 143.045C24.6915 143.13 24.7254 143.225 24.7394 143.323C24.7534 143.422 24.7472 143.522 24.7212 143.618C24.6952 143.714 24.65 143.804 24.5882 143.882C24.5264 143.96 24.4493 144.025 24.3617 144.073ZM175.473 172.475C175.559 172.306 175.71 172.178 175.89 172.119C176.071 172.06 176.268 172.074 176.438 172.16C177.328 172.382 178.052 172.63 178.265 172.706C179.549 173.23 180.804 173.826 182.022 174.49C182.548 174.847 183.033 175.267 183.555 175.67C183.646 175.717 183.726 175.782 183.79 175.862C183.854 175.941 183.901 176.033 183.929 176.131C183.956 176.23 183.963 176.332 183.95 176.434C183.936 176.535 183.901 176.632 183.849 176.719C183.747 176.891 183.583 177.015 183.391 177.066C183.198 177.117 182.994 177.091 182.821 176.992C180.269 176.261 177.871 175.073 175.744 173.486C175.584 173.379 175.468 173.217 175.418 173.031C175.368 172.845 175.387 172.648 175.473 172.475ZM141.112 157.31C141.18 157.122 141.32 156.968 141.5 156.882C141.681 156.795 141.888 156.783 142.078 156.848C142.749 156.91 143.416 157.023 144.071 157.185C145.049 157.465 146.009 157.803 146.947 158.196C148.055 158.596 149.085 159.185 149.99 159.938C150.169 160.036 150.302 160.2 150.359 160.396C150.417 160.591 150.394 160.801 150.297 160.98C150.2 161.159 150.035 161.291 149.84 161.349C149.645 161.406 149.434 161.384 149.256 161.286C148.919 161.16 147.22 160.661 147.052 160.613C145.144 160.049 143.311 159.257 141.594 158.253C141.496 158.229 141.405 158.184 141.327 158.121C141.248 158.058 141.184 157.979 141.138 157.889C141.093 157.8 141.067 157.701 141.062 157.601C141.058 157.5 141.075 157.4 141.112 157.307V157.31ZM123.445 140.029L130.702 151.765L129.777 152.562C129.59 152.721 129.467 152.942 129.429 153.184C129.39 153.427 129.44 153.675 129.568 153.884C130.288 155.765 130.632 157.769 130.579 159.782C130.593 161.886 130.417 163.986 130.053 166.058C130.032 166.284 130.076 166.511 130.181 166.712C130.285 166.913 130.445 167.08 130.641 167.192C150.715 178.482 153.027 180.216 158.975 183.368H18.599C16.5089 183.298 14.4536 182.813 12.5533 181.94C10.3335 181.031 8.34981 179.628 6.75233 177.839C5.15485 176.05 3.98553 173.92 3.33294 171.612L55.423 142.234C55.6053 142.147 55.7557 142.005 55.8535 141.828C55.9514 141.651 55.9917 141.448 55.969 141.247C55.9959 141.415 54.6361 126.277 54.9411 119.815L70.2224 114.567L87.3521 122.334L88.8433 127.558C88.8909 127.718 88.9741 127.865 89.0868 127.989C89.1994 128.112 89.3386 128.209 89.4937 128.271L123.445 140.029ZM87.4717 109.476C87.6722 109.249 88.8568 107.939 89.4449 107.419C91.5067 105.472 93.8583 103.857 96.4157 102.632C96.4963 102.576 96.5874 102.537 96.6835 102.517C96.7795 102.498 96.8786 102.498 96.9746 102.518C97.0706 102.537 97.1617 102.576 97.2423 102.632C97.3229 102.688 97.3914 102.759 97.4436 102.842C97.5579 103.005 97.6043 103.205 97.5728 103.401C97.5413 103.598 97.4345 103.774 97.2751 103.892C96.5825 104.48 95.9271 105.088 95.2396 105.676C94.7341 106.133 93.1805 107.269 92.1324 108.091C90.9729 109.035 89.7369 109.88 88.4372 110.619C87.6722 111.272 86.7842 110.027 87.4717 109.476ZM112.959 92.7542C112.402 93.3262 111.813 93.8658 111.195 94.3701C110.556 94.9177 109.053 96.0551 108.445 96.5606C107.746 97.0754 107.014 97.5448 106.254 97.9659C105.604 98.6163 104.526 97.5143 105.289 96.8538C106.116 95.6427 107.154 94.5903 108.354 93.7467C109.49 92.7966 110.773 92.038 112.154 91.5005C112.907 90.9479 113.859 92.2032 112.959 92.7542ZM148.12 69.2265C147.596 69.5821 147.109 69.9612 146.63 70.2965C140.586 73.99 139.617 74.5646 139.52 74.6169C139.37 74.7458 139.175 74.81 138.978 74.7953C138.781 74.7806 138.598 74.6882 138.469 74.5385C138.34 74.3888 138.276 74.194 138.291 73.997C138.305 73.7999 138.398 73.6168 138.547 73.4879C139.123 72.7847 139.772 72.1442 140.482 71.5771C141.884 70.5131 143.389 69.5919 144.974 68.8272C145.771 68.4497 146.632 68.1768 147.429 67.8819C147.518 67.8364 147.614 67.8088 147.713 67.8007C147.813 67.7926 147.912 67.804 148.007 67.8345C148.102 67.8649 148.19 67.9137 148.266 67.9781C148.341 68.0424 148.404 68.1211 148.449 68.2096C148.495 68.2981 148.522 68.3947 148.531 68.4939C148.539 68.5931 148.527 68.6929 148.497 68.7876C148.466 68.8824 148.418 68.9702 148.353 69.0461C148.289 69.122 148.21 69.1844 148.122 69.2299L148.12 69.2265ZM169.221 60.0349C168.635 60.2657 168.151 60.4965 167.563 60.7089C167.086 60.9313 165.512 61.4182 164.079 61.9473C162.995 62.3792 161.888 62.7504 160.762 63.0594C160.676 63.1049 160.581 63.1328 160.483 63.1416C160.385 63.1504 160.287 63.1398 160.193 63.1106C160.1 63.0813 160.013 63.0339 159.938 62.9711C159.862 62.9082 159.8 62.8312 159.755 62.7443C159.709 62.6575 159.681 62.5625 159.673 62.4649C159.664 62.3673 159.674 62.2688 159.704 62.1753C159.733 62.0817 159.78 61.9948 159.843 61.9196C159.906 61.8443 159.983 61.7822 160.07 61.7367C160.679 61.2335 161.341 60.7974 162.043 60.4359C163.472 59.7271 164.98 59.1914 166.535 58.8402C167.321 58.706 168.113 58.6149 168.908 58.5672C169.096 58.5412 169.288 58.5875 169.443 58.6968C169.599 58.806 169.708 58.9702 169.747 59.1562C169.787 59.3423 169.755 59.5365 169.657 59.6998C169.56 59.8631 169.404 59.9834 169.221 60.0365V60.0349ZM191.114 56.1189C190.191 56.161 189.225 56.2874 188.28 56.37C186.449 56.4664 184.625 56.6837 182.822 57.0204C182 57.1232 180.918 57.2698 180.03 57.4619C179.844 57.5307 179.638 57.5229 179.457 57.4402C179.276 57.3574 179.135 57.2066 179.065 57.0204C179.004 56.8253 179.023 56.6141 179.118 56.4332C179.213 56.2522 179.376 56.1161 179.57 56.0549C180.442 55.5706 181.364 55.1836 182.32 54.9007C184.271 54.422 186.274 54.1955 188.282 54.2267C189.269 54.2881 190.25 54.4147 191.221 54.6058C191.421 54.6199 191.608 54.7131 191.74 54.8649C191.872 55.0167 191.938 55.2148 191.924 55.4154C191.91 55.6161 191.817 55.8029 191.665 55.9349C191.513 56.0668 191.315 56.133 191.114 56.1189ZM210.224 58.6582C209.809 58.5757 207.705 58.2235 207.536 58.1965C204.608 57.5124 204.572 57.5714 203.661 57.354C201.573 56.9142 201.816 56.8923 200.807 56.6396C200.706 56.6345 200.608 56.6089 200.518 56.5643C200.428 56.5197 200.348 56.457 200.283 56.3803C200.218 56.3035 200.169 56.2142 200.14 56.118C200.111 56.0217 200.102 55.9205 200.114 55.8207C200.126 55.7197 200.158 55.6221 200.207 55.5335C200.257 55.4449 200.324 55.367 200.404 55.3043C200.484 55.2417 200.576 55.1955 200.674 55.1684C200.772 55.1413 200.874 55.134 200.975 55.1467C202.642 54.991 204.324 55.1186 205.949 55.5241C207.626 55.8709 209.25 56.4375 210.778 57.2091C210.97 57.2826 211.126 57.4295 211.209 57.6173C211.293 57.8052 211.299 58.0187 211.226 58.2108C211.152 58.403 211.005 58.5581 210.817 58.642C210.63 58.7259 210.416 58.7317 210.224 58.6582ZM230.088 66.1059C230.038 66.1906 229.971 66.2644 229.892 66.323C229.812 66.3817 229.722 66.424 229.626 66.4475C229.531 66.471 229.431 66.4753 229.334 66.46C229.236 66.4448 229.143 66.4103 229.059 66.3587C228.048 65.9543 227.942 66.0217 226.939 65.56C226.771 65.4943 223.738 64.2575 222.824 63.7334C222.385 63.4824 221.965 63.2094 221.524 62.9364C221.428 62.9057 221.339 62.8558 221.264 62.7898C221.188 62.7238 221.126 62.643 221.083 62.5525C221.039 62.4619 221.014 62.3634 221.01 62.263C221.005 62.1625 221.021 62.0622 221.057 61.9682C221.093 61.8742 221.147 61.7884 221.217 61.716C221.286 61.6436 221.37 61.5862 221.463 61.5472C221.556 61.5082 221.655 61.4885 221.756 61.4892C221.856 61.4899 221.956 61.5111 222.048 61.5514C223.458 61.7641 224.83 62.1813 226.12 62.7898C227.482 63.3169 228.737 64.0846 229.827 65.0562C230 65.1614 230.125 65.3307 230.174 65.5273C230.223 65.7239 230.192 65.9318 230.088 66.1059ZM231.5 57.7281C217.53 50.4809 201.908 47.0119 186.184 47.6653C169.812 48.4269 153.925 53.4643 140.106 62.2759L139.622 62.9887C138.994 66.2033 137.482 69.1791 135.257 71.5822C132.997 73.9528 130.139 75.6691 126.985 76.5495C126.819 76.6071 126.669 76.704 126.549 76.8319C126.428 76.9598 126.34 77.115 126.292 77.2842C125.529 80.308 124.482 83.253 123.165 86.0799C122.537 87.3285 121.047 89.7549 119.68 89.4398C116.459 88.7068 112.534 83.7192 110.78 80.9171C110.712 80.8083 110.622 80.7145 110.516 80.6414C110.41 80.5684 110.291 80.5175 110.165 80.492C110.039 80.4665 109.909 80.4668 109.783 80.493C109.657 80.5191 109.538 80.5705 109.432 80.6441L69.3411 106.758L2.72971 76.59V18.6614C2.74569 14.4575 4.42276 10.4303 7.39538 7.45771C10.368 4.48509 14.3951 2.80802 18.599 2.79204C47.5271 2.77182 201.314 2.68758 215.296 2.66567C219.534 2.74276 223.579 4.44641 226.596 7.42397C229.612 10.4015 231.368 14.425 231.5 18.6614V57.7281Z" fill="#003459"/>
<path d="M268.879 92.4049C269.002 92.9604 268.934 93.5413 268.686 94.0534C268.437 94.5655 268.024 94.9788 267.512 95.2266C266.999 95.4743 266.418 95.542 265.863 95.4186C265.307 95.2951 264.81 94.9879 264.451 94.5465C264.328 93.9909 264.396 93.4101 264.644 92.898C264.892 92.3859 265.306 91.9725 265.818 91.7248C266.33 91.477 266.911 91.4094 267.467 91.5328C268.022 91.6562 268.52 91.9635 268.879 92.4049Z" fill="#003459"/>
<path d="M263.672 107.266C264.387 108.936 266.508 108.995 268.078 108.277C268.71 107.953 269.259 107.487 269.681 106.916C270.104 106.345 270.389 105.684 270.515 104.985C270.59 104.857 270.639 104.716 270.659 104.569C270.678 104.422 270.668 104.273 270.629 104.13C270.59 103.988 270.522 103.854 270.431 103.738C270.339 103.622 270.225 103.525 270.095 103.453C269.823 103.317 269.509 103.289 269.217 103.375C268.925 103.46 268.676 103.653 268.52 103.915C267.94 104.83 265.824 106.587 265.204 105.72C265.106 105.616 264.988 105.533 264.857 105.476C264.726 105.419 264.585 105.389 264.442 105.387C264.3 105.385 264.158 105.412 264.026 105.465C263.893 105.519 263.773 105.599 263.672 105.699C263.568 105.802 263.486 105.924 263.43 106.058C263.373 106.193 263.344 106.337 263.344 106.483C263.344 106.629 263.373 106.773 263.43 106.908C263.486 107.042 263.568 107.164 263.672 107.266Z" fill="#003459"/>
<path d="M290.602 72.0002C290.604 71.3207 290.534 70.6429 290.393 69.9782C288.841 61.8734 279.545 62.8473 274.271 61.8346C268.004 60.6754 261.677 58.0248 255.86 62.5272C249.377 67.4659 248.711 79.6602 257.476 82.5534C257.716 82.6323 257.97 82.6566 258.219 82.6244C258.469 82.5923 258.709 82.5045 258.92 82.3676C259.132 82.2306 259.31 82.048 259.441 81.8332C259.573 81.6184 259.655 81.3768 259.68 81.1262C260.324 81.7052 261.02 82.2235 261.76 82.6747C261.607 84.8753 261.023 87.0244 260.043 89.0002C259.086 90.6448 255.672 93.4486 255.171 96.2457C254.694 98.694 256.154 100.379 258.383 101.494C258.172 108.61 260.027 116.56 267.116 116.607L267.327 118.811C267.354 119.108 267.496 119.383 267.724 119.576C267.952 119.768 268.246 119.864 268.543 119.841C268.842 119.808 269.117 119.661 269.309 119.43C269.501 119.199 269.596 118.902 269.573 118.602L269.613 115.222C269.567 114.874 269.422 114.546 269.194 114.279C269.055 114.161 268.894 114.072 268.721 114.018C268.547 113.963 268.364 113.945 268.183 113.963C263.844 114.144 262.375 110.425 261.864 106.091C261.658 104.265 261.616 102.425 261.739 100.591C261.767 100.244 261.684 99.8961 261.503 99.5984C261.321 99.3006 261.05 99.0678 260.728 98.9333C260.149 98.6923 258.528 97.9341 258.44 97.2736C257.962 95.9256 261.642 92.6347 262.702 90.4308C263.657 88.2562 264.117 85.8965 264.05 83.5223C264.389 83.4621 264.701 83.2953 264.94 83.0459C265.178 82.7965 265.331 82.4776 265.376 82.1355C266.629 83.211 268.085 84.0246 269.657 84.5282C270.028 84.6519 270.431 84.6369 270.791 84.4861C271.199 84.9912 271.641 85.4681 272.114 85.9133C271.983 86.2183 271.858 86.5317 271.74 86.8501C270.985 86.0611 269.983 85.5529 268.9 85.4093C267.818 85.2656 266.718 85.4951 265.783 86.0599C263.148 88.1695 264.459 89.3406 265.699 89.0794C266.563 88.7586 267.485 88.6239 268.405 88.684C269.324 88.7441 270.221 88.9977 271.036 89.4282C270.822 90.3529 270.795 91.3109 270.955 92.2464C271.115 93.1818 271.459 94.0762 271.967 94.8775C272.102 95.0902 272.293 95.2616 272.519 95.3728C272.745 95.484 272.997 95.5306 273.248 95.5077C273.936 95.5105 274.615 95.6663 275.236 95.9639C275.857 96.2614 276.404 96.6932 276.837 97.2281C278.074 98.7446 277.669 100.716 275.115 101.323C273.174 101.783 272.419 101.087 271.652 101.828C271.509 101.96 271.398 102.123 271.329 102.305C271.26 102.487 271.234 102.682 271.253 102.876C271.748 108.325 275.203 112.754 280.391 112.749C280.356 113.832 280.379 114.916 280.458 115.997C280.48 116.183 280.898 118.579 282.032 118.579C282.992 118.579 283.318 117.551 283.628 115.997C283.685 115.564 283.66 113.593 283.611 112.08C290.052 104.48 296.095 95.5043 297.765 85.7262C298.833 79.5659 296.764 73.2337 290.602 72.0002Z" fill="#003459"/>
<path d="M319.833 154.38C318.612 135.91 305.115 118.614 285.889 118.826C285.515 118.843 285.157 118.981 284.869 119.22C284.581 119.458 284.379 119.785 284.293 120.149C284.226 120.402 284.097 120.634 283.917 120.825C283.738 121.015 283.514 121.158 283.265 121.241C279.607 123.226 271.592 120.865 266.262 121.241C244.414 122.88 223.869 139.322 209.877 156.151C209.727 156.307 209.616 156.498 209.554 156.706C209.491 156.914 209.48 157.133 209.52 157.347C209.768 159.575 210.239 161.772 210.923 163.907C206.771 170.583 203.147 177.267 203.297 185.155C203.211 187.721 203.804 190.265 205.017 192.528C206.231 194.791 208.02 196.694 210.205 198.043C216.925 201.794 227.729 201.376 234.175 198.923C234.143 203.76 234.198 208.584 234.232 212.514C234.237 212.812 234.359 213.097 234.57 213.308C234.781 213.519 235.066 213.641 235.364 213.646C235.513 213.647 235.661 213.618 235.799 213.562C235.937 213.505 236.062 213.422 236.167 213.317C236.273 213.211 236.356 213.086 236.413 212.948C236.47 212.811 236.499 212.663 236.498 212.514C236.554 205.914 236.687 194.083 237.218 187.318C238.288 186.415 239.848 185.092 242.05 182.89C243.08 181.966 244.045 181.021 244.991 180.056C246.856 178.282 248.549 176.335 250.046 174.241C250.244 174.023 250.349 173.736 250.337 173.441C250.325 173.147 250.198 172.869 249.983 172.667C249.879 172.567 249.756 172.489 249.621 172.437C249.486 172.385 249.342 172.36 249.198 172.364C249.054 172.368 248.911 172.4 248.78 172.459C248.648 172.518 248.529 172.602 248.43 172.707C246.492 174.181 244.648 175.773 242.908 177.474C238.271 181.847 237.541 182.135 235.169 185.284C224.117 180.639 214.251 169.765 212.773 157.702C226.058 141.956 245.927 126.089 266.451 124.557C271.408 124.176 276.224 125.88 281.334 125.165C282.453 125.117 283.545 124.817 284.531 124.286C285.516 123.755 286.368 123.008 287.023 122.1C303.843 122.437 315.769 138.172 317.147 154.575C317.68 161.271 317.105 168.473 312.647 173.339C312.544 172.347 312.424 171.317 312.289 170.237C312.285 170.09 312.25 169.946 312.187 169.814C312.124 169.681 312.034 169.563 311.924 169.466C311.813 169.37 311.684 169.297 311.544 169.253C311.404 169.209 311.256 169.194 311.11 169.209C310.819 169.235 310.55 169.372 310.358 169.592C310.166 169.812 310.067 170.097 310.082 170.389C310.419 177.724 309.091 208.704 308.802 214.873C308.785 215.166 308.88 215.455 309.067 215.681C309.255 215.907 309.521 216.054 309.812 216.091C309.962 216.107 310.113 216.092 310.256 216.049C310.4 216.005 310.533 215.933 310.649 215.837C310.764 215.741 310.859 215.623 310.928 215.49C310.997 215.357 311.039 215.211 311.051 215.062C312.27 206.162 312.986 197.2 313.194 188.219C313.31 184.22 313.218 180.217 312.918 176.227C315.123 174.138 316.882 171.624 318.088 168.835C319.703 164.199 320.299 159.268 319.833 154.38ZM229.349 185.52C228.329 186.337 227.585 187.51 228.13 188.238C228.825 189.348 231.452 188.337 232.37 187.503C232.447 187.441 232.581 187.343 232.737 187.229C233.308 187.481 233.881 187.722 234.459 187.947C234.313 190.602 234.234 193.507 234.195 196.478C229.36 198.185 218.41 198.793 211.798 195.14C208.33 193.195 206.674 189.008 206.551 185.064C206.416 178.89 209.151 172.463 212.015 166.753C215.648 174.693 221.721 181.267 229.349 185.518V185.52Z" fill="#003459"/>
<path d="M114.701 164.628C114.802 164.679 114.914 164.706 115.027 164.706C115.14 164.706 115.251 164.679 115.352 164.628C121.315 161.932 127.426 158.247 132.692 155.308C132.911 155.16 133.08 154.948 133.174 154.7C133.199 154.573 133.197 154.441 133.168 154.315C133.139 154.188 133.083 154.069 133.005 153.965C130.815 150.521 127.484 144.455 125.784 141.874C124.973 140.678 124.904 140.598 124.334 140.256C112.049 135.201 102.834 132 90.3918 127.43C90.1238 127.34 89.8317 127.355 89.5744 127.472C89.317 127.589 89.1136 127.799 89.0051 128.06C87.8711 130.783 86.4422 133.415 85.5205 135.643C84.5769 138.056 83.6535 140.555 82.5818 142.989C80.7283 147.667 80.0072 147.657 80.3357 148.509C80.369 148.648 80.4337 148.777 80.5249 148.886C80.6161 148.995 80.7312 149.082 80.8615 149.14C85.4784 151.301 87.9384 152.54 90.0767 153.59C93.5647 155.17 90.6715 153.219 114.701 164.628ZM90.6243 129.867C90.3547 130.674 88.6579 133.853 87.5593 136.479C86.1069 139.958 84.6712 144.014 82.7941 147.709C87.5593 150.039 113.694 162.508 115.016 163.159C120.166 160.631 125.593 157.302 130.866 154.174C130.491 153.475 123.664 142.379 123.539 142.211C120.262 140.576 90.7861 129.927 90.6176 129.867H90.6243Z" fill="#003459"/>
<path d="M121.708 144.044C119.9 147.799 118.344 151.67 117.049 155.632C116.629 156.954 116.25 158.297 115.869 159.62C115.833 159.709 115.815 159.803 115.816 159.899C115.817 159.994 115.836 160.089 115.873 160.177C115.911 160.265 115.965 160.344 116.033 160.411C116.101 160.478 116.182 160.531 116.27 160.567C116.359 160.603 116.453 160.621 116.549 160.62C116.644 160.62 116.739 160.6 116.827 160.563C116.915 160.525 116.994 160.471 117.061 160.403C117.128 160.335 117.181 160.255 117.217 160.166C118.523 157.703 119.632 155.14 120.535 152.503C121.611 149.928 122.467 147.267 123.096 144.548C123.133 144.458 123.151 144.362 123.15 144.266C123.149 144.169 123.128 144.074 123.089 143.985C123.049 143.897 122.993 143.817 122.922 143.752C122.851 143.686 122.767 143.635 122.676 143.603C122.489 143.542 122.286 143.554 122.107 143.636C121.927 143.717 121.785 143.863 121.708 144.044Z" fill="#003459"/>
<path d="M132.214 159.251C132.209 159.051 132.128 158.862 131.987 158.721C131.846 158.58 131.656 158.499 131.457 158.494C131.359 158.491 131.261 158.507 131.169 158.543C131.077 158.579 130.994 158.632 130.923 158.701C130.853 158.769 130.797 158.851 130.759 158.942C130.721 159.033 130.702 159.13 130.702 159.229C130.667 162.365 130.47 165.497 130.114 168.612C125.642 171.187 126.129 170.746 122.452 172.789C120.378 174.014 119.008 174.929 117.552 175.698C117.645 172.727 117.316 169.757 116.575 166.878C116.572 166.778 116.547 166.68 116.503 166.59C116.459 166.5 116.396 166.421 116.319 166.357C116.241 166.293 116.151 166.247 116.055 166.22C115.958 166.194 115.857 166.189 115.758 166.205C115.571 166.233 115.402 166.331 115.285 166.479C115.168 166.628 115.112 166.815 115.128 167.003C115.128 167.846 115.023 168.616 115.023 169.647C115.083 171.663 115.282 173.673 115.618 175.662C105.968 172.124 94.0179 166.395 85.9468 163.741C85.6317 162.056 84.4555 155.008 84.1404 153.139C84.1128 152.948 84.0118 152.775 83.8589 152.658C83.706 152.54 83.5132 152.487 83.3215 152.509C83.226 152.52 83.1338 152.551 83.0502 152.598C82.9666 152.646 82.8933 152.71 82.8347 152.786C82.7762 152.862 82.7335 152.949 82.7091 153.042C82.6848 153.136 82.6793 153.233 82.693 153.328C83.576 159.899 84.041 163.591 84.1826 164.617C84.2119 164.788 84.2883 164.947 84.4032 165.077C84.5181 165.207 84.667 165.302 84.833 165.352C91.5612 167.94 105.911 174.488 116.469 178.283C116.751 178.374 117.058 178.359 117.33 178.24C119.901 176.955 121.349 175.849 123.542 174.609C127.511 172.21 126.589 173.069 131.462 169.949C131.572 169.879 131.667 169.787 131.739 169.678C131.811 169.57 131.86 169.447 131.882 169.318C132.225 165.974 132.336 162.61 132.214 159.251Z" fill="#003459"/>
<path d="M71.9697 91.0369C71.9613 91.1486 71.9277 91.257 71.8714 91.3539C71.8151 91.4507 71.7375 91.5336 71.6446 91.5962C71.5517 91.6588 71.4458 91.6995 71.3349 91.7153C71.224 91.7311 71.1109 91.7215 71.0042 91.6873C67.7083 90.6157 54.6934 86.2296 51.4178 85.1158C51.2824 85.0564 51.1606 84.9701 51.0598 84.862C50.959 84.754 50.8812 84.6265 50.8314 84.4873C50.5534 83.7662 51.1414 83.6971 53.6639 78.7145C55.7634 74.7464 57.632 70.6737 59.836 66.8117C59.972 66.5673 60.1982 66.3859 60.4662 66.3062C68.9738 63.9118 74.9421 61.1855 84.1236 59.2528C84.2851 59.2217 84.4513 59.2263 84.6108 59.2661C84.7703 59.306 84.9192 59.3802 85.047 59.4836C88.0429 61.9538 91.6522 67.3694 97.1386 75.0176C97.2277 75.1376 97.2892 75.2758 97.3186 75.4223C97.348 75.5689 97.3445 75.7201 97.3084 75.8651C97.2723 76.0102 97.2045 76.1454 97.1098 76.2611C97.0152 76.3767 96.8961 76.47 96.7611 76.5341C93.1299 78.6117 82.5279 84.6575 80.976 85.5809C76.9573 88.0309 77.2202 88.1202 71.9697 91.0369ZM84.0191 61.5006C76.7736 63.0339 68.9215 66.1545 61.4941 68.281C58.3027 73.8213 56.9227 77.6665 53.2376 83.6684L70.647 90.0125C75.1779 87.6535 75.3094 86.8918 86.2653 80.2513C89.1196 78.5663 91.9336 76.9352 94.7256 75.2973C93.4956 73.5298 86.7034 63.8949 84.0191 61.5006Z" fill="#003459"/>
<path d="M62.8741 71.5453L63.5245 73.4561C65.1801 77.8367 67.1296 82.1004 69.3596 86.2183C69.3937 86.308 69.4455 86.3899 69.5121 86.4589C69.5786 86.528 69.6585 86.5829 69.7469 86.6202C69.8352 86.6575 69.9302 86.6766 70.0261 86.6761C70.1221 86.6757 70.2169 86.6558 70.3049 86.6177C70.3991 86.5825 70.4853 86.529 70.5586 86.4603C70.6319 86.3915 70.6908 86.3089 70.7319 86.2172C70.773 86.1254 70.7954 86.0265 70.7979 85.926C70.8004 85.8255 70.7829 85.7256 70.7464 85.6319C69.0995 80.5151 66.9106 75.5888 64.217 70.937C64.1305 70.7685 63.9824 70.6397 63.8035 70.5773C63.6246 70.5149 63.4286 70.5237 63.256 70.6019C63.0834 70.6801 62.9475 70.8216 62.8764 70.9972C62.8053 71.1729 62.8045 71.3691 62.8741 71.5453Z" fill="#003459"/>
<path d="M151.909 31.5667C151.902 31.3302 151.82 31.1022 151.673 30.916C151.527 30.7299 151.325 30.5953 151.097 30.5322C143.227 28.1546 135.068 26.3753 130.54 24.9717C130.296 24.9004 130.034 24.9226 129.806 25.034C127.552 26.218 125.397 27.5798 123.361 29.1066C122.646 29.6307 123.507 30.8523 124.284 30.2861C126.197 28.9863 128.22 27.8554 130.33 26.906C140.077 29.9778 141.082 29.8885 148.022 31.9071C144.578 33.6121 141.306 35.6434 138.249 37.9731C138.079 38.0734 137.956 38.2371 137.907 38.4281C137.858 38.6192 137.887 38.8219 137.987 38.9917C138.088 39.1615 138.251 39.2845 138.442 39.3337C138.633 39.3828 138.836 39.354 139.006 39.2537C142.73 37.5041 146.317 35.4764 149.736 33.1877C150.059 42.6237 150.545 45.9196 151.158 52.7017C151.172 52.8992 151.264 53.0832 151.413 53.213C151.563 53.3429 151.757 53.4081 151.955 53.3942C152.153 53.3804 152.336 53.2886 152.466 53.1392C152.596 52.9897 152.661 52.7948 152.648 52.5972C152.57 49.6182 151.909 35.2282 151.909 31.5667Z" fill="#003459"/>
<path d="M216.981 7.89113C215.564 8.38146 214.105 8.85663 212.6 9.54917C209.798 10.9115 207.152 12.5724 204.707 14.5031C203.77 15.2891 202.903 16.1551 202.116 17.0912C186.169 13.0287 170.792 12.3109 155.937 18.9447C155.768 18.8858 144.089 16.5301 137.354 15.846C143.378 12.7955 149.715 10.4101 156.255 8.73194C158.688 8.08755 161.155 7.58124 163.645 7.21544C163.835 7.18465 164.006 7.08284 164.123 6.93071C164.24 6.77858 164.294 6.58757 164.276 6.39653C164.247 6.20846 164.149 6.03783 164.001 5.91768C163.854 5.79752 163.667 5.73639 163.477 5.74612C160.89 5.87309 158.315 6.18845 155.773 6.68972C150.734 7.80379 145.844 9.50961 141.205 11.7717C138.362 13.1921 136.428 14.439 134.508 15.6118C134.399 15.6825 134.31 15.7808 134.25 15.8968C134.19 16.0128 134.162 16.1426 134.168 16.2729C134.174 16.4033 134.214 16.5298 134.285 16.6397C134.355 16.7496 134.453 16.8391 134.569 16.8991V21.3391C134.559 21.4365 134.569 21.535 134.6 21.6282C134.63 21.7213 134.679 21.8072 134.744 21.8803C134.809 21.9534 134.889 22.0121 134.978 22.0527C135.067 22.0933 135.164 22.1148 135.262 22.1159C135.453 22.1237 135.641 22.0552 135.782 21.9254C135.923 21.7956 136.008 21.6151 136.017 21.4234L136.227 17.5192C140.3 18.0652 144.598 18.9953 154.533 20.8892C154.637 23.5852 155.33 45.871 155.434 49.8594C155.437 49.9561 155.458 50.0513 155.498 50.1395C155.537 50.2278 155.594 50.3073 155.664 50.3736C155.734 50.4399 155.817 50.4916 155.908 50.5257C155.998 50.5597 156.094 50.5755 156.191 50.5722C156.285 50.57 156.377 50.5492 156.463 50.511C156.549 50.4728 156.626 50.4179 156.691 50.3496C156.755 50.2812 156.805 50.2008 156.839 50.1129C156.872 50.025 156.887 49.9314 156.884 49.8375C157.249 35.9582 156.911 31.963 156.74 20.2523C167.936 15.7938 182.389 14.4138 200.887 18.9852C199.637 27.3377 201.26 36.1503 201.411 44.1557C201.414 44.254 201.436 44.3509 201.477 44.4404C201.518 44.5299 201.576 44.6104 201.649 44.6769C201.721 44.7434 201.806 44.7946 201.899 44.8275C201.992 44.8605 202.09 44.8744 202.188 44.8685C202.378 44.8547 202.556 44.7689 202.684 44.6286C202.813 44.4882 202.883 44.304 202.881 44.1136C202.796 36.3255 201.853 25.8633 203.13 18.3701C204.525 17.1654 207.043 15.354 208.173 14.6008C210.569 13.0034 216.133 9.93335 217.535 9.26777C217.702 9.18356 217.83 9.03999 217.896 8.86543C217.962 8.69088 217.959 8.49805 217.89 8.32506C217.82 8.15207 217.688 8.01151 217.52 7.93116C217.351 7.85082 217.159 7.83653 216.981 7.89113Z" fill="#003459"/>
<path d="M227.33 25.3369C225.982 24.9392 224.664 24.4944 223.257 24.1405C221.227 23.5929 216.913 22.7925 214.966 22.5246C213.86 22.3982 212.741 22.3241 211.875 22.2752C216.844 19.3113 222.909 15.4678 226.269 13.5705C226.428 13.4676 226.542 13.3084 226.59 13.1247C226.637 12.941 226.613 12.7463 226.522 12.5795C226.432 12.4126 226.282 12.286 226.103 12.2248C225.923 12.1637 225.727 12.1725 225.554 12.2495C220.027 14.9354 216.324 17.227 209.39 21.2339C209.209 21.338 209.064 21.4929 208.97 21.6792C208.877 21.8655 208.841 22.0751 208.866 22.282C209.949 34.3516 209.82 37.9154 210.775 47.4727C210.779 47.567 210.802 47.6595 210.843 47.7448C210.883 47.8301 210.941 47.9064 211.011 47.9692C211.082 48.032 211.164 48.08 211.253 48.1105C211.343 48.141 211.437 48.1533 211.532 48.1467C211.63 48.1503 211.728 48.1328 211.818 48.0955C211.909 48.0583 211.991 48.002 212.059 47.9306C212.126 47.8592 212.178 47.7741 212.21 47.6812C212.242 47.5883 212.253 47.4897 212.244 47.3918C212.029 38.7191 211.965 31.6 211.161 23.8119C212.398 24.0933 212.433 24.1489 215.07 24.7084C223.589 26.3832 224.599 26.4709 227.015 26.7657C227.11 26.7921 227.21 26.7987 227.308 26.7852C227.406 26.7717 227.5 26.7384 227.584 26.6873C227.669 26.6362 227.742 26.5683 227.799 26.488C227.857 26.4076 227.897 26.3163 227.918 26.2198C227.955 26.025 227.914 25.8234 227.804 25.6584C227.694 25.4933 227.524 25.3779 227.33 25.3369Z" fill="#003459"/>
<path d="M88.909 122.459C84.8212 120.305 74.1653 114.672 71.4845 113.894C70.6049 113.587 71.7979 113.453 53.7262 119.101C53.495 119.175 53.2933 119.321 53.1498 119.517C53.0064 119.713 52.9286 119.95 52.9276 120.193C53.1399 129.502 53.6673 135.115 55.0068 147.658C55.0164 147.834 55.0717 148.004 55.1671 148.152C55.2626 148.299 55.3949 148.42 55.5511 148.501C64.2423 153.101 68.4599 155.825 78.4536 160.821C78.5417 160.867 78.6383 160.895 78.7375 160.903C78.8366 160.911 78.9364 160.899 79.0308 160.868C79.1252 160.836 79.2122 160.786 79.2868 160.72C79.3613 160.654 79.4218 160.574 79.4646 160.484C79.5405 160.31 79.5504 160.113 79.4924 159.932C79.4345 159.751 79.3126 159.597 79.1495 159.499C76.8933 158.221 62.1883 149.779 57.0457 146.903C56.4475 140.348 55.4854 129.741 55.1922 121.628C58.0853 123.281 61.8328 125.633 64.5894 127.082C67.6224 128.698 74.0625 131.765 76.954 133.632C77.1494 145.302 77.5336 144.849 77.7105 153.323C77.708 153.42 77.7252 153.517 77.7613 153.607C77.7973 153.697 77.8513 153.779 77.92 153.848C77.9888 153.917 78.0708 153.971 78.1611 154.007C78.2513 154.043 78.348 154.06 78.4452 154.058C78.6453 154.056 78.8368 153.976 78.9781 153.834C79.1194 153.693 79.1992 153.501 79.2001 153.301C79.2001 150.084 79.1445 137.813 79.1377 133.654C79.5556 133.531 79.7999 133.445 80.2245 133.317C80.2734 133.297 82.5381 132.306 82.7857 132.183C83.7579 131.757 84.6745 131.214 85.5155 130.567C86.3883 130.178 85.7513 128.838 84.8853 129.219C83.8921 129.433 82.9221 129.743 81.9887 130.144C80.7465 130.606 79.566 131.218 78.4738 131.969C73.9075 129.147 70.0842 127.529 65.5954 125.207C62.3063 123.595 60.0703 122.211 56.5722 120.503C61.4435 118.93 69.2569 116.349 70.9132 115.854C73.5789 116.652 84.095 121.78 88.2519 123.773C88.4262 123.86 88.6279 123.875 88.8128 123.813C88.9977 123.751 89.1505 123.619 89.2376 123.445C89.3248 123.27 89.3391 123.069 89.2775 122.884C89.2159 122.699 89.0833 122.546 88.909 122.459Z" fill="#003459"/>
<path d="M55.9841 58.6716C56.1526 57.2562 52.9191 56.2233 51.5357 55.701C50.1523 55.1786 46.0662 53.8795 44.6087 53.497C44.0745 53.3588 42.4839 52.9915 41.1022 52.7404C41.009 52.7013 40.9087 52.6819 40.8076 52.6837C40.7065 52.6855 40.6069 52.7083 40.5152 52.7506C40.4234 52.793 40.3414 52.854 40.2745 52.9298C40.2076 53.0055 40.1573 53.0944 40.1266 53.1907C40.0959 53.2871 40.0857 53.3887 40.0965 53.4892C40.1073 53.5897 40.1389 53.6869 40.1893 53.7745C40.2397 53.8621 40.3078 53.9383 40.3892 53.9981C40.4707 54.058 40.5637 54.1002 40.6624 54.1221C44.7496 55.902 48.9978 57.2866 53.3488 58.2571C48.8734 60.1645 42.9489 62.3331 38.6235 65.3341C38.4758 65.4235 38.3538 65.5497 38.2693 65.7003C38.1849 65.8509 38.1409 66.0208 38.1416 66.1935C37.9226 73.7439 39.5688 81.3079 39.3801 87.3756C39.376 87.4734 39.3912 87.5711 39.4249 87.663C39.4585 87.7549 39.5099 87.8393 39.5762 87.9114C39.6425 87.9834 39.7223 88.0417 39.8111 88.0829C39.8999 88.1241 39.9959 88.1474 40.0937 88.1515C40.2912 88.1598 40.484 88.0893 40.6295 87.9554C40.775 87.8216 40.8614 87.6355 40.8697 87.4379C41.451 80.0239 40.1788 73.5519 40.2816 66.8237C44.6766 64.2743 49.2596 62.0639 53.9907 60.2117C53.9907 60.2926 54.5401 67.4943 54.5771 69.3006C54.5778 69.3988 54.5979 69.4958 54.6365 69.5861C54.675 69.6763 54.7311 69.758 54.8015 69.8264C54.8719 69.8948 54.9552 69.9485 55.0466 69.9843C55.138 70.0202 55.2356 70.0375 55.3337 70.0353C55.5241 70.0261 55.7033 69.9426 55.8328 69.8027C55.9623 69.6628 56.0317 69.4777 56.0262 69.2871C56.0633 66.2845 55.9841 64.9735 55.9841 58.6716Z" fill="#003459"/>
<path d="M227.706 88.7154C213.355 82.4809 199.735 76.2212 184.401 72.8663C184.254 72.8324 184.101 72.8299 183.953 72.8589C183.805 72.8879 183.664 72.9479 183.54 73.0348C166.271 84.8214 147.697 98.1885 130.598 110.947C130.46 111.062 130.354 111.208 130.288 111.374C130.222 111.54 130.198 111.719 130.219 111.897C130.24 112.074 130.305 112.243 130.408 112.389C130.511 112.535 130.648 112.653 130.808 112.732C132.889 113.653 153.837 122.051 162.127 125.558C166.368 127.342 170.419 129.588 174.596 131.52C179.672 133.853 180.18 133.638 180.18 133.808C180.247 133.882 180.327 133.943 180.416 133.986C180.506 134.03 180.603 134.055 180.702 134.061C180.802 134.067 180.901 134.053 180.995 134.02C181.09 133.987 181.176 133.936 181.25 133.87C182.405 132.82 223.36 94.8674 227.979 90.4594C228.105 90.34 228.2 90.1917 228.256 90.0273C228.312 89.8629 228.327 89.6873 228.301 89.5157C228.274 89.3441 228.206 89.1816 228.102 89.0422C227.998 88.9028 227.862 88.7907 227.706 88.7154ZM209.085 83.0943C207.333 84.3215 205.729 85.7469 204.305 87.3422C203.294 87.0052 190.386 83.1651 188.622 82.6242C189.674 81.967 192.194 79.6889 194.457 77.8169C199.408 79.3502 204.273 81.1565 209.085 83.0943ZM166.379 125.644C163.207 124.08 163.046 124.063 148.191 117.829C150.113 116.272 153.431 114.044 154.632 113.028C161.241 116.252 164.338 118.006 171.07 120.921C171.21 120.781 167.974 124.05 166.379 125.644ZM180.642 132.399C176.266 130.683 172.007 128.68 167.893 126.404C171.177 123.58 171.811 122.865 173.589 121.383C173.714 121.263 173.809 121.115 173.865 120.951C173.921 120.786 173.936 120.611 173.909 120.44C173.882 120.268 173.814 120.106 173.711 119.967C173.608 119.828 173.472 119.716 173.316 119.64C171.447 118.821 156.668 111.685 154.968 110.866C154.784 110.785 154.581 110.756 154.381 110.781C154.181 110.807 153.993 110.887 153.835 111.013C151.556 113.131 149.23 114.678 146.59 117.16C141.508 115.025 136.429 112.882 133.317 111.534C137.85 108.187 149.202 100.022 160.225 92.1562C163.544 93.8227 171.939 97.6729 174.055 98.6115C173.595 99.2928 173.282 100.063 173.139 100.873C172.995 101.683 173.023 102.514 173.222 103.313C173.42 104.111 173.784 104.858 174.29 105.507C174.796 106.155 175.432 106.69 176.158 107.077C177.836 107.958 179.754 108.271 181.625 107.97C183.495 107.669 185.218 106.77 186.535 105.407C189.736 106.89 195.26 110.224 198.048 111.557C199.069 112.063 200.111 112.476 201.112 112.87C197.185 116.548 193.745 119.767 191.676 121.698C187.874 125.24 183.663 129.686 180.642 132.399ZM175.193 101.825C175.147 99.0731 178.175 97.7487 180.61 97.7942C183.672 97.8465 185.874 98.9198 185.984 101.614C186.218 105.136 180.255 107.094 177.314 105.225C176.71 104.875 176.2 104.382 175.83 103.789C175.46 103.196 175.241 102.522 175.193 101.825ZM202.304 111.749C198.336 109.175 194.195 106.876 189.911 104.87C189.08 104.556 188.23 104.296 187.365 104.089C188.814 100.81 186.765 96.5069 180.701 95.9829C178.784 95.7728 176.856 96.2727 175.282 97.3881C171.108 94.5768 166.505 92.4637 161.652 91.1317C171.351 84.2114 180.553 77.6956 184.336 75.1057C187.121 75.7157 189.871 76.4352 192.592 77.2406C190.144 78.9879 187.315 81.0993 185.684 82.0867C185.513 82.1966 185.377 82.3534 185.292 82.5382C185.208 82.7231 185.178 82.9284 185.207 83.1297C185.236 83.3309 185.322 83.5197 185.455 83.6735C185.587 83.8273 185.762 83.9398 185.957 83.9975C192.528 86.2469 198.572 87.8949 204.367 89.4771C204.572 89.5351 204.79 89.5301 204.992 89.4628C205.194 89.3955 205.372 89.269 205.501 89.0996C207.004 87.1 208.769 85.3104 210.746 83.7784C215.667 85.8004 220.536 87.9302 225.394 90.0449C222.555 92.7662 211.409 103.227 202.304 111.749Z" fill="#003459"/>
<path d="M95.4923 85.0336C95.2598 83.2441 95.2783 82.7689 95.1553 81.3266C95.1443 81.1288 95.0553 80.9435 94.9077 80.8114C94.7602 80.6793 94.5662 80.6113 94.3684 80.6222C94.1707 80.6332 93.9854 80.7223 93.8533 80.8698C93.7212 81.0174 93.6531 81.2114 93.6641 81.4091C93.7062 81.8995 93.7702 84.3579 93.7702 84.705C83.458 90.8704 77.2084 95.0223 71.9208 98.8438C71.9893 97.0395 71.7558 95.2365 71.23 93.5091C71.2153 93.3118 71.1234 93.1282 70.9741 92.9982C70.8249 92.8683 70.6305 92.8024 70.433 92.8149C70.242 92.8361 70.0657 92.9272 69.9378 93.0706C69.81 93.214 69.7397 93.3996 69.7404 93.5917C69.4863 95.7629 69.5887 97.961 70.0437 100.099C64.9195 98.1815 59.7011 96.5258 54.4086 95.1385L53.7161 87.7077C53.7191 87.6123 53.7018 87.5173 53.6654 87.4291C53.629 87.3409 53.5742 87.2614 53.5048 87.1959C53.4353 87.1305 53.3527 87.0805 53.2625 87.0493C53.1723 87.0181 53.0765 87.0065 52.9814 87.0151C52.79 87.0298 52.6109 87.1152 52.4791 87.2548C52.3473 87.3944 52.2723 87.5781 52.2687 87.77C52.2687 89.1467 52.577 94.5842 52.6057 95.9574C52.6142 96.1561 52.6859 96.3468 52.8105 96.5017C52.9351 96.6566 53.106 96.7676 53.2982 96.8185C58.3212 98.0435 64.4698 100.6 70.0505 102.379C71.0345 102.687 70.4717 102.231 80.5464 95.5143C82.961 93.8984 92.7003 87.4532 95.093 85.8575C95.2319 85.7733 95.3435 85.6507 95.4143 85.5045C95.4852 85.3583 95.5123 85.1948 95.4923 85.0336Z" fill="#003459"/>
<path d="M115.926 30.6689C110.006 30.685 104.313 32.9531 100.004 37.013C95.6944 41.0729 93.0913 46.6204 92.7227 52.5295C92.3541 58.4386 94.2477 64.2666 98.0191 68.8305C101.79 73.3945 107.157 76.3525 113.03 77.1042C115.325 81.898 113.926 78.742 118.174 87.7466C118.264 87.9549 118.418 88.1294 118.613 88.2451C118.808 88.3609 119.034 88.4119 119.26 88.391C119.486 88.37 119.7 88.2782 119.87 88.1285C120.041 87.9789 120.16 87.7792 120.21 87.5579C121.052 84.0312 122.663 79.0335 123.484 76.3072C128.701 74.4809 133.106 70.8724 135.925 66.1171C138.743 61.3618 139.793 55.7646 138.89 50.3113C137.987 44.8579 135.188 39.898 130.988 36.3049C126.787 32.7118 121.454 30.716 115.926 30.6689ZM131.944 54.2016C131.944 56.3038 131.53 58.3853 130.725 60.3275C129.921 62.2696 128.742 64.0342 127.255 65.5207C125.769 67.0071 124.004 68.1862 122.062 68.9906C120.12 69.7951 118.039 70.2091 115.936 70.2091C113.834 70.2091 111.753 69.7951 109.811 68.9906C107.869 68.1862 106.104 67.0071 104.617 65.5207C103.131 64.0342 101.952 62.2696 101.147 60.3275C100.343 58.3853 99.9289 56.3038 99.9289 54.2016C99.9289 52.0995 100.343 50.018 101.147 48.0758C101.952 46.1337 103.131 44.3691 104.617 42.8826C106.104 41.3962 107.869 40.2171 109.811 39.4127C111.753 38.6082 113.834 38.1942 115.936 38.1942C118.039 38.1942 120.12 38.6082 122.062 39.4127C124.004 40.2171 125.769 41.3962 127.255 42.8826C128.742 44.3691 129.921 46.1337 130.725 48.0758C131.53 50.018 131.944 52.0995 131.944 54.2016Z" fill="#003459"/>
<path d="M21.2765 69.5544C18.0722 69.0007 15.1622 67.3444 13.0499 64.8721C10.9375 62.3998 9.75577 59.2669 9.70895 56.0155C9.68312 53.4124 10.3738 50.8523 11.7055 48.6154C13.0371 46.3786 14.9584 44.5511 17.2591 43.333C19.5598 42.1149 22.1512 41.5531 24.7497 41.7091C27.3483 41.8651 29.8539 42.7329 31.9923 44.2175C34.1307 45.7021 35.8196 47.7463 36.8741 50.1264C37.9285 52.5065 38.308 55.1308 37.9709 57.7122C37.6339 60.2935 36.5932 62.7324 34.9629 64.7619C33.3326 66.7914 31.1755 68.3334 28.7275 69.2191L25.9995 75.8951C25.9137 76.0927 25.7724 76.2613 25.5928 76.3803C25.4132 76.4994 25.203 76.5639 24.9875 76.5661C24.772 76.5682 24.5606 76.5079 24.3786 76.3924C24.1967 76.2769 24.0521 76.1112 23.9624 75.9153L21.2765 69.5544ZM24.8655 72.6565L26.6921 67.7869C26.7434 67.6095 26.84 67.4485 26.9723 67.3197C27.1047 67.1909 27.2682 67.0987 27.4469 67.0522C29.4665 66.3889 31.2639 65.1811 32.6412 63.5618C34.0184 61.9425 34.9221 59.9746 35.2527 57.8747C35.5833 55.7748 35.328 53.6244 34.5149 51.6603C33.7018 49.6962 32.3625 47.9946 30.6444 46.7428C28.9263 45.491 26.8961 44.7376 24.7773 44.5655C22.6585 44.3935 20.5334 44.8095 18.6358 45.7677C16.7383 46.726 15.142 48.1892 14.0227 49.9965C12.9034 51.8037 12.3046 53.8847 12.2921 56.0104C12.2517 58.8203 13.2178 61.552 15.0157 63.7118C16.8136 65.8716 19.3248 67.317 22.0954 67.7869C22.2526 67.8197 22.4004 67.8877 22.5276 67.9858C22.6548 68.0838 22.7582 68.2094 22.83 68.353V68.3328L24.8655 72.6565Z" fill="#003459"/>
<path d="M166.181 159.295C162.973 158.746 160.057 157.092 157.941 154.618C155.824 152.145 154.64 149.009 154.594 145.754C154.568 143.151 155.259 140.591 156.59 138.354C157.922 136.118 159.843 134.29 162.144 133.072C164.444 131.854 167.036 131.292 169.634 131.448C172.233 131.604 174.738 132.472 176.877 133.956C179.015 135.441 180.704 137.485 181.758 139.865C182.813 142.245 183.193 144.869 182.856 147.45C182.519 150.032 181.479 152.47 179.849 154.5C178.219 156.53 176.062 158.072 173.614 158.958L170.884 165.614C170.803 165.814 170.664 165.986 170.486 166.109C170.307 166.232 170.097 166.299 169.88 166.304C169.664 166.308 169.451 166.249 169.268 166.134C169.084 166.019 168.939 165.853 168.849 165.656L166.181 159.295ZM169.75 162.402L171.577 157.531C171.632 157.355 171.73 157.196 171.862 157.067C171.994 156.939 172.156 156.846 172.333 156.796C174.635 156.009 176.631 154.52 178.043 152.54C179.455 150.559 180.21 148.186 180.204 145.754C180.204 142.701 178.991 139.772 176.832 137.613C174.673 135.454 171.744 134.241 168.69 134.241C165.637 134.241 162.708 135.454 160.549 137.613C158.39 139.772 157.177 142.701 157.177 145.754C157.138 148.564 158.104 151.295 159.902 153.454C161.7 155.614 164.21 157.059 166.98 157.531C167.138 157.563 167.286 157.631 167.413 157.73C167.54 157.828 167.643 157.954 167.715 158.098V158.077L169.75 162.402Z" fill="#003459"/>
<path d="M125.229 62.6341C124.974 59.8638 123.807 57.2564 121.911 55.2201C121.102 54.4571 120.134 53.8818 119.077 53.5351C122.289 49.5232 118.813 43.6223 114.481 44.5507C113.778 44.7287 113.12 45.0484 112.546 45.4902C111.972 45.9319 111.494 46.4864 111.142 47.1196C110.79 47.7527 110.572 48.4511 110.499 49.1719C110.427 49.8927 110.503 50.6206 110.723 51.3109C111.035 52.4584 111.669 53.4926 112.55 54.2917C111.468 55.071 110.552 56.0563 109.853 57.1911C109.154 58.3258 108.686 59.5875 108.477 60.9037C108.279 62.231 108.188 63.572 108.204 64.9139C108.18 65.1689 108.234 65.4252 108.357 65.6496C108.481 65.8739 108.668 66.0561 108.896 66.1726C112.624 68.1188 116.449 67.551 120.568 66.3192C122.311 65.9506 123.922 65.1167 125.229 63.9063C125.316 63.8247 125.385 63.7262 125.433 63.6168C125.48 63.5074 125.504 63.3894 125.504 63.2702C125.504 63.151 125.48 63.0331 125.433 62.9237C125.385 62.8143 125.316 62.7158 125.229 62.6341Z" fill="#003459"/>
<path d="M31.3393 61.6153C31.1497 60.5161 30.7325 59.4686 30.1145 58.5401C29.4964 57.6115 28.6911 56.8224 27.7503 56.2233C29.6712 52.9999 28.0654 48.4841 24.2236 48.5178C20.1627 48.5885 18.9209 53.3099 20.9058 56.4541C19.1746 57.8404 17.8718 59.6889 17.1482 61.7854C17.0525 62.0204 17.0422 62.2814 17.1192 62.5231C17.1962 62.7648 17.3555 62.9719 17.5695 63.1082C19.6525 64.3801 22.0564 65.0286 24.4965 64.9768C26.9404 64.8796 29.2783 63.9531 31.1253 62.3499C31.2238 62.2581 31.2957 62.1413 31.3333 62.012C31.371 61.8827 31.3731 61.7456 31.3393 61.6153Z" fill="#003459"/>
<path d="M176.214 151.355C176.026 150.257 175.612 149.211 174.998 148.283C174.383 147.354 173.582 146.564 172.645 145.963C174.499 142.753 173.002 138.225 169.107 138.259C165.063 138.328 163.838 143.014 165.789 146.194C164.089 147.605 162.799 149.447 162.053 151.527C161.959 151.761 161.949 152.021 162.026 152.262C162.103 152.503 162.26 152.71 162.473 152.848C164.55 154.118 166.947 154.766 169.381 154.716C171.827 154.622 174.167 153.696 176.015 152.093C176.112 151.999 176.181 151.881 176.216 151.751C176.251 151.621 176.25 151.484 176.214 151.355Z" fill="#003459"/>
<path d="M250.531 122.028C251.914 122.329 253.095 122.365 253.427 121.522C254.312 119.458 247.434 116.567 246.585 118.479C245.899 119.847 248.851 121.691 250.531 122.028Z" fill="#003459"/>
<path d="M257.203 118.017C257.645 117.101 256.831 116.401 255.672 115.436C254.873 114.921 254.027 114.485 253.144 114.133C252.976 114.073 250.672 113.367 250.184 114.344C249.023 116.371 256.159 120.031 257.203 118.017Z" fill="#003459"/>
<path d="M249.815 107.985C251.171 109.149 258.349 114.902 259.68 113.507C260.624 112.415 258.396 110.485 257.308 109.518C255.668 108.173 253.951 106.925 252.165 105.781C249.449 104.128 248.399 103.759 247.784 104.585C247.201 105.4 247.729 106.052 249.815 107.985Z" fill="#003459"/>
</svg>
